<?xml version="1.0" encoding="utf-8" standalone="no"?>
<!DOCTYPE svg PUBLIC "-//W3C//DTD SVG 1.1//EN"
  "http://www.w3.org/Graphics/SVG/1.1/DTD/svg11.dtd">
<svg xmlns:xlink="http://www.w3.org/1999/xlink" width="508.094645pt" height="158.779577pt" viewBox="0 0 508.094645 158.779577" xmlns="http://www.w3.org/2000/svg" version="1.1">
 <metadata>
  <rdf:RDF xmlns:dc="http://purl.org/dc/elements/1.1/" xmlns:cc="http://creativecommons.org/ns#" xmlns:rdf="http://www.w3.org/1999/02/22-rdf-syntax-ns#">
   <cc:Work>
    <dc:type rdf:resource="http://purl.org/dc/dcmitype/StillImage"/>
    <dc:date>2024-04-02T13:33:59.768756</dc:date>
    <dc:format>image/svg+xml</dc:format>
    <dc:creator>
     <cc:Agent>
      <dc:title>Matplotlib v3.8.3, https://matplotlib.org/</dc:title>
     </cc:Agent>
    </dc:creator>
   </cc:Work>
  </rdf:RDF>
 </metadata>
 <defs>
  <style type="text/css">*{stroke-linejoin: round; stroke-linecap: butt}</style>
 </defs>
 <g id="figure_1">
  <g id="patch_1">
   <path d="M 0 158.779577 
L 508.094645 158.779577 
L 508.094645 0 
L 0 0 
z
" style="fill: #ffffff"/>
  </g>
  <g id="axes_1">
   <g id="patch_2">
    <path d="M 55.421448 112.551498 
L 250.57309 112.551498 
L 250.57309 11.88 
L 55.421448 11.88 
z
" style="fill: #ffffff"/>
   </g>
   <g id="matplotlib.axis_1">
    <g id="xtick_1">
     <g id="line2d_1">
      <defs>
       <path id="m4cb6e8aeff" d="M 0 0 
L 0 3.5 
" style="stroke: #000000; stroke-width: 0.8"/>
      </defs>
      <g>
       <use xlink:href="#m4cb6e8aeff" x="64.291977" y="112.551498" style="stroke: #000000; stroke-width: 0.8"/>
      </g>
     </g>
     <g id="text_1">
      <!-- $\mathdefault{−2}$ -->
      <g transform="translate(57.290439 129.261845) scale(0.11 -0.11)">
       <defs>
        <path id="CMSY10-0" d="M 4218 1472 
C 4326 1472 4442 1472 4442 1600 
C 4442 1728 4326 1728 4218 1728 
L 755 1728 
C 646 1728 531 1728 531 1600 
C 531 1472 646 1472 755 1472 
L 4218 1472 
z
" transform="scale(0.015625)"/>
        <path id="CMR17-32" d="M 2669 989 
L 2554 989 
C 2490 536 2438 459 2413 420 
C 2381 369 1920 369 1830 369 
L 602 369 
C 832 619 1280 1072 1824 1597 
C 2214 1967 2669 2402 2669 3035 
C 2669 3790 2067 4224 1395 4224 
C 691 4224 262 3604 262 3030 
C 262 2780 448 2748 525 2748 
C 589 2748 781 2787 781 3010 
C 781 3207 614 3264 525 3264 
C 486 3264 448 3258 422 3245 
C 544 3790 915 4058 1306 4058 
C 1862 4058 2227 3617 2227 3035 
C 2227 2479 1901 2000 1536 1584 
L 262 146 
L 262 0 
L 2515 0 
L 2669 989 
z
" transform="scale(0.015625)"/>
       </defs>
       <use xlink:href="#CMSY10-0" transform="scale(0.996264)"/>
       <use xlink:href="#CMR17-32" transform="translate(77.487468 0) scale(0.996264)"/>
      </g>
     </g>
    </g>
    <g id="xtick_2">
     <g id="line2d_2">
      <g>
       <use xlink:href="#m4cb6e8aeff" x="108.644623" y="112.551498" style="stroke: #000000; stroke-width: 0.8"/>
      </g>
     </g>
     <g id="text_2">
      <!-- $\mathdefault{−1}$ -->
      <g transform="translate(101.643085 129.261845) scale(0.11 -0.11)">
       <defs>
        <path id="CMR17-31" d="M 1702 4058 
C 1702 4192 1696 4192 1606 4192 
C 1357 3916 979 3827 621 3827 
C 602 3827 570 3827 563 3808 
C 557 3795 557 3782 557 3648 
C 755 3648 1088 3686 1344 3839 
L 1344 461 
C 1344 236 1331 160 781 160 
L 589 160 
L 589 0 
C 896 0 1216 0 1523 0 
C 1830 0 2150 0 2458 0 
L 2458 160 
L 2266 160 
C 1715 160 1702 230 1702 458 
L 1702 4058 
z
" transform="scale(0.015625)"/>
       </defs>
       <use xlink:href="#CMSY10-0" transform="scale(0.996264)"/>
       <use xlink:href="#CMR17-31" transform="translate(77.487468 0) scale(0.996264)"/>
      </g>
     </g>
    </g>
    <g id="xtick_3">
     <g id="line2d_3">
      <g>
       <use xlink:href="#m4cb6e8aeff" x="152.997269" y="112.551498" style="stroke: #000000; stroke-width: 0.8"/>
      </g>
     </g>
     <g id="text_3">
      <!-- $\mathdefault{0}$ -->
      <g transform="translate(150.257535 129.261845) scale(0.11 -0.11)">
       <defs>
        <path id="CMR17-30" d="M 2688 2025 
C 2688 2416 2682 3080 2413 3591 
C 2176 4039 1798 4198 1466 4198 
C 1158 4198 768 4058 525 3597 
C 269 3118 243 2524 243 2025 
C 243 1661 250 1106 448 619 
C 723 -39 1216 -128 1466 -128 
C 1760 -128 2208 -7 2470 600 
C 2662 1042 2688 1559 2688 2025 
z
M 1466 -26 
C 1056 -26 813 325 723 812 
C 653 1188 653 1738 653 2096 
C 653 2588 653 2997 736 3387 
C 858 3929 1216 4096 1466 4096 
C 1728 4096 2067 3923 2189 3400 
C 2272 3036 2278 2607 2278 2096 
C 2278 1680 2278 1169 2202 792 
C 2067 95 1690 -26 1466 -26 
z
" transform="scale(0.015625)"/>
       </defs>
       <use xlink:href="#CMR17-30" transform="scale(0.996264)"/>
      </g>
     </g>
    </g>
    <g id="xtick_4">
     <g id="line2d_4">
      <g>
       <use xlink:href="#m4cb6e8aeff" x="197.349915" y="112.551498" style="stroke: #000000; stroke-width: 0.8"/>
      </g>
     </g>
     <g id="text_4">
      <!-- $\mathdefault{1}$ -->
      <g transform="translate(194.610181 129.261845) scale(0.11 -0.11)">
       <use xlink:href="#CMR17-31" transform="scale(0.996264)"/>
      </g>
     </g>
    </g>
    <g id="xtick_5">
     <g id="line2d_5">
      <g>
       <use xlink:href="#m4cb6e8aeff" x="241.70256" y="112.551498" style="stroke: #000000; stroke-width: 0.8"/>
      </g>
     </g>
     <g id="text_5">
      <!-- $\mathdefault{2}$ -->
      <g transform="translate(238.962827 129.261845) scale(0.11 -0.11)">
       <use xlink:href="#CMR17-32" transform="scale(0.996264)"/>
      </g>
     </g>
    </g>
    <g id="text_6">
     <!-- Update Size, $\norm{\bm{\theta}}_{\infty}$ -->
     <g transform="translate(107.628104 143.611918) scale(0.11 -0.11)">
      <defs>
       <path id="CMR17-55" d="M 3456 1433 
C 3456 579 2899 38 2291 38 
C 1965 38 1670 210 1491 477 
C 1286 783 1261 1178 1261 1401 
L 1261 3874 
C 1261 4160 1331 4160 1773 4160 
L 1773 4320 
C 1587 4320 1248 4320 1050 4320 
C 851 4320 512 4320 326 4320 
L 326 4160 
C 768 4160 838 4160 838 3874 
L 838 1433 
C 838 516 1536 -128 2278 -128 
C 3110 -128 3590 719 3590 1344 
L 3590 3766 
C 3590 4122 3917 4160 4102 4160 
L 4102 4326 
C 3955 4320 3686 4320 3526 4320 
C 3366 4320 3091 4320 2944 4326 
L 2944 4160 
C 3456 4160 3456 3861 3456 3702 
L 3456 1433 
z
" transform="scale(0.015625)"/>
       <path id="CMR17-70" d="M 1408 -1063 
C 998 -1063 973 -1037 973 -789 
L 973 402 
C 1158 134 1427 -38 1766 -38 
C 2406 -38 3053 523 3053 1388 
C 3053 2191 2496 2802 1837 2802 
C 1453 2802 1139 2592 960 2338 
L 960 2802 
L 198 2732 
L 198 2567 
C 576 2567 634 2528 634 2223 
L 634 -789 
C 634 -1031 608 -1063 198 -1063 
L 198 -1228 
C 352 -1216 634 -1216 800 -1216 
C 966 -1216 1254 -1216 1408 -1228 
L 1408 -1063 
z
M 973 2012 
C 973 2102 973 2235 1222 2471 
C 1254 2497 1472 2688 1792 2688 
C 2259 2688 2643 2108 2643 1382 
C 2643 656 2234 64 1728 64 
C 1498 64 1248 172 1056 472 
C 973 612 973 650 973 752 
L 973 2012 
z
" transform="scale(0.015625)"/>
       <path id="CMR17-64" d="M 1869 4326 
L 1869 4160 
C 2246 4160 2304 4122 2304 3820 
L 2304 2345 
C 2278 2377 2016 2790 1498 2790 
C 845 2790 211 2208 211 1364 
C 211 525 806 -64 1434 -64 
C 1978 -64 2259 337 2291 380 
L 2291 -63 
L 3066 -63 
L 3066 128 
C 2688 128 2630 166 2630 473 
L 2630 4396 
L 1869 4326 
z
M 2291 755 
C 2291 563 2176 390 2029 262 
C 1811 70 1594 38 1472 38 
C 1286 38 621 134 621 1356 
C 621 2612 1363 2688 1530 2688 
C 1824 2688 2061 2522 2208 2291 
C 2291 2157 2291 2138 2291 2023 
L 2291 755 
z
" transform="scale(0.015625)"/>
       <path id="CMR17-61" d="M 2304 1653 
C 2304 2072 2304 2294 2035 2543 
C 1798 2752 1523 2816 1306 2816 
C 800 2816 435 2407 435 1971 
C 435 1728 627 1728 666 1728 
C 749 1728 896 1778 896 1954 
C 896 2112 774 2181 666 2181 
C 640 2181 608 2174 589 2168 
C 723 2592 1069 2714 1293 2714 
C 1613 2714 1965 2429 1965 1885 
L 1965 1600 
C 1587 1600 1133 1549 774 1357 
C 371 1133 256 813 256 570 
C 256 77 832 -64 1171 -64 
C 1523 -64 1850 139 1990 511 
C 2003 233 2182 -18 2464 -18 
C 2598 -18 2938 70 2938 567 
L 2938 920 
L 2822 920 
L 2822 562 
C 2822 178 2650 128 2566 128 
C 2304 128 2304 458 2304 738 
L 2304 1653 
z
M 1965 870 
C 1965 317 1568 38 1216 38 
C 896 38 646 275 646 570 
C 646 761 730 1100 1101 1305 
C 1408 1478 1760 1504 1965 1504 
L 1965 870 
z
" transform="scale(0.015625)"/>
       <path id="CMR17-74" d="M 966 2560 
L 1862 2560 
L 1862 2725 
L 966 2725 
L 966 3904 
L 851 3904 
C 838 3245 614 2668 70 2668 
L 70 2560 
L 627 2560 
L 627 771 
C 627 650 627 -64 1370 -64 
C 1747 -64 1965 306 1965 777 
L 1965 1140 
L 1850 1140 
L 1850 783 
C 1850 344 1677 51 1408 51 
C 1222 51 966 178 966 758 
L 966 2560 
z
" transform="scale(0.015625)"/>
       <path id="CMR17-65" d="M 2438 1472 
C 2464 1498 2464 1511 2464 1576 
C 2464 2238 2118 2816 1389 2816 
C 710 2816 173 2169 173 1383 
C 173 551 781 -64 1459 -64 
C 2176 -64 2458 607 2458 740 
C 2458 784 2419 784 2406 784 
C 2362 784 2355 771 2330 696 
C 2189 265 1837 51 1504 51 
C 1229 51 954 203 781 480 
C 582 803 582 1176 582 1472 
L 2438 1472 
z
M 589 1568 
C 634 2505 1126 2714 1382 2714 
C 1818 2714 2112 2297 2118 1568 
L 589 1568 
z
" transform="scale(0.015625)"/>
       <path id="CMR17-53" d="M 2803 4290 
C 2803 4404 2797 4411 2758 4411 
C 2720 4411 2707 4385 2682 4328 
L 2490 3907 
C 2246 4257 1875 4416 1472 4416 
C 819 4416 294 3901 294 3253 
C 294 3056 339 2776 557 2510 
C 794 2218 1018 2167 1530 2033 
C 1722 1982 2042 1899 2106 1874 
C 2470 1722 2662 1341 2662 985 
C 2662 527 2336 38 1779 38 
C 1094 38 454 419 410 1311 
C 403 1413 397 1419 352 1419 
C 301 1419 294 1413 294 1285 
L 294 -1 
C 294 -115 301 -122 339 -122 
C 384 -122 397 -90 486 108 
C 493 127 493 140 614 381 
C 934 -39 1472 -128 1779 -128 
C 2477 -128 2970 451 2970 1124 
C 2970 1454 2848 1708 2778 1823 
C 2509 2230 2221 2306 1914 2382 
C 1869 2402 1856 2402 1498 2490 
C 1152 2579 1005 2624 845 2796 
C 666 2992 602 3196 602 3399 
C 602 3812 934 4263 1478 4263 
C 2157 4263 2579 3786 2675 2993 
C 2694 2878 2701 2872 2746 2872 
C 2803 2872 2803 2891 2803 2999 
L 2803 4290 
z
" transform="scale(0.015625)"/>
       <path id="CMR17-69" d="M 992 3909 
C 992 4049 877 4170 730 4170 
C 589 4170 467 4056 467 3909 
C 467 3769 582 3648 730 3648 
C 870 3648 992 3763 992 3909 
z
M 243 2706 
L 243 2541 
C 602 2541 653 2502 653 2197 
L 653 427 
C 653 184 627 153 218 153 
L 218 -13 
C 371 0 646 0 806 0 
C 960 0 1222 0 1370 -13 
L 1370 153 
C 992 153 979 191 979 420 
L 979 2776 
L 243 2706 
z
" transform="scale(0.015625)"/>
       <path id="CMR17-7a" d="M 2310 2605 
C 2362 2670 2362 2682 2362 2695 
C 2362 2752 2336 2752 2221 2752 
L 275 2752 
L 211 1760 
L 326 1760 
C 371 2381 442 2650 1178 2650 
L 1958 2650 
L 128 96 
C 128 0 134 0 269 0 
L 2291 0 
L 2381 1152 
L 2266 1152 
C 2214 442 2131 115 1350 115 
L 531 115 
L 2310 2605 
z
" transform="scale(0.015625)"/>
       <path id="CMR17-2c" d="M 1011 102 
C 1024 45 1024 25 1024 -77 
C 1024 -463 896 -817 627 -1139 
C 595 -1170 595 -1183 595 -1197 
C 595 -1222 621 -1248 646 -1248 
C 685 -1248 1126 -799 1126 -87 
C 1126 124 1101 522 800 522 
C 659 522 538 427 538 261 
C 538 96 659 0 800 0 
C 877 0 960 32 1011 102 
z
" transform="scale(0.015625)"/>
       <path id="CMSY10-6b" d="M 1103 4582 
C 1103 4685 1103 4800 975 4800 
C 847 4800 847 4659 847 4563 
L 847 -1363 
C 847 -1466 847 -1600 975 -1600 
C 1103 -1600 1103 -1485 1103 -1382 
L 1103 4582 
z
M 2351 4563 
C 2351 4666 2351 4800 2223 4800 
C 2095 4800 2095 4685 2095 4582 
L 2095 -1382 
C 2095 -1485 2095 -1600 2223 -1600 
C 2351 -1600 2351 -1459 2351 -1363 
L 2351 4563 
z
" transform="scale(0.015625)"/>
       <path id="CMMIB10-12" d="M 3501 3123 
C 3501 4250 2835 4480 2445 4480 
C 1939 4480 1299 4148 819 3277 
C 493 2675 294 1805 294 1287 
C 294 359 781 -64 1357 -64 
C 1786 -64 2349 186 2790 839 
C 3328 1626 3501 2644 3501 3123 
z
M 1267 2353 
C 1357 2727 1523 3312 1715 3647 
C 1862 3910 2125 4251 2432 4251 
C 2701 4251 2816 3969 2816 3589 
C 2816 3183 2675 2623 2605 2353 
L 1267 2353 
z
M 2528 2048 
C 2131 338 1594 165 1370 165 
C 1280 165 1146 190 1056 389 
C 979 560 979 809 979 816 
C 979 1180 1120 1773 1190 2048 
L 2528 2048 
z
" transform="scale(0.015625)"/>
       <path id="CMSY10-31" d="M 3251 1730 
C 2906 2166 2829 2262 2630 2422 
C 2272 2710 1914 2825 1587 2825 
C 838 2825 352 2122 352 1374 
C 352 639 826 -70 1562 -70 
C 2298 -70 2829 511 3142 1022 
C 3488 588 3565 492 3763 332 
C 4122 45 4480 -70 4806 -70 
C 5555 -70 6042 633 6042 1380 
C 6042 2115 5568 2825 4832 2825 
C 4096 2825 3565 2242 3251 1730 
z
M 3418 1514 
C 3680 1975 4154 2620 4877 2620 
C 5555 2620 5901 1955 5901 1380 
C 5901 753 5472 236 4909 236 
C 4538 236 4250 505 4115 638 
C 3955 811 3808 1009 3418 1514 
z
M 2976 1240 
C 2714 780 2240 134 1517 134 
C 838 134 493 799 493 1374 
C 493 2000 922 2518 1485 2518 
C 1856 2518 2144 2249 2278 2115 
C 2438 1943 2586 1744 2976 1240 
z
" transform="scale(0.015625)"/>
      </defs>
      <use xlink:href="#CMR17-55" transform="scale(0.996264)"/>
      <use xlink:href="#CMR17-70" transform="translate(69.07243 0) scale(0.996264)"/>
      <use xlink:href="#CMR17-64" transform="translate(122.570238 0) scale(0.996264)"/>
      <use xlink:href="#CMR17-61" transform="translate(173.465608 0) scale(0.996264)"/>
      <use xlink:href="#CMR17-74" transform="translate(219.156085 0) scale(0.996264)"/>
      <use xlink:href="#CMR17-65" transform="translate(254.436853 0) scale(0.996264)"/>
      <use xlink:href="#CMR17-53" transform="translate(324.99848 0) scale(0.996264)"/>
      <use xlink:href="#CMR17-69" transform="translate(375.89385 0) scale(0.996264)"/>
      <use xlink:href="#CMR17-7a" transform="translate(400.764908 0) scale(0.996264)"/>
      <use xlink:href="#CMR17-65" transform="translate(441.250569 0) scale(0.996264)"/>
      <use xlink:href="#CMR17-2c" transform="translate(481.736229 0) scale(0.996264)"/>
      <use xlink:href="#CMSY10-6b" transform="translate(536.683254 0) scale(0.996264)"/>
      <use xlink:href="#CMMIB10-12" transform="translate(586.496637 0) scale(0.996264)"/>
      <use xlink:href="#CMSY10-6b" transform="translate(645.649524 0) scale(0.996264)"/>
      <use xlink:href="#CMSY10-31" transform="translate(695.462906 -28.393509) scale(0.697382)"/>
     </g>
    </g>
   </g>
   <g id="matplotlib.axis_2">
    <g id="ytick_1">
     <g id="line2d_6">
      <defs>
       <path id="m76bb531398" d="M 0 0 
L -3.5 0 
" style="stroke: #000000; stroke-width: 0.8"/>
      </defs>
      <g>
       <use xlink:href="#m76bb531398" x="55.421448" y="107.975521" style="stroke: #000000; stroke-width: 0.8"/>
      </g>
     </g>
     <g id="text_7">
      <!-- $\mathdefault{0.0}$ -->
      <g transform="translate(32.318371 111.780694) scale(0.11 -0.11)">
       <defs>
        <path id="CMMI12-3a" d="M 1178 307 
C 1178 492 1024 619 870 619 
C 685 619 557 466 557 313 
C 557 128 710 0 864 0 
C 1050 0 1178 153 1178 307 
z
" transform="scale(0.015625)"/>
       </defs>
       <use xlink:href="#CMR17-30" transform="scale(0.996264)"/>
       <use xlink:href="#CMMI12-3a" transform="translate(45.690477 0) scale(0.996264)"/>
       <use xlink:href="#CMR17-30" transform="translate(72.787654 0) scale(0.996264)"/>
      </g>
     </g>
    </g>
    <g id="ytick_2">
     <g id="line2d_7">
      <g>
       <use xlink:href="#m76bb531398" x="55.421448" y="62.212505" style="stroke: #000000; stroke-width: 0.8"/>
      </g>
     </g>
     <g id="text_8">
      <!-- $\mathdefault{0.5}$ -->
      <g transform="translate(32.318371 66.017678) scale(0.11 -0.11)">
       <defs>
        <path id="CMR17-35" d="M 730 3692 
C 794 3666 1056 3584 1325 3584 
C 1920 3584 2246 3911 2432 4100 
C 2432 4157 2432 4192 2394 4192 
C 2387 4192 2374 4192 2323 4163 
C 2099 4058 1837 3973 1517 3973 
C 1325 3973 1037 3999 723 4139 
C 653 4171 640 4171 634 4171 
C 602 4171 595 4164 595 4037 
L 595 2203 
C 595 2089 595 2057 659 2057 
C 691 2057 704 2070 736 2114 
C 941 2401 1222 2522 1542 2522 
C 1766 2522 2246 2382 2246 1289 
C 2246 1085 2246 715 2054 421 
C 1894 159 1645 25 1370 25 
C 947 25 518 320 403 814 
C 429 807 480 795 506 795 
C 589 795 749 840 749 1038 
C 749 1210 627 1280 506 1280 
C 358 1280 262 1190 262 1011 
C 262 454 704 -128 1382 -128 
C 2042 -128 2669 440 2669 1264 
C 2669 2030 2170 2624 1549 2624 
C 1222 2624 947 2503 730 2274 
L 730 3692 
z
" transform="scale(0.015625)"/>
       </defs>
       <use xlink:href="#CMR17-30" transform="scale(0.996264)"/>
       <use xlink:href="#CMMI12-3a" transform="translate(45.690477 0) scale(0.996264)"/>
       <use xlink:href="#CMR17-35" transform="translate(72.787654 0) scale(0.996264)"/>
      </g>
     </g>
    </g>
    <g id="ytick_3">
     <g id="line2d_8">
      <g>
       <use xlink:href="#m76bb531398" x="55.421448" y="16.449489" style="stroke: #000000; stroke-width: 0.8"/>
      </g>
     </g>
     <g id="text_9">
      <!-- $\mathdefault{1.0}$ -->
      <g transform="translate(32.318371 20.254663) scale(0.11 -0.11)">
       <use xlink:href="#CMR17-31" transform="scale(0.996264)"/>
       <use xlink:href="#CMMI12-3a" transform="translate(45.690477 0) scale(0.996264)"/>
       <use xlink:href="#CMR17-30" transform="translate(72.787654 0) scale(0.996264)"/>
      </g>
     </g>
    </g>
    <g id="text_10">
     <!-- Infidelity, $\mathcal{L}(\bm{\theta})$ -->
     <g transform="translate(25.578645 97.863412) rotate(-90) scale(0.11 -0.11)">
      <defs>
       <path id="CMR17-49" d="M 1261 3905 
C 1261 4192 1338 4192 1798 4192 
L 1798 4352 
C 1594 4352 1267 4352 1050 4352 
C 832 4352 506 4352 301 4352 
L 301 4192 
C 762 4192 838 4192 838 3905 
L 838 447 
C 838 160 762 160 301 160 
L 301 0 
C 506 0 832 0 1050 0 
C 1267 0 1594 0 1798 0 
L 1798 160 
C 1338 160 1261 160 1261 447 
L 1261 3905 
z
" transform="scale(0.015625)"/>
       <path id="CMR17-6e" d="M 2656 1933 
C 2656 2259 2592 2790 1837 2790 
C 1331 2790 1069 2400 973 2144 
L 966 2144 
L 966 2790 
L 211 2720 
L 211 2554 
C 589 2554 646 2515 646 2208 
L 646 428 
C 646 184 621 153 211 153 
L 211 -13 
C 365 0 646 0 813 0 
C 979 0 1267 0 1421 -13 
L 1421 153 
C 1011 153 986 178 986 428 
L 986 1658 
C 986 2247 1344 2688 1792 2688 
C 2266 2688 2317 2266 2317 1958 
L 2317 428 
C 2317 184 2291 153 1882 153 
L 1882 -13 
C 2035 0 2317 0 2483 0 
C 2650 0 2938 0 3091 -13 
L 3091 153 
C 2682 153 2656 178 2656 428 
L 2656 1933 
z
" transform="scale(0.015625)"/>
       <path id="CMR17-c" d="M 2554 2764 
C 2400 2764 1926 2764 1805 2739 
C 1766 2725 1754 2725 1677 2725 
L 947 2725 
L 947 3469 
C 947 4073 1434 4352 1818 4352 
C 1939 4352 2214 4320 2355 4101 
C 2291 4101 2086 4101 2086 3878 
C 2086 3725 2189 3648 2317 3648 
C 2432 3648 2547 3712 2547 3885 
C 2547 4205 2240 4454 1843 4454 
C 1338 4454 634 4168 634 3469 
L 634 2725 
L 122 2725 
L 122 2560 
L 634 2560 
L 634 427 
C 634 184 608 153 198 153 
L 198 -13 
C 352 0 634 0 794 0 
C 960 0 1242 0 1395 -13 
L 1395 153 
C 986 153 960 178 960 427 
L 960 2560 
L 1901 2560 
C 2176 2560 2227 2502 2227 2222 
L 2227 427 
C 2227 184 2202 153 1792 153 
L 1792 -13 
C 1946 0 2227 0 2387 0 
C 2554 0 2835 0 2989 -13 
L 2989 153 
C 2579 153 2554 178 2554 427 
L 2554 2764 
z
" transform="scale(0.015625)"/>
       <path id="CMR17-6c" d="M 979 4396 
L 218 4326 
L 218 4160 
C 595 4160 653 4122 653 3817 
L 653 426 
C 653 184 627 153 218 153 
L 218 -13 
C 371 0 653 0 813 0 
C 979 0 1261 0 1414 -13 
L 1414 153 
C 1005 153 979 178 979 426 
L 979 4396 
z
" transform="scale(0.015625)"/>
       <path id="CMR17-79" d="M 2496 2197 
C 2656 2586 2944 2586 3034 2586 
L 3034 2752 
C 2912 2752 2752 2752 2630 2752 
C 2496 2752 2285 2752 2157 2758 
L 2157 2592 
C 2400 2573 2406 2394 2406 2343 
C 2406 2280 2394 2248 2362 2171 
L 1664 449 
L 902 2306 
C 870 2382 870 2426 870 2433 
C 870 2573 1018 2586 1171 2586 
L 1171 2758 
C 1018 2752 742 2752 582 2752 
C 410 2752 205 2752 64 2758 
L 64 2586 
C 410 2586 448 2554 531 2350 
L 1485 15 
C 1197 -738 1030 -1178 627 -1178 
C 557 -1178 397 -1159 282 -1044 
C 429 -1031 493 -942 493 -833 
C 493 -725 416 -629 288 -629 
C 147 -629 77 -725 77 -840 
C 77 -1095 339 -1280 627 -1280 
C 998 -1280 1229 -922 1357 -604 
L 2496 2197 
z
" transform="scale(0.015625)"/>
       <path id="CMSY10-4c" d="M 1152 610 
C 1498 1151 1606 1562 1690 1903 
C 1914 2790 2157 3562 2554 4005 
C 2630 4090 2682 4147 2886 4147 
C 3328 4147 3341 3704 3341 3613 
C 3341 3498 3309 3407 3309 3375 
C 3309 3330 3347 3330 3354 3330 
C 3456 3330 3629 3401 3789 3517 
C 3904 3607 3962 3671 3962 3934 
C 3962 4281 3782 4544 3424 4544 
C 3219 4544 2656 4493 2029 3856 
C 1517 3329 1216 2172 1094 1690 
C 979 1248 928 1048 736 662 
C 691 586 525 303 435 219 
C 262 59 198 -57 198 -89 
C 198 -102 211 -128 256 -128 
C 282 -128 416 -102 582 5 
C 691 68 704 80 851 231 
C 1171 231 1395 173 1798 58 
C 2125 -32 2451 -128 2778 -128 
C 3296 -128 3821 264 4026 546 
C 4154 719 4192 880 4192 899 
C 4192 944 4154 944 4147 944 
C 4045 944 3891 874 3782 796 
C 3610 687 3597 649 3558 539 
C 3526 436 3488 385 3462 346 
C 3411 269 3405 269 3309 269 
C 3002 269 2682 366 2259 481 
C 2080 532 1728 636 1408 636 
C 1325 636 1235 629 1152 610 
z
" transform="scale(0.015625)"/>
       <path id="CMR17-28" d="M 1958 -1561 
C 1958 -1555 1958 -1542 1939 -1523 
C 1645 -1224 858 -407 858 1581 
C 858 3569 1632 4379 1946 4697 
C 1946 4704 1958 4717 1958 4736 
C 1958 4755 1939 4768 1914 4768 
C 1843 4768 1299 4296 986 3594 
C 666 2887 576 2199 576 1588 
C 576 1128 621 351 1005 -471 
C 1312 -1135 1837 -1600 1914 -1600 
C 1946 -1600 1958 -1587 1958 -1561 
z
" transform="scale(0.015625)"/>
       <path id="CMR17-29" d="M 1683 1581 
C 1683 2040 1638 2817 1254 3639 
C 947 4303 422 4768 346 4768 
C 326 4768 301 4761 301 4729 
C 301 4717 307 4710 314 4697 
C 621 4378 1402 3568 1402 1584 
C 1402 -407 627 -1217 314 -1537 
C 307 -1549 301 -1556 301 -1568 
C 301 -1600 326 -1600 346 -1600 
C 416 -1600 960 -1128 1274 -426 
C 1594 281 1683 969 1683 1581 
z
" transform="scale(0.015625)"/>
      </defs>
      <use xlink:href="#CMR17-49" transform="scale(0.996264)"/>
      <use xlink:href="#CMR17-6e" transform="translate(32.638409 0) scale(0.996264)"/>
      <use xlink:href="#CMR17-c" transform="translate(83.533779 0) scale(0.996264)"/>
      <use xlink:href="#CMR17-64" transform="translate(133.276002 0) scale(0.996264)"/>
      <use xlink:href="#CMR17-65" transform="translate(184.171372 0) scale(0.996264)"/>
      <use xlink:href="#CMR17-6c" transform="translate(224.657033 0) scale(0.996264)"/>
      <use xlink:href="#CMR17-69" transform="translate(249.528091 0) scale(0.996264)"/>
      <use xlink:href="#CMR17-74" transform="translate(274.39915 0) scale(0.996264)"/>
      <use xlink:href="#CMR17-79" transform="translate(307.077463 0) scale(0.996264)"/>
      <use xlink:href="#CMR17-2c" transform="translate(347.563124 0) scale(0.996264)"/>
      <use xlink:href="#CMSY10-4c" transform="translate(402.510149 0) scale(0.996264)"/>
      <use xlink:href="#CMR17-28" transform="translate(471.224957 0) scale(0.996264)"/>
      <use xlink:href="#CMMIB10-12" transform="translate(506.505724 0) scale(0.996264)"/>
      <use xlink:href="#CMR17-29" transform="translate(565.658611 0) scale(0.996264)"/>
     </g>
    </g>
   </g>
   <g id="line2d_9">
    <path d="M 64.291977 16.485589 
L 106.870517 16.765503 
L 109.354265 17.12253 
L 111.128371 17.567144 
L 112.902477 18.23838 
L 114.321761 18.986541 
L 115.741046 19.966123 
L 117.160331 21.219634 
L 118.579615 22.78981 
L 119.9989 24.717338 
L 121.418185 27.038076 
L 122.837469 29.779891 
L 124.256754 32.959313 
L 126.03086 37.550442 
L 127.804966 42.793013 
L 129.933893 49.827819 
L 132.772462 60.087021 
L 138.449601 80.841113 
L 140.578528 87.748957 
L 142.352634 92.865866 
L 144.126739 97.312712 
L 145.546024 100.351668 
L 146.965309 102.908956 
L 148.384593 104.968096 
L 149.449057 106.174852 
L 150.51352 107.08238 
L 151.577984 107.680255 
L 152.642447 107.956839 
L 153.35209 107.956688 
L 154.061732 107.804711 
L 155.126196 107.284806 
L 156.190659 106.406276 
L 157.255123 105.162932 
L 158.319586 103.55325 
L 159.38405 101.581531 
L 160.803334 98.409479 
L 162.222619 94.660383 
L 163.996725 89.269516 
L 166.125652 82.00782 
L 170.028685 67.645196 
L 173.222075 56.232394 
L 175.351002 49.326301 
L 177.479929 43.18378 
L 179.254035 38.698754 
L 181.028141 34.789028 
L 182.802247 31.425849 
L 184.576353 28.564548 
L 186.350458 26.153286 
L 188.124564 24.139371 
L 189.89867 22.472984 
L 191.672776 21.108746 
L 193.446882 20.005799 
L 195.575809 18.975322 
L 197.704736 18.209916 
L 200.188484 17.581834 
L 203.027053 17.122783 
L 206.575265 16.803399 
L 211.542761 16.606318 
L 221.477754 16.488821 
L 241.70256 16.455977 
L 241.70256 16.455977 
" clip-path="url(#pb0d3bfe530)" style="fill: none; stroke: #edb081; stroke-width: 1.5; stroke-linecap: square"/>
   </g>
   <g id="line2d_10">
    <path d="M 64.291977 16.483774 
L 107.225338 16.74922 
L 109.709086 17.093419 
L 111.838013 17.634875 
L 113.612119 18.339784 
L 115.031404 19.121245 
L 116.450688 20.139604 
L 117.869973 21.436633 
L 119.289258 23.053641 
L 120.708542 25.029115 
L 122.127827 27.395922 
L 123.547112 30.178235 
L 124.966396 33.388405 
L 126.740502 37.997684 
L 128.514608 43.228781 
L 130.643535 50.203468 
L 133.836926 61.600084 
L 138.804422 79.4033 
L 141.28817 87.360712 
L 143.062276 92.402038 
L 144.836382 96.82254 
L 146.255666 99.877469 
L 147.674951 102.481257 
L 149.094236 104.612203 
L 150.158699 105.885009 
L 151.223163 106.86498 
L 152.287626 107.537803 
L 153.35209 107.887995 
L 154.061732 107.934393 
L 154.771374 107.825826 
L 155.481017 107.558098 
L 156.54548 106.850247 
L 157.609944 105.767054 
L 158.674407 104.304414 
L 159.738871 102.464488 
L 161.158155 99.441635 
L 162.57744 95.809177 
L 164.351546 90.516965 
L 166.480473 83.306599 
L 169.673863 71.532408 
L 173.576896 57.296907 
L 176.060645 49.145163 
L 178.189572 42.986807 
L 179.963677 38.492253 
L 181.737783 34.574604 
L 183.511889 31.204684 
L 185.285995 28.338389 
L 187.060101 25.925031 
L 188.834207 23.91315 
L 190.608312 22.253806 
L 192.382418 20.901858 
L 194.156524 19.815961 
L 195.93063 18.958025 
L 198.059557 18.179777 
L 200.543305 17.547564 
L 203.381874 17.091918 
L 206.930086 16.781016 
L 211.897582 16.594235 
L 222.187396 16.483131 
L 241.70256 16.457191 
L 241.70256 16.457191 
" clip-path="url(#pb0d3bfe530)" style="fill: none; stroke: #eca077; stroke-opacity: 0.5; stroke-linecap: square"/>
   </g>
   <g id="line2d_11">
    <path d="M 64.291977 16.544238 
L 90.903564 16.819327 
L 103.677126 16.796574 
L 106.160875 17.048424 
L 108.289802 17.484423 
L 110.063907 18.068719 
L 111.838013 18.913537 
L 113.257298 19.816817 
L 114.676583 20.955763 
L 116.095867 22.360786 
L 117.515152 24.060601 
L 118.934437 26.080832 
L 120.353721 28.442348 
L 122.127827 31.895074 
L 123.901933 35.91106 
L 125.676039 40.472108 
L 127.804966 46.593708 
L 130.288714 54.439072 
L 139.159243 83.265737 
L 141.28817 89.110047 
L 143.062276 93.422258 
L 144.836382 97.19271 
L 146.610488 100.410503 
L 148.029772 102.585091 
L 149.449057 104.401666 
L 150.868342 105.852427 
L 152.287626 106.922306 
L 153.35209 107.461259 
L 154.416553 107.761008 
L 155.481017 107.80784 
L 156.54548 107.587441 
L 157.609944 107.08598 
L 158.674407 106.291295 
L 159.738871 105.194097 
L 160.803334 103.78909 
L 161.867798 102.07593 
L 163.287082 99.322437 
L 164.706367 96.06076 
L 166.480473 91.344936 
L 168.6094 84.929205 
L 171.447969 75.570056 
L 176.770287 57.903701 
L 179.254035 50.49504 
L 181.382962 44.819611 
L 183.511889 39.820378 
L 185.285995 36.168296 
L 187.060101 32.960657 
L 188.834207 30.165739 
L 190.608312 27.747829 
L 192.382418 25.671038 
L 194.156524 23.90136 
L 195.93063 22.407337 
L 197.704736 21.159841 
L 199.833663 19.949776 
L 201.96259 19.010116 
L 204.091517 18.297392 
L 206.575265 17.697496 
L 209.413834 17.243544 
L 212.962046 16.911488 
L 217.929542 16.689214 
L 227.509714 16.529164 
L 241.70256 16.461067 
L 241.70256 16.461067 
" clip-path="url(#pb0d3bfe530)" style="fill: none; stroke: #ea916e; stroke-opacity: 0.5; stroke-linecap: square"/>
   </g>
   <g id="line2d_12">
    <path d="M 64.291977 16.620455 
L 78.484823 17.036828 
L 88.774637 17.262533 
L 94.451776 17.150287 
L 101.193378 17.002836 
L 103.677126 17.173486 
L 105.806053 17.543215 
L 107.580159 18.070085 
L 109.354265 18.847282 
L 110.77355 19.681579 
L 112.192834 20.73065 
L 113.612119 22.017076 
L 115.031404 23.561685 
L 116.450688 25.382918 
L 118.224794 28.07135 
L 119.9989 31.236013 
L 121.773006 34.883741 
L 123.547112 39.003964 
L 125.676039 44.525976 
L 128.159787 51.63479 
L 131.707999 62.559446 
L 136.320674 76.705289 
L 138.804422 83.633141 
L 140.933349 88.94395 
L 142.707455 92.862532 
L 144.481561 96.301614 
L 146.255666 99.266529 
L 148.029772 101.774576 
L 149.803878 103.843939 
L 151.223163 105.189803 
L 152.642447 106.257034 
L 154.061732 107.033251 
L 155.126196 107.412011 
L 156.190659 107.603587 
L 157.255123 107.594486 
L 158.319586 107.370276 
L 159.38405 106.91653 
L 160.448513 106.219852 
L 161.512977 105.26892 
L 162.57744 104.055462 
L 163.996725 102.022267 
L 165.416009 99.517763 
L 166.835294 96.560777 
L 168.6094 92.283666 
L 170.738327 86.438915 
L 173.576896 77.826359 
L 180.318499 57.001208 
L 182.802247 50.20903 
L 184.931174 44.998451 
L 187.060101 40.384801 
L 189.189028 36.354936 
L 191.317955 32.869137 
L 193.446882 29.875187 
L 195.575809 27.318944 
L 197.704736 25.150552 
L 199.833663 23.326688 
L 201.96259 21.809994 
L 204.091517 20.567147 
L 206.220444 19.566786 
L 208.704192 18.66507 
L 211.18794 18.002703 
L 214.026509 17.477759 
L 217.574721 17.074005 
L 222.187396 16.806324 
L 229.993462 16.626733 
L 241.70256 16.500469 
L 241.70256 16.500469 
" clip-path="url(#pb0d3bfe530)" style="fill: none; stroke: #e88165; stroke-opacity: 0.5; stroke-linecap: square"/>
   </g>
   <g id="line2d_13">
    <path d="M 64.291977 16.669018 
L 73.162506 17.02713 
L 86.64571 17.637143 
L 91.258386 17.550788 
L 100.483736 17.262378 
L 102.612663 17.464851 
L 104.386769 17.815145 
L 106.160875 18.376367 
L 107.93498 19.190219 
L 109.709086 20.295665 
L 111.483192 21.727866 
L 113.257298 23.517395 
L 115.031404 25.68955 
L 116.80551 28.263487 
L 118.579615 31.250948 
L 120.353721 34.654453 
L 122.482648 39.274203 
L 124.611575 44.436687 
L 127.095323 51.040707 
L 130.643535 61.191429 
L 135.965853 76.465567 
L 138.449601 82.947359 
L 140.578528 87.938811 
L 142.707455 92.327702 
L 144.481561 95.506837 
L 146.255666 98.261658 
L 148.029772 100.617627 
L 149.803878 102.60556 
L 151.577984 104.251585 
L 153.35209 105.568018 
L 154.771374 106.379237 
L 156.190659 106.960061 
L 157.609944 107.286615 
L 158.674407 107.346016 
L 159.738871 107.22971 
L 160.803334 106.921836 
L 161.867798 106.406733 
L 162.932261 105.669904 
L 163.996725 104.698966 
L 165.061188 103.484542 
L 166.480473 101.477509 
L 167.899758 99.027282 
L 169.319042 96.148421 
L 171.093148 91.994866 
L 173.222075 86.322174 
L 176.060645 77.949953 
L 182.802247 57.607427 
L 185.285995 50.958719 
L 187.414922 45.866185 
L 189.543849 41.369169 
L 191.672776 37.452306 
L 193.801703 34.068387 
L 195.93063 31.154064 
L 198.059557 28.643301 
L 200.188484 26.476772 
L 202.317411 24.60667 
L 204.446338 22.99742 
L 206.930086 21.416015 
L 209.413834 20.125257 
L 211.897582 19.099333 
L 214.381331 18.310944 
L 217.2199 17.660604 
L 220.41329 17.186365 
L 223.961502 16.890874 
L 228.928998 16.719683 
L 240.283276 16.640493 
L 241.70256 16.631864 
L 241.70256 16.631864 
" clip-path="url(#pb0d3bfe530)" style="fill: none; stroke: #e5715e; stroke-opacity: 0.5; stroke-linecap: square"/>
   </g>
   <g id="line2d_14">
    <path d="M 64.291977 16.720575 
L 73.162506 17.105095 
L 83.807141 17.585134 
L 88.774637 17.562778 
L 98.354809 17.397798 
L 100.838557 17.64993 
L 102.967484 18.10122 
L 104.74159 18.692088 
L 106.515696 19.515848 
L 108.289802 20.604481 
L 110.063907 21.985816 
L 111.838013 23.682957 
L 113.612119 25.714003 
L 115.386225 28.091881 
L 117.160331 30.824074 
L 119.289258 34.571967 
L 121.418185 38.820618 
L 123.547112 43.540412 
L 126.03086 49.570948 
L 129.22425 57.946769 
L 137.030316 78.786858 
L 139.514064 84.650406 
L 141.642991 89.125633 
L 143.771918 93.031633 
L 145.546024 95.844665 
L 147.32013 98.274109 
L 149.094236 100.352531 
L 150.868342 102.118787 
L 152.642447 103.608508 
L 154.416553 104.844735 
L 156.190659 105.830213 
L 157.964765 106.542714 
L 159.38405 106.884794 
L 160.803334 106.987035 
L 161.867798 106.881492 
L 162.932261 106.598844 
L 163.996725 106.120098 
L 165.061188 105.427175 
L 166.125652 104.503934 
L 167.190115 103.337152 
L 168.6094 101.386987 
L 170.028685 98.978264 
L 171.447969 96.118205 
L 173.222075 91.948021 
L 174.996181 87.199154 
L 177.479929 79.818517 
L 185.995637 53.646989 
L 188.124564 48.12859 
L 189.89867 44.052131 
L 191.672776 40.462588 
L 193.446882 37.339363 
L 195.220988 34.63911 
L 196.995093 32.304486 
L 199.12402 29.897535 
L 201.252947 27.824684 
L 203.736696 25.718198 
L 206.575265 23.617607 
L 209.413834 21.790756 
L 212.252404 20.23554 
L 214.736152 19.113439 
L 217.2199 18.224316 
L 219.703648 17.563656 
L 222.542217 17.061019 
L 225.735608 16.754859 
L 229.638641 16.631121 
L 236.380243 16.694636 
L 241.70256 16.773835 
L 241.70256 16.773835 
" clip-path="url(#pb0d3bfe530)" style="fill: none; stroke: #e0615c; stroke-opacity: 0.5; stroke-linecap: square"/>
   </g>
   <g id="line2d_15">
    <path d="M 64.291977 16.818679 
L 96.580703 17.606626 
L 99.419272 18.004705 
L 101.548199 18.505043 
L 103.677126 19.233632 
L 105.451232 20.05105 
L 107.225338 21.08861 
L 108.999444 22.370722 
L 110.77355 23.9183 
L 112.547656 25.748227 
L 114.321761 27.873074 
L 116.095867 30.300994 
L 118.224794 33.619335 
L 120.353721 37.376173 
L 122.482648 41.557145 
L 124.966396 46.932096 
L 127.804966 53.634249 
L 131.707999 63.493508 
L 137.385137 77.809527 
L 139.868885 83.491504 
L 141.997812 87.868913 
L 144.126739 91.711626 
L 145.900845 94.484189 
L 147.674951 96.875444 
L 149.449057 98.915779 
L 151.223163 100.649784 
L 153.35209 102.39602 
L 155.481017 103.845845 
L 157.609944 105.034715 
L 159.38405 105.811464 
L 161.158155 106.342682 
L 162.57744 106.537404 
L 163.996725 106.470539 
L 165.061188 106.213078 
L 166.125652 105.749209 
L 167.190115 105.053869 
L 168.254579 104.104143 
L 169.319042 102.88058 
L 170.383506 101.368433 
L 171.80279 98.888793 
L 173.222075 95.878425 
L 174.64136 92.358061 
L 176.415466 87.310532 
L 178.544393 80.490487 
L 182.092604 68.129809 
L 185.640816 56.018494 
L 187.769743 49.517039 
L 189.543849 44.745161 
L 191.317955 40.630539 
L 192.737239 37.818748 
L 194.156524 35.413757 
L 195.575809 33.379157 
L 196.995093 31.666111 
L 198.769199 29.890958 
L 200.543305 28.416269 
L 203.027053 26.658375 
L 208.349371 23.28125 
L 213.316867 20.291768 
L 216.155436 18.842749 
L 218.639185 17.84593 
L 220.768112 17.223166 
L 222.897039 16.809888 
L 225.380787 16.55582 
L 228.574177 16.487104 
L 234.251316 16.66558 
L 241.70256 16.881914 
L 241.70256 16.881914 
" clip-path="url(#pb0d3bfe530)" style="fill: none; stroke: #d9535d; stroke-opacity: 0.5; stroke-linecap: square"/>
   </g>
   <g id="line2d_16">
    <path d="M 64.291977 17.09221 
L 73.162506 17.17099 
L 80.258929 17.460554 
L 88.419816 18.020098 
L 94.096955 18.592836 
L 97.999988 19.194199 
L 100.838557 19.829757 
L 103.322305 20.590808 
L 105.451232 21.444691 
L 107.580159 22.529826 
L 109.709086 23.890102 
L 111.483192 25.264384 
L 113.257298 26.881238 
L 115.031404 28.759617 
L 117.160331 31.379618 
L 119.289258 34.41454 
L 121.418185 37.870961 
L 123.547112 41.744135 
L 126.03086 46.765509 
L 128.869429 53.098141 
L 132.06282 60.809071 
L 140.223707 80.909557 
L 142.707455 86.247402 
L 144.836382 90.24359 
L 146.610488 93.10904 
L 148.384593 95.54259 
L 150.158699 97.568778 
L 151.932805 99.240636 
L 153.706911 100.631043 
L 155.835838 102.039239 
L 158.674407 103.653165 
L 161.512977 105.026633 
L 163.287082 105.671184 
L 164.706367 105.972751 
L 165.770831 106.01929 
L 166.835294 105.867216 
L 167.899758 105.474413 
L 168.964221 104.799256 
L 170.028685 103.802919 
L 171.093148 102.451703 
L 172.157612 100.719266 
L 173.222075 98.588606 
L 174.64136 95.11958 
L 176.060645 90.952838 
L 177.83475 84.858083 
L 179.963677 76.521286 
L 187.414922 46.07657 
L 189.189028 40.281893 
L 190.608312 36.364339 
L 192.027597 33.121014 
L 193.446882 30.540877 
L 194.511345 29.01297 
L 195.575809 27.79912 
L 196.640272 26.859386 
L 198.059557 25.954148 
L 199.478842 25.341569 
L 201.607769 24.728036 
L 205.15598 23.769396 
L 207.284907 22.935132 
L 209.413834 21.859462 
L 217.2199 17.614341 
L 218.994006 17.025483 
L 220.768112 16.657385 
L 222.542217 16.494248 
L 224.671144 16.511955 
L 228.219356 16.810457 
L 232.47721 17.121909 
L 236.025422 17.127007 
L 241.70256 16.890669 
L 241.70256 16.890669 
" clip-path="url(#pb0d3bfe530)" style="fill: none; stroke: #cf4862; stroke-width: 1.5; stroke-linecap: square"/>
   </g>
   <g id="line2d_17">
    <path d="M 64.291977 17.729811 
L 66.775725 18.061167 
L 69.614294 18.681947 
L 79.904108 21.199336 
L 85.936068 22.550116 
L 90.193922 23.488355 
L 92.322849 23.733818 
L 94.096955 23.737264 
L 95.871061 23.540192 
L 97.999988 23.083821 
L 102.257842 22.066326 
L 104.031948 21.929586 
L 105.451232 22.057621 
L 106.870517 22.431807 
L 108.289802 23.05688 
L 109.709086 23.909706 
L 111.838013 25.504355 
L 116.80551 29.422864 
L 118.579615 30.485456 
L 120.353721 31.28066 
L 122.482648 31.948312 
L 126.385681 33.081681 
L 127.804966 33.77489 
L 128.869429 34.495899 
L 129.933893 35.436435 
L 130.998356 36.635314 
L 132.06282 38.126491 
L 133.127283 39.937655 
L 134.546568 42.883555 
L 135.965853 46.454133 
L 137.385137 50.635588 
L 139.159243 56.634388 
L 141.28817 64.681887 
L 145.900845 82.522265 
L 147.674951 88.302071 
L 149.094236 92.078918 
L 150.158699 94.333279 
L 151.223163 96.065606 
L 152.287626 97.282754 
L 152.997269 97.824699 
L 153.706911 98.171036 
L 154.416553 98.344768 
L 155.481017 98.343041 
L 156.900301 98.022057 
L 159.38405 97.371208 
L 160.448513 97.341237 
L 161.512977 97.578357 
L 162.57744 98.121877 
L 163.641904 98.971274 
L 165.061188 100.498507 
L 168.254579 104.311132 
L 169.319042 105.136894 
L 170.028685 105.407734 
L 170.738327 105.393537 
L 171.447969 105.046091 
L 172.157612 104.323028 
L 172.867254 103.189476 
L 173.576896 101.619506 
L 174.286539 99.597308 
L 175.351002 95.70866 
L 176.415466 90.82668 
L 177.83475 82.936518 
L 179.608856 71.388581 
L 184.576353 37.680478 
L 185.995637 30.05731 
L 187.060101 25.405586 
L 188.124564 21.759068 
L 188.834207 19.899703 
L 189.543849 18.491014 
L 190.253491 17.515802 
L 190.963134 16.947622 
L 191.672776 16.751957 
L 192.382418 16.887582 
L 193.092061 17.308076 
L 193.801703 17.963424 
L 194.866166 19.272947 
L 196.995093 22.433958 
L 198.769199 24.893886 
L 199.833663 26.049935 
L 200.898126 26.87629 
L 201.96259 27.337946 
L 202.672232 27.439919 
L 203.381874 27.383062 
L 204.446338 27.023523 
L 205.510801 26.380686 
L 206.930086 25.193028 
L 209.413834 22.670183 
L 211.542761 20.578465 
L 212.962046 19.418598 
L 214.381331 18.518866 
L 215.800615 17.899883 
L 217.2199 17.552452 
L 218.639185 17.446421 
L 220.41329 17.588895 
L 222.542217 18.045684 
L 225.380787 18.916419 
L 231.767568 20.949057 
L 234.960958 21.691715 
L 238.154349 22.181824 
L 241.70256 22.499018 
L 241.70256 22.499018 
" clip-path="url(#pb0d3bfe530)" style="fill: none; stroke: #c14168; stroke-width: 1.5; stroke-linecap: square"/>
   </g>
   <g id="line2d_18">
    <path d="M 64.291977 17.250643 
L 67.130546 17.562827 
L 70.678758 18.205319 
L 78.130002 19.65389 
L 84.161962 20.453448 
L 93.742134 21.650966 
L 96.225882 21.623779 
L 99.419272 21.320923 
L 102.612663 21.055907 
L 104.386769 21.122943 
L 105.806053 21.360232 
L 107.225338 21.78863 
L 108.999444 22.597677 
L 110.77355 23.671188 
L 113.612119 25.707311 
L 116.450688 27.700074 
L 118.579615 28.906135 
L 120.353721 29.656702 
L 122.482648 30.298586 
L 126.385681 31.376498 
L 127.804966 32.02433 
L 129.22425 32.966808 
L 130.288714 33.925725 
L 131.353177 35.142419 
L 132.417641 36.649323 
L 133.482104 38.472629 
L 134.901389 41.426624 
L 136.320674 44.993066 
L 137.739958 49.155301 
L 139.514064 55.10571 
L 141.997812 64.43534 
L 145.900845 79.339196 
L 147.674951 85.185321 
L 149.094236 89.072589 
L 150.158699 91.438975 
L 151.223163 93.30352 
L 152.287626 94.667703 
L 153.35209 95.561916 
L 154.416553 96.04468 
L 155.481017 96.199484 
L 156.900301 96.075568 
L 159.38405 95.719595 
L 160.448513 95.794859 
L 161.512977 96.126429 
L 162.57744 96.756359 
L 163.641904 97.687512 
L 165.061188 99.322731 
L 168.6094 103.766219 
L 169.319042 104.342459 
L 170.028685 104.689791 
L 170.738327 104.755704 
L 171.447969 104.491567 
L 172.157612 103.854457 
L 172.867254 102.808843 
L 173.576896 101.328055 
L 174.286539 99.395486 
L 175.351002 95.640286 
L 176.415466 90.888001 
L 177.83475 83.159928 
L 179.608856 71.787558 
L 184.576353 38.298993 
L 185.995637 30.634711 
L 187.060101 25.915392 
L 188.124564 22.168776 
L 189.189028 19.417476 
L 189.89867 18.123375 
L 190.608312 17.238297 
L 191.317955 16.732972 
L 192.027597 16.571054 
L 192.737239 16.710544 
L 193.446882 17.105317 
L 194.511345 18.069324 
L 195.93063 19.789543 
L 198.769199 23.377692 
L 199.833663 24.410961 
L 200.898126 25.155307 
L 201.96259 25.577799 
L 203.027053 25.674011 
L 204.091517 25.464103 
L 205.15598 24.987669 
L 206.575265 24.030999 
L 208.704192 22.204051 
L 211.542761 19.757467 
L 213.316867 18.547818 
L 214.736152 17.841539 
L 216.155436 17.379292 
L 217.574721 17.145589 
L 219.348827 17.125721 
L 221.122933 17.334829 
L 223.606681 17.863685 
L 232.832031 20.07032 
L 236.025422 20.51779 
L 239.573633 20.774384 
L 241.70256 20.835735 
L 241.70256 20.835735 
" clip-path="url(#pb0d3bfe530)" style="fill: none; stroke: #b23c6c; stroke-opacity: 0.5; stroke-linecap: square"/>
   </g>
   <g id="line2d_19">
    <path d="M 64.291977 16.859581 
L 67.840188 17.152995 
L 71.743221 17.713498 
L 79.549287 18.912519 
L 84.516783 19.336121 
L 97.645167 20.186241 
L 103.322305 20.23161 
L 105.451232 20.534585 
L 107.225338 21.025585 
L 108.999444 21.757433 
L 111.128371 22.921202 
L 114.676583 25.224246 
L 117.160331 26.740036 
L 119.289258 27.774246 
L 121.418185 28.519174 
L 124.611575 29.310882 
L 126.740502 29.948922 
L 128.159787 30.600828 
L 129.579072 31.548018 
L 130.643535 32.508964 
L 131.707999 33.724959 
L 132.772462 35.227178 
L 133.836926 37.040602 
L 135.25621 39.971379 
L 136.675495 43.501005 
L 138.09478 47.611146 
L 139.868885 53.473957 
L 142.352634 62.642215 
L 146.255666 77.240428 
L 148.029772 82.953621 
L 149.449057 86.751181 
L 150.51352 89.065482 
L 151.577984 90.894942 
L 152.642447 92.244467 
L 153.706911 93.147542 
L 154.771374 93.665211 
L 155.835838 93.882664 
L 157.255123 93.886276 
L 159.38405 93.828651 
L 160.448513 94.004384 
L 161.512977 94.42756 
L 162.57744 95.143959 
L 163.641904 96.160743 
L 165.061188 97.916315 
L 168.6094 102.738903 
L 169.673863 103.66185 
L 170.383506 103.975299 
L 171.093148 103.986749 
L 171.80279 103.649334 
L 172.512433 102.922632 
L 173.222075 101.774292 
L 173.931717 100.181411 
L 174.64136 98.131623 
L 175.705823 94.201022 
L 176.770287 89.288017 
L 178.189572 81.394739 
L 179.963677 69.935745 
L 184.576353 39.087556 
L 185.995637 31.379715 
L 187.060101 26.589171 
L 188.124564 22.737811 
L 189.189028 19.849202 
L 189.89867 18.44663 
L 190.608312 17.440823 
L 191.317955 16.803991 
L 192.027597 16.501583 
L 192.737239 16.493689 
L 193.446882 16.736521 
L 194.156524 17.183929 
L 195.220988 18.135879 
L 197.349915 20.495914 
L 199.12402 22.313905 
L 200.188484 23.14321 
L 201.252947 23.709238 
L 202.317411 23.989848 
L 203.381874 23.988141 
L 204.446338 23.728276 
L 205.510801 23.250385 
L 206.930086 22.362345 
L 210.123477 19.952788 
L 212.252404 18.52986 
L 213.671688 17.808528 
L 215.090973 17.302462 
L 216.510258 17.009429 
L 218.284363 16.907419 
L 220.058469 17.033864 
L 222.542217 17.448745 
L 231.412747 19.154541 
L 234.960958 19.510669 
L 238.50917 19.635726 
L 241.70256 19.592361 
L 241.70256 19.592361 
" clip-path="url(#pb0d3bfe530)" style="fill: none; stroke: #a3386f; stroke-opacity: 0.5; stroke-linecap: square"/>
   </g>
   <g id="line2d_20">
    <path d="M 64.291977 16.556887 
L 69.259473 16.784015 
L 73.517327 17.218772 
L 83.097499 18.349229 
L 89.129458 18.641065 
L 97.290345 19.133747 
L 103.322305 19.581839 
L 105.806053 20.015976 
L 107.93498 20.636425 
L 110.063907 21.516601 
L 112.547656 22.815556 
L 117.869973 25.729805 
L 119.9989 26.599119 
L 122.127827 27.234872 
L 127.095323 28.577049 
L 128.514608 29.258829 
L 129.933893 30.23897 
L 130.998356 31.223384 
L 132.06282 32.459083 
L 133.127283 33.974755 
L 134.546568 36.469063 
L 135.965853 39.532605 
L 137.385137 43.16901 
L 139.159243 48.470934 
L 141.28817 55.742803 
L 147.674951 78.554798 
L 149.094236 82.590942 
L 150.51352 85.885274 
L 151.577984 87.821818 
L 152.642447 89.296516 
L 153.706911 90.335931 
L 154.771374 90.994171 
L 155.835838 91.350134 
L 157.255123 91.526707 
L 159.738871 91.758981 
L 160.803334 92.101456 
L 161.867798 92.704302 
L 162.932261 93.605797 
L 163.996725 94.804559 
L 165.416009 96.782179 
L 168.6094 101.520637 
L 169.673863 102.619592 
L 170.383506 103.06116 
L 171.093148 103.208481 
L 171.80279 103.013659 
L 172.512433 102.435039 
L 173.222075 101.438874 
L 173.931717 100.000744 
L 174.64136 98.10668 
L 175.705823 94.407863 
L 176.770287 89.719437 
L 178.189572 82.104609 
L 179.963677 70.94148 
L 184.931174 38.36714 
L 186.350458 30.936055 
L 187.414922 26.33694 
L 188.479385 22.645525 
L 189.543849 19.872031 
L 190.253491 18.51633 
L 190.963134 17.531274 
L 191.672776 16.888232 
L 192.382418 16.552776 
L 193.092061 16.486061 
L 193.801703 16.646237 
L 194.866166 17.216816 
L 196.285451 18.367982 
L 199.12402 20.869838 
L 200.543305 21.76804 
L 201.607769 22.179615 
L 202.672232 22.347666 
L 203.736696 22.279465 
L 204.801159 22.000376 
L 206.220444 21.36825 
L 208.349371 20.094414 
L 211.18794 18.372985 
L 212.962046 17.5515 
L 214.381331 17.10213 
L 215.800615 16.842266 
L 217.574721 16.753455 
L 219.703648 16.903699 
L 223.25186 17.447628 
L 228.219356 18.169184 
L 232.122389 18.482385 
L 236.025422 18.559271 
L 240.638097 18.407879 
L 241.70256 18.348893 
L 241.70256 18.348893 
" clip-path="url(#pb0d3bfe530)" style="fill: none; stroke: #943470; stroke-opacity: 0.5; stroke-linecap: square"/>
   </g>
   <g id="line2d_21">
    <path d="M 64.291977 16.464117 
L 73.517327 16.580587 
L 77.775181 16.875646 
L 87.355353 17.677393 
L 95.871061 18.115591 
L 100.483736 18.665749 
L 104.74159 19.362732 
L 107.580159 20.036143 
L 110.063907 20.846461 
L 112.902477 22.016811 
L 118.579615 24.455177 
L 121.063364 25.236438 
L 127.095323 26.912389 
L 128.514608 27.628696 
L 129.933893 28.636461 
L 130.998356 29.632028 
L 132.06282 30.8667 
L 133.482104 32.927612 
L 134.901389 35.500884 
L 136.320674 38.607177 
L 137.739958 42.240911 
L 139.514064 47.467775 
L 141.642991 54.545747 
L 147.674951 75.348015 
L 149.094236 79.345976 
L 150.51352 82.663717 
L 151.577984 84.653707 
L 152.642447 86.206524 
L 153.706911 87.341843 
L 154.771374 88.106392 
L 155.835838 88.571999 
L 157.255123 88.889853 
L 159.738871 89.334731 
L 160.803334 89.754911 
L 161.867798 90.43198 
L 162.932261 91.409706 
L 163.996725 92.693213 
L 165.416009 94.808865 
L 168.964221 100.516581 
L 170.028685 101.692527 
L 170.738327 102.170909 
L 171.447969 102.344846 
L 172.157612 102.168316 
L 172.867254 101.602064 
L 173.576896 100.615167 
L 174.286539 99.186335 
L 174.996181 97.304875 
L 176.060645 93.638238 
L 177.125108 89.00664 
L 178.544393 81.518478 
L 180.318499 70.603934 
L 184.931174 40.994584 
L 186.350458 33.450897 
L 187.414922 28.671012 
L 188.479385 24.722562 
L 189.543849 21.626036 
L 190.608312 19.358073 
L 191.317955 18.277295 
L 192.027597 17.511724 
L 192.737239 17.030145 
L 193.446882 16.797602 
L 194.156524 16.776641 
L 195.220988 17.057176 
L 196.285451 17.596786 
L 200.898126 20.27814 
L 201.96259 20.5646 
L 203.027053 20.659185 
L 204.091517 20.568634 
L 205.510801 20.200814 
L 207.284907 19.465102 
L 211.897582 17.385698 
L 213.671688 16.886243 
L 215.445794 16.618645 
L 217.574721 16.550044 
L 220.768112 16.732171 
L 227.154893 17.137628 
L 232.47721 17.22519 
L 239.218812 17.100294 
L 241.70256 17.020678 
L 241.70256 17.020678 
" clip-path="url(#pb0d3bfe530)" style="fill: none; stroke: #863071; stroke-opacity: 0.5; stroke-linecap: square"/>
   </g>
   <g id="line2d_22">
    <path d="M 64.291977 16.533219 
L 75.291433 16.510371 
L 80.258929 16.527034 
L 85.581247 16.815267 
L 91.613207 17.066242 
L 95.871061 17.319515 
L 99.064451 17.75119 
L 104.031948 18.70557 
L 111.483192 20.301074 
L 116.80551 21.754955 
L 121.063364 22.815045 
L 124.966396 23.789837 
L 126.740502 24.474705 
L 128.159787 25.259113 
L 129.579072 26.334538 
L 130.998356 27.769877 
L 132.417641 29.622166 
L 133.836926 31.931914 
L 135.25621 34.720082 
L 136.675495 37.986342 
L 138.449601 42.704584 
L 140.578528 49.162805 
L 143.417097 58.628633 
L 146.610488 69.220452 
L 148.384593 74.425978 
L 149.803878 77.975688 
L 151.223163 80.855527 
L 152.287626 82.541848 
L 153.35209 83.825938 
L 154.416553 84.739002 
L 155.481017 85.337903 
L 156.54548 85.702518 
L 160.448513 86.692417 
L 161.512977 87.319905 
L 162.57744 88.245392 
L 163.641904 89.495145 
L 164.706367 91.054595 
L 166.480473 94.165581 
L 168.964221 98.639135 
L 170.028685 100.142812 
L 170.738327 100.873807 
L 171.447969 101.327832 
L 172.157612 101.458446 
L 172.867254 101.225418 
L 173.576896 100.596242 
L 174.286539 99.547389 
L 174.996181 98.065227 
L 175.705823 96.146586 
L 176.770287 92.469459 
L 177.83475 87.898345 
L 179.254035 80.620439 
L 181.028141 70.175354 
L 185.640816 42.273102 
L 187.060101 35.132503 
L 188.479385 29.181049 
L 189.543849 25.569781 
L 190.608312 22.696737 
L 191.672776 20.532069 
L 192.737239 19.017183 
L 193.446882 18.328872 
L 194.156524 17.86534 
L 194.866166 17.596178 
L 195.93063 17.487622 
L 196.995093 17.638293 
L 198.769199 18.193968 
L 201.252947 18.98741 
L 202.672232 19.222746 
L 204.091517 19.239428 
L 205.510801 19.051711 
L 207.639728 18.501923 
L 212.252404 17.167746 
L 214.381331 16.794841 
L 216.865079 16.57795 
L 221.122933 16.485446 
L 241.70256 16.456913 
L 241.70256 16.456913 
" clip-path="url(#pb0d3bfe530)" style="fill: none; stroke: #762d6f; stroke-opacity: 0.5; stroke-linecap: square"/>
   </g>
   <g id="line2d_23">
    <path d="M 64.291977 16.524364 
L 74.581791 16.644712 
L 84.161962 16.516845 
L 97.645167 16.998131 
L 101.548199 17.506955 
L 106.870517 18.183083 
L 116.80551 19.191555 
L 122.482648 20.128563 
L 124.611575 20.68693 
L 126.03086 21.241293 
L 127.450145 22.020029 
L 128.869429 23.093844 
L 130.288714 24.527618 
L 131.707999 26.373068 
L 133.127283 28.663287 
L 134.546568 31.409861 
L 135.965853 34.602528 
L 137.739958 39.172145 
L 139.868885 45.366964 
L 142.707455 54.402941 
L 146.610488 66.773306 
L 148.384593 71.68564 
L 149.803878 75.030668 
L 151.223163 77.738952 
L 152.287626 79.316953 
L 153.35209 80.50628 
L 154.416553 81.333231 
L 155.481017 81.849508 
L 156.54548 82.130617 
L 160.448513 82.794289 
L 161.512977 83.345795 
L 162.57744 84.218502 
L 163.641904 85.452185 
L 164.706367 87.047144 
L 166.125652 89.655967 
L 170.383506 98.173699 
L 171.447969 99.617775 
L 172.157612 100.250743 
L 172.867254 100.570029 
L 173.576896 100.540164 
L 174.286539 100.133487 
L 174.996181 99.331031 
L 175.705823 98.12306 
L 176.415466 96.509275 
L 177.479929 93.349811 
L 178.544393 89.366484 
L 179.963677 82.960593 
L 181.737783 73.669497 
L 187.414922 42.721674 
L 188.834207 36.411433 
L 190.253491 31.09119 
L 191.317955 27.79356 
L 192.382418 25.089586 
L 193.446882 22.953917 
L 194.511345 21.341067 
L 195.575809 20.189414 
L 196.640272 19.425944 
L 197.704736 18.971492 
L 198.769199 18.746126 
L 200.188484 18.672584 
L 205.865623 18.677354 
L 208.704192 18.283799 
L 213.671688 17.538781 
L 216.865079 17.313161 
L 221.477754 17.254828 
L 231.412747 17.182236 
L 241.70256 16.871276 
L 241.70256 16.871276 
" clip-path="url(#pb0d3bfe530)" style="fill: none; stroke: #672a6b; stroke-opacity: 0.5; stroke-linecap: square"/>
   </g>
   <g id="line2d_24">
    <path d="M 64.291977 16.531106 
L 93.742134 16.70518 
L 103.322305 16.79044 
L 108.289802 16.831497 
L 111.838013 17.100735 
L 118.224794 17.64989 
L 122.482648 17.942022 
L 124.256754 18.303018 
L 125.676039 18.82651 
L 127.095323 19.639185 
L 128.159787 20.479352 
L 129.22425 21.543618 
L 130.643535 23.340506 
L 132.06282 25.588698 
L 133.482104 28.288252 
L 135.25621 32.262852 
L 137.030316 36.82527 
L 139.159243 42.906901 
L 143.062276 54.909432 
L 145.900845 63.333312 
L 147.674951 67.988305 
L 149.094236 71.182072 
L 150.51352 73.794148 
L 151.577984 75.329215 
L 152.642447 76.486856 
L 153.706911 77.274111 
L 154.771374 77.718387 
L 155.835838 77.868131 
L 156.900301 77.79182 
L 159.029228 77.316196 
L 160.448513 77.085768 
L 161.512977 77.131139 
L 162.57744 77.463522 
L 163.287082 77.879641 
L 164.351546 78.830568 
L 165.416009 80.190212 
L 166.480473 81.945942 
L 167.899758 84.815947 
L 170.028685 89.809006 
L 172.157612 94.713404 
L 173.222075 96.770475 
L 174.286539 98.37906 
L 174.996181 99.14317 
L 175.705823 99.626352 
L 176.415466 99.805682 
L 177.125108 99.664542 
L 177.83475 99.192887 
L 178.544393 98.387276 
L 179.254035 97.250707 
L 180.318499 94.946693 
L 181.382962 91.97314 
L 182.802247 87.101467 
L 184.221531 81.402764 
L 186.350458 71.862445 
L 190.963134 50.755227 
L 192.737239 43.607825 
L 194.511345 37.399462 
L 195.93063 33.192295 
L 197.349915 29.678683 
L 198.769199 26.834826 
L 200.188484 24.604159 
L 201.252947 23.285365 
L 202.672232 21.92326 
L 204.091517 20.922773 
L 205.510801 20.188747 
L 207.284907 19.52192 
L 209.768655 18.851699 
L 213.316867 18.141063 
L 217.2199 17.583303 
L 221.122933 17.259846 
L 226.44525 17.074824 
L 241.70256 16.721902 
L 241.70256 16.721902 
" clip-path="url(#pb0d3bfe530)" style="fill: none; stroke: #582766; stroke-width: 1.5; stroke-linecap: square"/>
   </g>
   <g id="patch_3">
    <path d="M 55.421448 112.551498 
L 55.421448 11.88 
" style="fill: none; stroke: #000000; stroke-width: 0.8; stroke-linejoin: miter; stroke-linecap: square"/>
   </g>
   <g id="patch_4">
    <path d="M 250.57309 112.551498 
L 250.57309 11.88 
" style="fill: none; stroke: #000000; stroke-width: 0.8; stroke-linejoin: miter; stroke-linecap: square"/>
   </g>
   <g id="patch_5">
    <path d="M 55.421448 112.551498 
L 250.57309 112.551498 
" style="fill: none; stroke: #000000; stroke-width: 0.8; stroke-linejoin: miter; stroke-linecap: square"/>
   </g>
   <g id="patch_6">
    <path d="M 55.421448 11.88 
L 250.57309 11.88 
" style="fill: none; stroke: #000000; stroke-width: 0.8; stroke-linejoin: miter; stroke-linecap: square"/>
   </g>
   <g id="legend_1">
    <g id="line2d_25">
     <path d="M 60.921558 55.07781 
L 69.171558 55.07781 
L 77.421558 55.07781 
" style="fill: none; stroke: #edb081; stroke-width: 1.5; stroke-linecap: square"/>
    </g>
    <g id="text_11">
     <!-- $\delta t=0.0$ -->
     <g transform="translate(81.821558 58.92781) scale(0.11 -0.11)">
      <defs>
       <path id="CMMI12-e" d="M 1664 2795 
C 845 2597 256 1748 256 1001 
C 256 319 717 -64 1229 -64 
C 1984 -64 2496 970 2496 1818 
C 2496 2392 2227 2744 2067 2954 
C 1830 3254 1446 3746 1446 4052 
C 1446 4161 1530 4352 1811 4352 
C 2010 4352 2131 4282 2323 4173 
C 2381 4134 2528 4052 2611 4052 
C 2746 4052 2842 4185 2842 4287 
C 2842 4409 2746 4428 2522 4479 
C 2221 4543 2131 4543 2022 4543 
C 1914 4543 1286 4543 1286 3892 
C 1286 3579 1446 3216 1664 2795 
z
M 1734 2669 
C 1978 2165 2074 1974 2074 1560 
C 2074 1063 1805 63 1235 63 
C 986 63 627 229 627 821 
C 627 1235 864 2439 1734 2669 
z
" transform="scale(0.015625)"/>
       <path id="CMMI12-74" d="M 1286 2566 
L 1875 2566 
C 1997 2566 2061 2566 2061 2681 
C 2061 2752 2022 2752 1894 2752 
L 1331 2752 
L 1568 3692 
C 1594 3781 1594 3794 1594 3840 
C 1594 3943 1510 4000 1427 4000 
C 1376 4000 1229 3981 1178 3775 
L 928 2752 
L 326 2752 
C 198 2752 141 2752 141 2630 
C 141 2566 186 2566 307 2566 
L 877 2566 
L 454 881 
C 403 658 384 594 384 511 
C 384 211 595 -64 954 -64 
C 1600 -64 1946 868 1946 912 
C 1946 951 1920 970 1882 970 
C 1869 970 1843 970 1830 944 
C 1824 938 1818 931 1773 829 
C 1638 511 1344 64 973 64 
C 781 64 768 224 768 364 
C 768 370 768 492 787 568 
L 1286 2566 
z
" transform="scale(0.015625)"/>
       <path id="CMR17-3d" d="M 4115 2017 
C 4211 2017 4307 2017 4307 2125 
C 4307 2240 4198 2240 4090 2240 
L 512 2240 
C 403 2240 294 2240 294 2125 
C 294 2017 390 2017 486 2017 
L 4115 2017 
z
M 4090 896 
C 4198 896 4307 896 4307 1011 
C 4307 1119 4211 1119 4115 1119 
L 486 1119 
C 390 1119 294 1119 294 1011 
C 294 896 403 896 512 896 
L 4090 896 
z
" transform="scale(0.015625)"/>
      </defs>
      <use xlink:href="#CMMI12-e" transform="scale(0.996264)"/>
      <use xlink:href="#CMMI12-74" transform="translate(46.941386 0) scale(0.996264)"/>
      <use xlink:href="#CMR17-3d" transform="translate(109.841725 0) scale(0.996264)"/>
      <use xlink:href="#CMR17-30" transform="translate(209.230522 0) scale(0.996264)"/>
      <use xlink:href="#CMMI12-3a" transform="translate(254.920999 0) scale(0.996264)"/>
      <use xlink:href="#CMR17-30" transform="translate(282.018176 0) scale(0.996264)"/>
     </g>
    </g>
    <g id="line2d_26">
     <path d="M 60.921558 70.408704 
L 69.171558 70.408704 
L 77.421558 70.408704 
" style="fill: none; stroke: #cf4862; stroke-width: 1.5; stroke-linecap: square"/>
    </g>
    <g id="text_12">
     <!-- $\delta t=1.75$ -->
     <g transform="translate(81.821558 74.258704) scale(0.11 -0.11)">
      <defs>
       <path id="CMR17-37" d="M 2886 3941 
L 2886 4081 
L 1382 4081 
C 634 4081 621 4165 595 4288 
L 480 4288 
L 294 3094 
L 410 3094 
C 429 3215 474 3540 550 3661 
C 589 3712 1062 3712 1171 3712 
L 2579 3712 
L 1869 2661 
C 1395 1954 1069 999 1069 165 
C 1069 89 1069 -128 1299 -128 
C 1530 -128 1530 89 1530 171 
L 1530 465 
C 1530 1508 1709 2196 2003 2636 
L 2886 3941 
z
" transform="scale(0.015625)"/>
      </defs>
      <use xlink:href="#CMMI12-e" transform="scale(0.996264)"/>
      <use xlink:href="#CMMI12-74" transform="translate(46.941386 0) scale(0.996264)"/>
      <use xlink:href="#CMR17-3d" transform="translate(109.841725 0) scale(0.996264)"/>
      <use xlink:href="#CMR17-31" transform="translate(209.230522 0) scale(0.996264)"/>
      <use xlink:href="#CMMI12-3a" transform="translate(254.920999 0) scale(0.996264)"/>
      <use xlink:href="#CMR17-37" transform="translate(282.018176 0) scale(0.996264)"/>
      <use xlink:href="#CMR17-35" transform="translate(327.708654 0) scale(0.996264)"/>
     </g>
    </g>
    <g id="line2d_27">
     <path d="M 60.921558 85.739599 
L 69.171558 85.739599 
L 77.421558 85.739599 
" style="fill: none; stroke: #c14168; stroke-width: 1.5; stroke-linecap: square"/>
    </g>
    <g id="text_13">
     <!-- $\delta t=2.0$ -->
     <g transform="translate(81.821558 89.589599) scale(0.11 -0.11)">
      <use xlink:href="#CMMI12-e" transform="scale(0.996264)"/>
      <use xlink:href="#CMMI12-74" transform="translate(46.941386 0) scale(0.996264)"/>
      <use xlink:href="#CMR17-3d" transform="translate(109.841725 0) scale(0.996264)"/>
      <use xlink:href="#CMR17-32" transform="translate(209.230522 0) scale(0.996264)"/>
      <use xlink:href="#CMMI12-3a" transform="translate(254.920999 0) scale(0.996264)"/>
      <use xlink:href="#CMR17-30" transform="translate(282.018176 0) scale(0.996264)"/>
     </g>
    </g>
    <g id="line2d_28">
     <path d="M 60.921558 101.070493 
L 69.171558 101.070493 
L 77.421558 101.070493 
" style="fill: none; stroke: #582766; stroke-width: 1.5; stroke-linecap: square"/>
    </g>
    <g id="text_14">
     <!-- $\delta t=3.75$ -->
     <g transform="translate(81.821558 104.920493) scale(0.11 -0.11)">
      <defs>
       <path id="CMR17-33" d="M 1414 2157 
C 1984 2157 2234 1662 2234 1090 
C 2234 320 1824 25 1453 25 
C 1114 25 563 194 390 693 
C 422 680 454 680 486 680 
C 640 680 755 782 755 948 
C 755 1133 614 1216 486 1216 
C 378 1216 211 1165 211 926 
C 211 335 787 -128 1466 -128 
C 2176 -128 2720 430 2720 1085 
C 2720 1707 2208 2157 1600 2227 
C 2086 2328 2554 2756 2554 3329 
C 2554 3820 2048 4179 1472 4179 
C 890 4179 378 3829 378 3329 
C 378 3110 544 3072 627 3072 
C 762 3072 877 3155 877 3321 
C 877 3486 762 3569 627 3569 
C 602 3569 570 3569 544 3557 
C 730 3959 1235 4032 1459 4032 
C 1683 4032 2106 3925 2106 3320 
C 2106 3143 2080 2828 1862 2550 
C 1670 2304 1453 2304 1242 2284 
C 1210 2284 1062 2269 1037 2269 
C 992 2263 966 2257 966 2208 
C 966 2163 973 2157 1101 2157 
L 1414 2157 
z
" transform="scale(0.015625)"/>
      </defs>
      <use xlink:href="#CMMI12-e" transform="scale(0.996264)"/>
      <use xlink:href="#CMMI12-74" transform="translate(46.941386 0) scale(0.996264)"/>
      <use xlink:href="#CMR17-3d" transform="translate(109.841725 0) scale(0.996264)"/>
      <use xlink:href="#CMR17-33" transform="translate(209.230522 0) scale(0.996264)"/>
      <use xlink:href="#CMMI12-3a" transform="translate(254.920999 0) scale(0.996264)"/>
      <use xlink:href="#CMR17-37" transform="translate(282.018176 0) scale(0.996264)"/>
      <use xlink:href="#CMR17-35" transform="translate(327.708654 0) scale(0.996264)"/>
     </g>
    </g>
   </g>
  </g>
  <g id="axes_2">
   <g id="patch_7">
    <path d="M 301.063003 112.551498 
L 496.214645 112.551498 
L 496.214645 11.88 
L 301.063003 11.88 
z
" style="fill: #ffffff"/>
   </g>
   <g id="matplotlib.axis_3">
    <g id="xtick_6">
     <g id="line2d_29">
      <g>
       <use xlink:href="#m4cb6e8aeff" x="309.933532" y="112.551498" style="stroke: #000000; stroke-width: 0.8"/>
      </g>
     </g>
     <g id="text_15">
      <!-- $\mathdefault{0}$ -->
      <g transform="translate(307.193799 129.261845) scale(0.11 -0.11)">
       <use xlink:href="#CMR17-30" transform="scale(0.996264)"/>
      </g>
     </g>
    </g>
    <g id="xtick_7">
     <g id="line2d_30">
      <g>
       <use xlink:href="#m4cb6e8aeff" x="357.243021" y="112.551498" style="stroke: #000000; stroke-width: 0.8"/>
      </g>
     </g>
     <g id="text_16">
      <!-- $\mathdefault{1}$ -->
      <g transform="translate(354.503288 129.261845) scale(0.11 -0.11)">
       <use xlink:href="#CMR17-31" transform="scale(0.996264)"/>
      </g>
     </g>
    </g>
    <g id="xtick_8">
     <g id="line2d_31">
      <g>
       <use xlink:href="#m4cb6e8aeff" x="404.55251" y="112.551498" style="stroke: #000000; stroke-width: 0.8"/>
      </g>
     </g>
     <g id="text_17">
      <!-- $\mathdefault{2}$ -->
      <g transform="translate(401.812777 129.261845) scale(0.11 -0.11)">
       <use xlink:href="#CMR17-32" transform="scale(0.996264)"/>
      </g>
     </g>
    </g>
    <g id="xtick_9">
     <g id="line2d_32">
      <g>
       <use xlink:href="#m4cb6e8aeff" x="451.861999" y="112.551498" style="stroke: #000000; stroke-width: 0.8"/>
      </g>
     </g>
     <g id="text_18">
      <!-- $\mathdefault{3}$ -->
      <g transform="translate(449.122266 129.261845) scale(0.11 -0.11)">
       <use xlink:href="#CMR17-33" transform="scale(0.996264)"/>
      </g>
     </g>
    </g>
    <g id="text_19">
     <!-- Normalized Time, $\delta t$ -->
     <g transform="translate(349.101065 143.003086) scale(0.11 -0.11)">
      <defs>
       <path id="CMR17-4e" d="M 1312 4250 
C 1267 4320 1261 4320 1139 4320 
L 326 4320 
L 326 4160 
L 448 4160 
C 704 4160 819 4129 838 4122 
L 838 610 
C 838 451 838 153 326 153 
L 326 -13 
C 474 0 742 0 902 0 
C 1062 0 1331 0 1478 -13 
L 1478 153 
C 966 153 966 451 966 610 
L 966 4033 
C 1011 3995 1011 3982 1056 3919 
L 3430 76 
C 3475 0 3494 0 3526 0 
C 3590 0 3590 19 3590 139 
L 3590 3705 
C 3590 3863 3590 4160 4102 4160 
L 4102 4326 
C 3955 4320 3686 4320 3526 4320 
C 3366 4320 3098 4320 2950 4326 
L 2950 4160 
C 3462 4160 3462 3862 3462 3703 
L 3462 763 
L 1312 4250 
z
" transform="scale(0.015625)"/>
       <path id="CMR17-6f" d="M 2758 1356 
C 2758 2176 2163 2816 1466 2816 
C 768 2816 173 2176 173 1356 
C 173 551 768 -64 1466 -64 
C 2163 -64 2758 551 2758 1356 
z
M 1466 51 
C 1165 51 909 230 762 480 
C 602 767 582 1126 582 1408 
C 582 1677 595 2010 762 2298 
C 890 2509 1139 2714 1466 2714 
C 1754 2714 1997 2554 2150 2330 
C 2349 2029 2349 1607 2349 1408 
C 2349 1158 2336 775 2163 467 
C 1984 173 1709 51 1466 51 
z
" transform="scale(0.015625)"/>
       <path id="CMR17-72" d="M 960 1497 
C 960 2112 1222 2688 1702 2688 
C 1747 2688 1792 2682 1837 2662 
C 1837 2662 1696 2617 1696 2452 
C 1696 2298 1818 2234 1914 2234 
C 1990 2234 2131 2279 2131 2458 
C 2131 2663 1926 2790 1709 2790 
C 1222 2790 1011 2317 947 2093 
L 941 2093 
L 941 2790 
L 198 2720 
L 198 2554 
C 576 2554 634 2515 634 2208 
L 634 428 
C 634 184 608 153 198 153 
L 198 -13 
C 352 0 646 0 813 0 
C 998 0 1325 0 1498 -13 
L 1498 153 
C 1037 153 960 153 960 440 
L 960 1497 
z
" transform="scale(0.015625)"/>
       <path id="CMR17-6d" d="M 4326 1933 
C 4326 2252 4269 2790 3507 2790 
C 3072 2790 2771 2496 2656 2151 
L 2650 2151 
C 2573 2676 2195 2790 1837 2790 
C 1331 2790 1069 2400 973 2144 
L 966 2144 
L 966 2790 
L 211 2720 
L 211 2554 
C 589 2554 646 2515 646 2208 
L 646 428 
C 646 184 621 153 211 153 
L 211 -13 
C 365 0 646 0 813 0 
C 979 0 1267 0 1421 -13 
L 1421 153 
C 1011 153 986 178 986 428 
L 986 1658 
C 986 2247 1344 2688 1792 2688 
C 2266 2688 2317 2266 2317 1958 
L 2317 428 
C 2317 184 2291 153 1882 153 
L 1882 -13 
C 2035 0 2317 0 2483 0 
C 2650 0 2938 0 3091 -13 
L 3091 153 
C 2682 153 2656 178 2656 428 
L 2656 1658 
C 2656 2247 3014 2688 3462 2688 
C 3936 2688 3987 2266 3987 1958 
L 3987 428 
C 3987 184 3962 153 3552 153 
L 3552 -13 
C 3706 0 3987 0 4154 0 
C 4320 0 4608 0 4762 -13 
L 4762 153 
C 4352 153 4326 178 4326 428 
L 4326 1933 
z
" transform="scale(0.015625)"/>
       <path id="CMR17-54" d="M 3981 4326 
L 288 4326 
L 179 2918 
L 294 2918 
C 378 3976 467 4160 1453 4160 
C 1568 4160 1754 4160 1805 4154 
C 1926 4135 1926 4058 1926 3912 
L 1926 459 
C 1926 230 1907 160 1376 160 
L 1197 160 
L 1197 0 
C 1504 0 1824 0 2138 0 
C 2451 0 2771 0 3078 0 
L 3078 160 
L 2899 160 
C 2368 160 2349 230 2349 459 
L 2349 3912 
C 2349 4052 2349 4129 2464 4154 
C 2515 4160 2701 4160 2816 4160 
C 3795 4160 3891 3976 3974 2918 
L 4090 2918 
L 3981 4326 
z
" transform="scale(0.015625)"/>
      </defs>
      <use xlink:href="#CMR17-4e" transform="scale(0.996264)"/>
      <use xlink:href="#CMR17-6f" transform="translate(69.07243 0) scale(0.996264)"/>
      <use xlink:href="#CMR17-72" transform="translate(114.762907 0) scale(0.996264)"/>
      <use xlink:href="#CMR17-6d" transform="translate(150.043675 0) scale(0.996264)"/>
      <use xlink:href="#CMR17-61" transform="translate(226.963265 0) scale(0.996264)"/>
      <use xlink:href="#CMR17-6c" transform="translate(272.653742 0) scale(0.996264)"/>
      <use xlink:href="#CMR17-69" transform="translate(297.5248 0) scale(0.996264)"/>
      <use xlink:href="#CMR17-7a" transform="translate(322.395859 0) scale(0.996264)"/>
      <use xlink:href="#CMR17-65" transform="translate(362.881519 0) scale(0.996264)"/>
      <use xlink:href="#CMR17-64" transform="translate(403.36718 0) scale(0.996264)"/>
      <use xlink:href="#CMR17-54" transform="translate(484.338516 0) scale(0.996264)"/>
      <use xlink:href="#CMR17-69" transform="translate(550.848396 0) scale(0.996264)"/>
      <use xlink:href="#CMR17-6d" transform="translate(575.719455 0) scale(0.996264)"/>
      <use xlink:href="#CMR17-65" transform="translate(652.639045 0) scale(0.996264)"/>
      <use xlink:href="#CMR17-2c" transform="translate(693.124705 0) scale(0.996264)"/>
      <use xlink:href="#CMMI12-e" transform="translate(748.07173 0) scale(0.996264)"/>
      <use xlink:href="#CMMI12-74" transform="translate(795.013116 0) scale(0.996264)"/>
     </g>
    </g>
   </g>
   <g id="matplotlib.axis_4">
    <g id="ytick_4">
     <g id="line2d_33">
      <g>
       <use xlink:href="#m76bb531398" x="301.063003" y="107.975521" style="stroke: #000000; stroke-width: 0.8"/>
      </g>
     </g>
     <g id="text_20">
      <!-- $\mathdefault{0.0}$ -->
      <g transform="translate(277.959927 111.780694) scale(0.11 -0.11)">
       <use xlink:href="#CMR17-30" transform="scale(0.996264)"/>
       <use xlink:href="#CMMI12-3a" transform="translate(45.690477 0) scale(0.996264)"/>
       <use xlink:href="#CMR17-30" transform="translate(72.787654 0) scale(0.996264)"/>
      </g>
     </g>
    </g>
    <g id="ytick_5">
     <g id="line2d_34">
      <g>
       <use xlink:href="#m76bb531398" x="301.063003" y="81.382993" style="stroke: #000000; stroke-width: 0.8"/>
      </g>
     </g>
     <g id="text_21">
      <!-- $\mathdefault{0.5}$ -->
      <g transform="translate(277.959927 85.188167) scale(0.11 -0.11)">
       <use xlink:href="#CMR17-30" transform="scale(0.996264)"/>
       <use xlink:href="#CMMI12-3a" transform="translate(45.690477 0) scale(0.996264)"/>
       <use xlink:href="#CMR17-35" transform="translate(72.787654 0) scale(0.996264)"/>
      </g>
     </g>
    </g>
    <g id="ytick_6">
     <g id="line2d_35">
      <g>
       <use xlink:href="#m76bb531398" x="301.063003" y="54.790466" style="stroke: #000000; stroke-width: 0.8"/>
      </g>
     </g>
     <g id="text_22">
      <!-- $\mathdefault{1.0}$ -->
      <g transform="translate(277.959927 58.595639) scale(0.11 -0.11)">
       <use xlink:href="#CMR17-31" transform="scale(0.996264)"/>
       <use xlink:href="#CMMI12-3a" transform="translate(45.690477 0) scale(0.996264)"/>
       <use xlink:href="#CMR17-30" transform="translate(72.787654 0) scale(0.996264)"/>
      </g>
     </g>
    </g>
    <g id="ytick_7">
     <g id="line2d_36">
      <g>
       <use xlink:href="#m76bb531398" x="301.063003" y="28.197938" style="stroke: #000000; stroke-width: 0.8"/>
      </g>
     </g>
     <g id="text_23">
      <!-- $\mathdefault{1.5}$ -->
      <g transform="translate(277.959927 32.003111) scale(0.11 -0.11)">
       <use xlink:href="#CMR17-31" transform="scale(0.996264)"/>
       <use xlink:href="#CMMI12-3a" transform="translate(45.690477 0) scale(0.996264)"/>
       <use xlink:href="#CMR17-35" transform="translate(72.787654 0) scale(0.996264)"/>
      </g>
     </g>
    </g>
    <g id="text_24">
     <!-- Update Size, $\norm{\bm{\theta}}_{\infty}$ -->
     <g transform="translate(270.672268 107.584914) rotate(-90) scale(0.11 -0.11)">
      <use xlink:href="#CMR17-55" transform="scale(0.996264)"/>
      <use xlink:href="#CMR17-70" transform="translate(69.07243 0) scale(0.996264)"/>
      <use xlink:href="#CMR17-64" transform="translate(122.570238 0) scale(0.996264)"/>
      <use xlink:href="#CMR17-61" transform="translate(173.465608 0) scale(0.996264)"/>
      <use xlink:href="#CMR17-74" transform="translate(219.156085 0) scale(0.996264)"/>
      <use xlink:href="#CMR17-65" transform="translate(254.436853 0) scale(0.996264)"/>
      <use xlink:href="#CMR17-53" transform="translate(324.99848 0) scale(0.996264)"/>
      <use xlink:href="#CMR17-69" transform="translate(375.89385 0) scale(0.996264)"/>
      <use xlink:href="#CMR17-7a" transform="translate(400.764908 0) scale(0.996264)"/>
      <use xlink:href="#CMR17-65" transform="translate(441.250569 0) scale(0.996264)"/>
      <use xlink:href="#CMR17-2c" transform="translate(481.736229 0) scale(0.996264)"/>
      <use xlink:href="#CMSY10-6b" transform="translate(536.683254 0) scale(0.996264)"/>
      <use xlink:href="#CMMIB10-12" transform="translate(586.496637 0) scale(0.996264)"/>
      <use xlink:href="#CMSY10-6b" transform="translate(645.649524 0) scale(0.996264)"/>
      <use xlink:href="#CMSY10-31" transform="translate(695.462906 -28.393509) scale(0.697382)"/>
     </g>
    </g>
   </g>
   <g id="line2d_37">
    <path d="M 309.933532 107.975521 
L 321.760904 102.389 
L 333.588277 97.035557 
L 345.415649 92.091271 
L 357.243021 87.746056 
L 369.070393 84.521794 
L 380.897766 80.366172 
L 392.725138 58.865182 
L 404.55251 57.74801 
L 416.379882 53.21558 
L 428.207255 47.879088 
L 440.034627 43.300597 
L 451.861999 39.587363 
L 463.689371 36.948846 
L 475.516744 35.24831 
L 487.344116 32.173816 
" clip-path="url(#peba04f1fac)" style="fill: none; stroke: #4056a1; stroke-width: 1.4; stroke-linecap: square"/>
    <defs>
     <path id="m76a2ab58e8" d="M 0 1.4 
C 0.371284 1.4 0.727412 1.252487 0.989949 0.989949 
C 1.252487 0.727412 1.4 0.371284 1.4 0 
C 1.4 -0.371284 1.252487 -0.727412 0.989949 -0.989949 
C 0.727412 -1.252487 0.371284 -1.4 0 -1.4 
C -0.371284 -1.4 -0.727412 -1.252487 -0.989949 -0.989949 
C -1.252487 -0.727412 -1.4 -0.371284 -1.4 0 
C -1.4 0.371284 -1.252487 0.727412 -0.989949 0.989949 
C -0.727412 1.252487 -0.371284 1.4 0 1.4 
z
"/>
    </defs>
    <g clip-path="url(#peba04f1fac)">
     <use xlink:href="#m76a2ab58e8" x="309.933532" y="107.975521" style="fill: #4056a1"/>
     <use xlink:href="#m76a2ab58e8" x="321.760904" y="102.389" style="fill: #4056a1"/>
     <use xlink:href="#m76a2ab58e8" x="333.588277" y="97.035557" style="fill: #4056a1"/>
     <use xlink:href="#m76a2ab58e8" x="345.415649" y="92.091271" style="fill: #4056a1"/>
     <use xlink:href="#m76a2ab58e8" x="357.243021" y="87.746056" style="fill: #4056a1"/>
     <use xlink:href="#m76a2ab58e8" x="369.070393" y="84.521794" style="fill: #4056a1"/>
     <use xlink:href="#m76a2ab58e8" x="380.897766" y="80.366172" style="fill: #4056a1"/>
     <use xlink:href="#m76a2ab58e8" x="392.725138" y="58.865182" style="fill: #4056a1"/>
     <use xlink:href="#m76a2ab58e8" x="404.55251" y="57.74801" style="fill: #4056a1"/>
     <use xlink:href="#m76a2ab58e8" x="416.379882" y="53.21558" style="fill: #4056a1"/>
     <use xlink:href="#m76a2ab58e8" x="428.207255" y="47.879088" style="fill: #4056a1"/>
     <use xlink:href="#m76a2ab58e8" x="440.034627" y="43.300597" style="fill: #4056a1"/>
     <use xlink:href="#m76a2ab58e8" x="451.861999" y="39.587363" style="fill: #4056a1"/>
     <use xlink:href="#m76a2ab58e8" x="463.689371" y="36.948846" style="fill: #4056a1"/>
     <use xlink:href="#m76a2ab58e8" x="475.516744" y="35.24831" style="fill: #4056a1"/>
     <use xlink:href="#m76a2ab58e8" x="487.344116" y="32.173816" style="fill: #4056a1"/>
    </g>
   </g>
   <g id="line2d_38">
    <path d="M 309.933532 107.975521 
L 321.760904 103.772718 
L 333.588277 99.335683 
L 345.415649 93.847294 
L 357.243021 87.868791 
L 369.070393 81.780894 
L 380.897766 75.900522 
L 392.725138 70.401684 
L 404.55251 65.343263 
L 416.379882 60.722644 
L 428.207255 56.504448 
L 440.034627 52.642664 
L 451.861999 49.075825 
L 463.689371 45.754236 
L 475.516744 42.627494 
L 487.344116 39.657215 
" clip-path="url(#peba04f1fac)" style="fill: none; stroke-dasharray: 5.18,2.24; stroke-dashoffset: 0; stroke: #075c2f; stroke-width: 1.4"/>
    <defs>
     <path id="m2d640a2cfd" d="M 0 1.4 
C 0.371284 1.4 0.727412 1.252487 0.989949 0.989949 
C 1.252487 0.727412 1.4 0.371284 1.4 0 
C 1.4 -0.371284 1.252487 -0.727412 0.989949 -0.989949 
C 0.727412 -1.252487 0.371284 -1.4 0 -1.4 
C -0.371284 -1.4 -0.727412 -1.252487 -0.989949 -0.989949 
C -1.252487 -0.727412 -1.4 -0.371284 -1.4 0 
C -1.4 0.371284 -1.252487 0.727412 -0.989949 0.989949 
C -0.727412 1.252487 -0.371284 1.4 0 1.4 
z
"/>
    </defs>
    <g clip-path="url(#peba04f1fac)">
     <use xlink:href="#m2d640a2cfd" x="309.933532" y="107.975521" style="fill: #075c2f"/>
     <use xlink:href="#m2d640a2cfd" x="321.760904" y="103.772718" style="fill: #075c2f"/>
     <use xlink:href="#m2d640a2cfd" x="333.588277" y="99.335683" style="fill: #075c2f"/>
     <use xlink:href="#m2d640a2cfd" x="345.415649" y="93.847294" style="fill: #075c2f"/>
     <use xlink:href="#m2d640a2cfd" x="357.243021" y="87.868791" style="fill: #075c2f"/>
     <use xlink:href="#m2d640a2cfd" x="369.070393" y="81.780894" style="fill: #075c2f"/>
     <use xlink:href="#m2d640a2cfd" x="380.897766" y="75.900522" style="fill: #075c2f"/>
     <use xlink:href="#m2d640a2cfd" x="392.725138" y="70.401684" style="fill: #075c2f"/>
     <use xlink:href="#m2d640a2cfd" x="404.55251" y="65.343263" style="fill: #075c2f"/>
     <use xlink:href="#m2d640a2cfd" x="416.379882" y="60.722644" style="fill: #075c2f"/>
     <use xlink:href="#m2d640a2cfd" x="428.207255" y="56.504448" style="fill: #075c2f"/>
     <use xlink:href="#m2d640a2cfd" x="440.034627" y="52.642664" style="fill: #075c2f"/>
     <use xlink:href="#m2d640a2cfd" x="451.861999" y="49.075825" style="fill: #075c2f"/>
     <use xlink:href="#m2d640a2cfd" x="463.689371" y="45.754236" style="fill: #075c2f"/>
     <use xlink:href="#m2d640a2cfd" x="475.516744" y="42.627494" style="fill: #075c2f"/>
     <use xlink:href="#m2d640a2cfd" x="487.344116" y="39.657215" style="fill: #075c2f"/>
    </g>
   </g>
   <g id="line2d_39">
    <path d="M 309.933532 107.975521 
L 321.760904 100.749547 
L 333.588277 92.704234 
L 345.415649 64.604615 
L 357.243021 53.938076 
L 369.070393 48.085519 
L 380.897766 43.977842 
L 392.725138 40.839236 
L 404.55251 38.334415 
L 416.379882 36.301547 
L 428.207255 34.585427 
L 440.034627 32.983036 
L 451.861999 31.065482 
L 463.689371 28.327544 
L 475.516744 24.107553 
L 487.344116 16.455977 
" clip-path="url(#peba04f1fac)" style="fill: none; stroke-dasharray: 8.96,2.24,1.4,2.24; stroke-dashoffset: 0; stroke: #7d8238; stroke-width: 1.4"/>
    <defs>
     <path id="mca5f7a1e5f" d="M 0 1.4 
C 0.371284 1.4 0.727412 1.252487 0.989949 0.989949 
C 1.252487 0.727412 1.4 0.371284 1.4 0 
C 1.4 -0.371284 1.252487 -0.727412 0.989949 -0.989949 
C 0.727412 -1.252487 0.371284 -1.4 0 -1.4 
C -0.371284 -1.4 -0.727412 -1.252487 -0.989949 -0.989949 
C -1.252487 -0.727412 -1.4 -0.371284 -1.4 0 
C -1.4 0.371284 -1.252487 0.727412 -0.989949 0.989949 
C -0.727412 1.252487 -0.371284 1.4 0 1.4 
z
"/>
    </defs>
    <g clip-path="url(#peba04f1fac)">
     <use xlink:href="#mca5f7a1e5f" x="309.933532" y="107.975521" style="fill: #7d8238"/>
     <use xlink:href="#mca5f7a1e5f" x="321.760904" y="100.749547" style="fill: #7d8238"/>
     <use xlink:href="#mca5f7a1e5f" x="333.588277" y="92.704234" style="fill: #7d8238"/>
     <use xlink:href="#mca5f7a1e5f" x="345.415649" y="64.604615" style="fill: #7d8238"/>
     <use xlink:href="#mca5f7a1e5f" x="357.243021" y="53.938076" style="fill: #7d8238"/>
     <use xlink:href="#mca5f7a1e5f" x="369.070393" y="48.085519" style="fill: #7d8238"/>
     <use xlink:href="#mca5f7a1e5f" x="380.897766" y="43.977842" style="fill: #7d8238"/>
     <use xlink:href="#mca5f7a1e5f" x="392.725138" y="40.839236" style="fill: #7d8238"/>
     <use xlink:href="#mca5f7a1e5f" x="404.55251" y="38.334415" style="fill: #7d8238"/>
     <use xlink:href="#mca5f7a1e5f" x="416.379882" y="36.301547" style="fill: #7d8238"/>
     <use xlink:href="#mca5f7a1e5f" x="428.207255" y="34.585427" style="fill: #7d8238"/>
     <use xlink:href="#mca5f7a1e5f" x="440.034627" y="32.983036" style="fill: #7d8238"/>
     <use xlink:href="#mca5f7a1e5f" x="451.861999" y="31.065482" style="fill: #7d8238"/>
     <use xlink:href="#mca5f7a1e5f" x="463.689371" y="28.327544" style="fill: #7d8238"/>
     <use xlink:href="#mca5f7a1e5f" x="475.516744" y="24.107553" style="fill: #7d8238"/>
     <use xlink:href="#mca5f7a1e5f" x="487.344116" y="16.455977" style="fill: #7d8238"/>
    </g>
   </g>
   <g id="line2d_40">
    <path d="M 309.933532 107.975521 
L 321.760904 104.490429 
L 333.588277 99.89591 
L 345.415649 94.104638 
L 357.243021 87.182174 
L 369.070393 79.165798 
L 380.897766 70.425236 
L 392.725138 60.80364 
L 404.55251 42.58338 
L 416.379882 41.895487 
L 428.207255 41.031652 
L 440.034627 39.931661 
L 451.861999 38.422994 
L 463.689371 36.127575 
L 475.516744 31.995895 
L 487.344116 19.576869 
" clip-path="url(#peba04f1fac)" style="fill: none; stroke-dasharray: 1.4,2.31; stroke-dashoffset: 0; stroke: #453f3f; stroke-width: 1.4"/>
    <defs>
     <path id="mc6cd58f017" d="M 0 1.4 
C 0.371284 1.4 0.727412 1.252487 0.989949 0.989949 
C 1.252487 0.727412 1.4 0.371284 1.4 0 
C 1.4 -0.371284 1.252487 -0.727412 0.989949 -0.989949 
C 0.727412 -1.252487 0.371284 -1.4 0 -1.4 
C -0.371284 -1.4 -0.727412 -1.252487 -0.989949 -0.989949 
C -1.252487 -0.727412 -1.4 -0.371284 -1.4 0 
C -1.4 0.371284 -1.252487 0.727412 -0.989949 0.989949 
C -0.727412 1.252487 -0.371284 1.4 0 1.4 
z
"/>
    </defs>
    <g clip-path="url(#peba04f1fac)">
     <use xlink:href="#mc6cd58f017" x="309.933532" y="107.975521" style="fill: #453f3f"/>
     <use xlink:href="#mc6cd58f017" x="321.760904" y="104.490429" style="fill: #453f3f"/>
     <use xlink:href="#mc6cd58f017" x="333.588277" y="99.89591" style="fill: #453f3f"/>
     <use xlink:href="#mc6cd58f017" x="345.415649" y="94.104638" style="fill: #453f3f"/>
     <use xlink:href="#mc6cd58f017" x="357.243021" y="87.182174" style="fill: #453f3f"/>
     <use xlink:href="#mc6cd58f017" x="369.070393" y="79.165798" style="fill: #453f3f"/>
     <use xlink:href="#mc6cd58f017" x="380.897766" y="70.425236" style="fill: #453f3f"/>
     <use xlink:href="#mc6cd58f017" x="392.725138" y="60.80364" style="fill: #453f3f"/>
     <use xlink:href="#mc6cd58f017" x="404.55251" y="42.58338" style="fill: #453f3f"/>
     <use xlink:href="#mc6cd58f017" x="416.379882" y="41.895487" style="fill: #453f3f"/>
     <use xlink:href="#mc6cd58f017" x="428.207255" y="41.031652" style="fill: #453f3f"/>
     <use xlink:href="#mc6cd58f017" x="440.034627" y="39.931661" style="fill: #453f3f"/>
     <use xlink:href="#mc6cd58f017" x="451.861999" y="38.422994" style="fill: #453f3f"/>
     <use xlink:href="#mc6cd58f017" x="463.689371" y="36.127575" style="fill: #453f3f"/>
     <use xlink:href="#mc6cd58f017" x="475.516744" y="31.995895" style="fill: #453f3f"/>
     <use xlink:href="#mc6cd58f017" x="487.344116" y="19.576869" style="fill: #453f3f"/>
    </g>
   </g>
   <g id="patch_8">
    <path d="M 301.063003 112.551498 
L 301.063003 11.88 
" style="fill: none; stroke: #000000; stroke-width: 0.8; stroke-linejoin: miter; stroke-linecap: square"/>
   </g>
   <g id="patch_9">
    <path d="M 496.214645 112.551498 
L 496.214645 11.88 
" style="fill: none; stroke: #000000; stroke-width: 0.8; stroke-linejoin: miter; stroke-linecap: square"/>
   </g>
   <g id="patch_10">
    <path d="M 301.063003 112.551498 
L 496.214645 112.551498 
" style="fill: none; stroke: #000000; stroke-width: 0.8; stroke-linejoin: miter; stroke-linecap: square"/>
   </g>
   <g id="patch_11">
    <path d="M 301.063003 11.88 
L 496.214645 11.88 
" style="fill: none; stroke: #000000; stroke-width: 0.8; stroke-linejoin: miter; stroke-linecap: square"/>
   </g>
   <g id="legend_2">
    <g id="line2d_41">
     <path d="M 444.243693 55.07781 
L 452.493693 55.07781 
L 460.743693 55.07781 
" style="fill: none; stroke: #4056a1; stroke-width: 1.4; stroke-linecap: square"/>
     <g>
      <use xlink:href="#m76a2ab58e8" x="452.493693" y="55.07781" style="fill: #4056a1"/>
     </g>
    </g>
    <g id="text_25">
     <!-- n=4 -->
     <g transform="translate(465.143693 58.92781) scale(0.11 -0.11)">
      <defs>
       <path id="CMR17-34" d="M 2150 4122 
C 2150 4256 2144 4256 2029 4256 
L 128 1254 
L 128 1088 
L 1779 1088 
L 1779 457 
C 1779 224 1766 160 1318 160 
L 1197 160 
L 1197 0 
C 1402 0 1747 0 1965 0 
C 2182 0 2528 0 2733 0 
L 2733 160 
L 2611 160 
C 2163 160 2150 224 2150 457 
L 2150 1088 
L 2803 1088 
L 2803 1254 
L 2150 1254 
L 2150 4122 
z
M 1798 3703 
L 1798 1254 
L 256 1254 
L 1798 3703 
z
" transform="scale(0.015625)"/>
      </defs>
      <use xlink:href="#CMR17-6e" transform="scale(0.996264)"/>
      <use xlink:href="#CMR17-3d" transform="translate(50.89537 0) scale(0.996264)"/>
      <use xlink:href="#CMR17-34" transform="translate(122.610158 0) scale(0.996264)"/>
     </g>
    </g>
    <g id="line2d_42">
     <path d="M 444.243693 70.408704 
L 452.493693 70.408704 
L 460.743693 70.408704 
" style="fill: none; stroke-dasharray: 5.18,2.24; stroke-dashoffset: 0; stroke: #075c2f; stroke-width: 1.4"/>
     <g>
      <use xlink:href="#m2d640a2cfd" x="452.493693" y="70.408704" style="fill: #075c2f"/>
     </g>
    </g>
    <g id="text_26">
     <!-- n=6 -->
     <g transform="translate(465.143693 74.258704) scale(0.11 -0.11)">
      <defs>
       <path id="CMR17-36" d="M 678 2176 
C 678 3690 1395 4032 1811 4032 
C 1946 4032 2272 4009 2400 3776 
C 2298 3776 2106 3776 2106 3553 
C 2106 3381 2246 3323 2336 3323 
C 2394 3323 2566 3348 2566 3560 
C 2566 3954 2246 4179 1805 4179 
C 1043 4179 243 3390 243 1984 
C 243 253 966 -128 1478 -128 
C 2099 -128 2688 427 2688 1283 
C 2688 2081 2170 2662 1517 2662 
C 1126 2662 838 2407 678 1960 
L 678 2176 
z
M 1478 25 
C 691 25 691 1200 691 1436 
C 691 1896 909 2560 1504 2560 
C 1613 2560 1926 2560 2138 2120 
C 2253 1870 2253 1609 2253 1289 
C 2253 944 2253 690 2118 434 
C 1978 171 1773 25 1478 25 
z
" transform="scale(0.015625)"/>
      </defs>
      <use xlink:href="#CMR17-6e" transform="scale(0.996264)"/>
      <use xlink:href="#CMR17-3d" transform="translate(50.89537 0) scale(0.996264)"/>
      <use xlink:href="#CMR17-36" transform="translate(122.610158 0) scale(0.996264)"/>
     </g>
    </g>
    <g id="line2d_43">
     <path d="M 444.243693 85.739599 
L 452.493693 85.739599 
L 460.743693 85.739599 
" style="fill: none; stroke-dasharray: 8.96,2.24,1.4,2.24; stroke-dashoffset: 0; stroke: #7d8238; stroke-width: 1.4"/>
     <g>
      <use xlink:href="#mca5f7a1e5f" x="452.493693" y="85.739599" style="fill: #7d8238"/>
     </g>
    </g>
    <g id="text_27">
     <!-- n=8 -->
     <g transform="translate(465.143693 89.589599) scale(0.11 -0.11)">
      <defs>
       <path id="CMR17-38" d="M 1741 2264 
C 2144 2467 2554 2773 2554 3263 
C 2554 3841 1990 4179 1472 4179 
C 890 4179 378 3759 378 3180 
C 378 3021 416 2747 666 2505 
C 730 2442 998 2251 1171 2130 
C 883 1983 211 1634 211 934 
C 211 279 838 -128 1459 -128 
C 2144 -128 2720 362 2720 1010 
C 2720 1590 2330 1857 2074 2029 
L 1741 2264 
z
M 902 2822 
C 851 2854 595 3051 595 3351 
C 595 3739 998 4032 1459 4032 
C 1965 4032 2336 3676 2336 3262 
C 2336 2669 1670 2331 1638 2331 
C 1632 2331 1626 2331 1574 2370 
L 902 2822 
z
M 2080 1519 
C 2176 1449 2483 1240 2483 851 
C 2483 381 2010 25 1472 25 
C 890 25 448 438 448 940 
C 448 1443 838 1862 1280 2060 
L 2080 1519 
z
" transform="scale(0.015625)"/>
      </defs>
      <use xlink:href="#CMR17-6e" transform="scale(0.996264)"/>
      <use xlink:href="#CMR17-3d" transform="translate(50.89537 0) scale(0.996264)"/>
      <use xlink:href="#CMR17-38" transform="translate(122.610158 0) scale(0.996264)"/>
     </g>
    </g>
    <g id="line2d_44">
     <path d="M 444.243693 101.070493 
L 452.493693 101.070493 
L 460.743693 101.070493 
" style="fill: none; stroke-dasharray: 1.4,2.31; stroke-dashoffset: 0; stroke: #453f3f; stroke-width: 1.4"/>
     <g>
      <use xlink:href="#mc6cd58f017" x="452.493693" y="101.070493" style="fill: #453f3f"/>
     </g>
    </g>
    <g id="text_28">
     <!-- n=10 -->
     <g transform="translate(465.143693 104.920493) scale(0.11 -0.11)">
      <use xlink:href="#CMR17-6e" transform="scale(0.996264)"/>
      <use xlink:href="#CMR17-3d" transform="translate(50.89537 0) scale(0.996264)"/>
      <use xlink:href="#CMR17-31" transform="translate(122.610158 0) scale(0.996264)"/>
      <use xlink:href="#CMR17-30" transform="translate(168.300635 0) scale(0.996264)"/>
     </g>
    </g>
   </g>
  </g>
 </g>
 <defs>
  <clipPath id="pb0d3bfe530">
   <rect x="55.421448" y="11.88" width="195.151642" height="100.671498"/>
  </clipPath>
  <clipPath id="peba04f1fac">
   <rect x="301.063003" y="11.88" width="195.151642" height="100.671498"/>
  </clipPath>
 </defs>
</svg>
