<?xml version="1.0" encoding="utf-8" standalone="no"?>
<!DOCTYPE svg PUBLIC "-//W3C//DTD SVG 1.1//EN"
  "http://www.w3.org/Graphics/SVG/1.1/DTD/svg11.dtd">
<svg xmlns:xlink="http://www.w3.org/1999/xlink" width="508.094645pt" height="158.779577pt" viewBox="0 0 508.094645 158.779577" xmlns="http://www.w3.org/2000/svg" version="1.1">
 <metadata>
  <rdf:RDF xmlns:dc="http://purl.org/dc/elements/1.1/" xmlns:cc="http://creativecommons.org/ns#" xmlns:rdf="http://www.w3.org/1999/02/22-rdf-syntax-ns#">
   <cc:Work>
    <dc:type rdf:resource="http://purl.org/dc/dcmitype/StillImage"/>
    <dc:date>2024-04-12T10:06:16.270087</dc:date>
    <dc:format>image/svg+xml</dc:format>
    <dc:creator>
     <cc:Agent>
      <dc:title>Matplotlib v3.8.3, https://matplotlib.org/</dc:title>
     </cc:Agent>
    </dc:creator>
   </cc:Work>
  </rdf:RDF>
 </metadata>
 <defs>
  <style type="text/css">*{stroke-linejoin: round; stroke-linecap: butt}</style>
 </defs>
 <g id="figure_1">
  <g id="patch_1">
   <path d="M 0 158.779577 
L 508.094645 158.779577 
L 508.094645 0 
L 0 0 
z
" style="fill: #ffffff"/>
  </g>
  <g id="axes_1">
   <g id="patch_2">
    <path d="M 53.321448 114.651498 
L 250.57309 114.651498 
L 250.57309 11.88 
L 53.321448 11.88 
z
" style="fill: #ffffff"/>
   </g>
   <g id="matplotlib.axis_1">
    <g id="xtick_1">
     <g id="line2d_1">
      <defs>
       <path id="mcc5658ec5d" d="M 0 0 
L 0 3.5 
" style="stroke: #000000; stroke-width: 0.8"/>
      </defs>
      <g>
       <use xlink:href="#mcc5658ec5d" x="62.287431" y="114.651498" style="stroke: #000000; stroke-width: 0.8"/>
      </g>
     </g>
     <g id="text_1">
      <!-- $\mathdefault{−2}$ -->
      <g transform="translate(55.285893 129.261845) scale(0.11 -0.11)">
       <defs>
        <path id="CMSY10-0" d="M 4218 1472 
C 4326 1472 4442 1472 4442 1600 
C 4442 1728 4326 1728 4218 1728 
L 755 1728 
C 646 1728 531 1728 531 1600 
C 531 1472 646 1472 755 1472 
L 4218 1472 
z
" transform="scale(0.015625)"/>
        <path id="CMR17-32" d="M 2669 989 
L 2554 989 
C 2490 536 2438 459 2413 420 
C 2381 369 1920 369 1830 369 
L 602 369 
C 832 619 1280 1072 1824 1597 
C 2214 1967 2669 2402 2669 3035 
C 2669 3790 2067 4224 1395 4224 
C 691 4224 262 3604 262 3030 
C 262 2780 448 2748 525 2748 
C 589 2748 781 2787 781 3010 
C 781 3207 614 3264 525 3264 
C 486 3264 448 3258 422 3245 
C 544 3790 915 4058 1306 4058 
C 1862 4058 2227 3617 2227 3035 
C 2227 2479 1901 2000 1536 1584 
L 262 146 
L 262 0 
L 2515 0 
L 2669 989 
z
" transform="scale(0.015625)"/>
       </defs>
       <use xlink:href="#CMSY10-0" transform="scale(0.996264)"/>
       <use xlink:href="#CMR17-32" transform="translate(77.487468 0) scale(0.996264)"/>
      </g>
     </g>
    </g>
    <g id="xtick_2">
     <g id="line2d_2">
      <g>
       <use xlink:href="#mcc5658ec5d" x="107.11735" y="114.651498" style="stroke: #000000; stroke-width: 0.8"/>
      </g>
     </g>
     <g id="text_2">
      <!-- $\mathdefault{−1}$ -->
      <g transform="translate(100.115812 129.261845) scale(0.11 -0.11)">
       <defs>
        <path id="CMR17-31" d="M 1702 4058 
C 1702 4192 1696 4192 1606 4192 
C 1357 3916 979 3827 621 3827 
C 602 3827 570 3827 563 3808 
C 557 3795 557 3782 557 3648 
C 755 3648 1088 3686 1344 3839 
L 1344 461 
C 1344 236 1331 160 781 160 
L 589 160 
L 589 0 
C 896 0 1216 0 1523 0 
C 1830 0 2150 0 2458 0 
L 2458 160 
L 2266 160 
C 1715 160 1702 230 1702 458 
L 1702 4058 
z
" transform="scale(0.015625)"/>
       </defs>
       <use xlink:href="#CMSY10-0" transform="scale(0.996264)"/>
       <use xlink:href="#CMR17-31" transform="translate(77.487468 0) scale(0.996264)"/>
      </g>
     </g>
    </g>
    <g id="xtick_3">
     <g id="line2d_3">
      <g>
       <use xlink:href="#mcc5658ec5d" x="151.947269" y="114.651498" style="stroke: #000000; stroke-width: 0.8"/>
      </g>
     </g>
     <g id="text_3">
      <!-- $\mathdefault{0}$ -->
      <g transform="translate(149.207535 129.261845) scale(0.11 -0.11)">
       <defs>
        <path id="CMR17-30" d="M 2688 2025 
C 2688 2416 2682 3080 2413 3591 
C 2176 4039 1798 4198 1466 4198 
C 1158 4198 768 4058 525 3597 
C 269 3118 243 2524 243 2025 
C 243 1661 250 1106 448 619 
C 723 -39 1216 -128 1466 -128 
C 1760 -128 2208 -7 2470 600 
C 2662 1042 2688 1559 2688 2025 
z
M 1466 -26 
C 1056 -26 813 325 723 812 
C 653 1188 653 1738 653 2096 
C 653 2588 653 2997 736 3387 
C 858 3929 1216 4096 1466 4096 
C 1728 4096 2067 3923 2189 3400 
C 2272 3036 2278 2607 2278 2096 
C 2278 1680 2278 1169 2202 792 
C 2067 95 1690 -26 1466 -26 
z
" transform="scale(0.015625)"/>
       </defs>
       <use xlink:href="#CMR17-30" transform="scale(0.996264)"/>
      </g>
     </g>
    </g>
    <g id="xtick_4">
     <g id="line2d_4">
      <g>
       <use xlink:href="#mcc5658ec5d" x="196.777187" y="114.651498" style="stroke: #000000; stroke-width: 0.8"/>
      </g>
     </g>
     <g id="text_4">
      <!-- $\mathdefault{1}$ -->
      <g transform="translate(194.037454 129.261845) scale(0.11 -0.11)">
       <use xlink:href="#CMR17-31" transform="scale(0.996264)"/>
      </g>
     </g>
    </g>
    <g id="xtick_5">
     <g id="line2d_5">
      <g>
       <use xlink:href="#mcc5658ec5d" x="241.607106" y="114.651498" style="stroke: #000000; stroke-width: 0.8"/>
      </g>
     </g>
     <g id="text_5">
      <!-- $\mathdefault{2}$ -->
      <g transform="translate(238.867372 129.261845) scale(0.11 -0.11)">
       <use xlink:href="#CMR17-32" transform="scale(0.996264)"/>
      </g>
     </g>
    </g>
    <g id="text_6">
     <!-- Update Size, $\norm{\bm{\theta}}_{\infty}$ -->
     <g transform="translate(106.578104 143.611918) scale(0.11 -0.11)">
      <defs>
       <path id="CMR17-55" d="M 3456 1433 
C 3456 579 2899 38 2291 38 
C 1965 38 1670 210 1491 477 
C 1286 783 1261 1178 1261 1401 
L 1261 3874 
C 1261 4160 1331 4160 1773 4160 
L 1773 4320 
C 1587 4320 1248 4320 1050 4320 
C 851 4320 512 4320 326 4320 
L 326 4160 
C 768 4160 838 4160 838 3874 
L 838 1433 
C 838 516 1536 -128 2278 -128 
C 3110 -128 3590 719 3590 1344 
L 3590 3766 
C 3590 4122 3917 4160 4102 4160 
L 4102 4326 
C 3955 4320 3686 4320 3526 4320 
C 3366 4320 3091 4320 2944 4326 
L 2944 4160 
C 3456 4160 3456 3861 3456 3702 
L 3456 1433 
z
" transform="scale(0.015625)"/>
       <path id="CMR17-70" d="M 1408 -1063 
C 998 -1063 973 -1037 973 -789 
L 973 402 
C 1158 134 1427 -38 1766 -38 
C 2406 -38 3053 523 3053 1388 
C 3053 2191 2496 2802 1837 2802 
C 1453 2802 1139 2592 960 2338 
L 960 2802 
L 198 2732 
L 198 2567 
C 576 2567 634 2528 634 2223 
L 634 -789 
C 634 -1031 608 -1063 198 -1063 
L 198 -1228 
C 352 -1216 634 -1216 800 -1216 
C 966 -1216 1254 -1216 1408 -1228 
L 1408 -1063 
z
M 973 2012 
C 973 2102 973 2235 1222 2471 
C 1254 2497 1472 2688 1792 2688 
C 2259 2688 2643 2108 2643 1382 
C 2643 656 2234 64 1728 64 
C 1498 64 1248 172 1056 472 
C 973 612 973 650 973 752 
L 973 2012 
z
" transform="scale(0.015625)"/>
       <path id="CMR17-64" d="M 1869 4326 
L 1869 4160 
C 2246 4160 2304 4122 2304 3820 
L 2304 2345 
C 2278 2377 2016 2790 1498 2790 
C 845 2790 211 2208 211 1364 
C 211 525 806 -64 1434 -64 
C 1978 -64 2259 337 2291 380 
L 2291 -63 
L 3066 -63 
L 3066 128 
C 2688 128 2630 166 2630 473 
L 2630 4396 
L 1869 4326 
z
M 2291 755 
C 2291 563 2176 390 2029 262 
C 1811 70 1594 38 1472 38 
C 1286 38 621 134 621 1356 
C 621 2612 1363 2688 1530 2688 
C 1824 2688 2061 2522 2208 2291 
C 2291 2157 2291 2138 2291 2023 
L 2291 755 
z
" transform="scale(0.015625)"/>
       <path id="CMR17-61" d="M 2304 1653 
C 2304 2072 2304 2294 2035 2543 
C 1798 2752 1523 2816 1306 2816 
C 800 2816 435 2407 435 1971 
C 435 1728 627 1728 666 1728 
C 749 1728 896 1778 896 1954 
C 896 2112 774 2181 666 2181 
C 640 2181 608 2174 589 2168 
C 723 2592 1069 2714 1293 2714 
C 1613 2714 1965 2429 1965 1885 
L 1965 1600 
C 1587 1600 1133 1549 774 1357 
C 371 1133 256 813 256 570 
C 256 77 832 -64 1171 -64 
C 1523 -64 1850 139 1990 511 
C 2003 233 2182 -18 2464 -18 
C 2598 -18 2938 70 2938 567 
L 2938 920 
L 2822 920 
L 2822 562 
C 2822 178 2650 128 2566 128 
C 2304 128 2304 458 2304 738 
L 2304 1653 
z
M 1965 870 
C 1965 317 1568 38 1216 38 
C 896 38 646 275 646 570 
C 646 761 730 1100 1101 1305 
C 1408 1478 1760 1504 1965 1504 
L 1965 870 
z
" transform="scale(0.015625)"/>
       <path id="CMR17-74" d="M 966 2560 
L 1862 2560 
L 1862 2725 
L 966 2725 
L 966 3904 
L 851 3904 
C 838 3245 614 2668 70 2668 
L 70 2560 
L 627 2560 
L 627 771 
C 627 650 627 -64 1370 -64 
C 1747 -64 1965 306 1965 777 
L 1965 1140 
L 1850 1140 
L 1850 783 
C 1850 344 1677 51 1408 51 
C 1222 51 966 178 966 758 
L 966 2560 
z
" transform="scale(0.015625)"/>
       <path id="CMR17-65" d="M 2438 1472 
C 2464 1498 2464 1511 2464 1576 
C 2464 2238 2118 2816 1389 2816 
C 710 2816 173 2169 173 1383 
C 173 551 781 -64 1459 -64 
C 2176 -64 2458 607 2458 740 
C 2458 784 2419 784 2406 784 
C 2362 784 2355 771 2330 696 
C 2189 265 1837 51 1504 51 
C 1229 51 954 203 781 480 
C 582 803 582 1176 582 1472 
L 2438 1472 
z
M 589 1568 
C 634 2505 1126 2714 1382 2714 
C 1818 2714 2112 2297 2118 1568 
L 589 1568 
z
" transform="scale(0.015625)"/>
       <path id="CMR17-53" d="M 2803 4290 
C 2803 4404 2797 4411 2758 4411 
C 2720 4411 2707 4385 2682 4328 
L 2490 3907 
C 2246 4257 1875 4416 1472 4416 
C 819 4416 294 3901 294 3253 
C 294 3056 339 2776 557 2510 
C 794 2218 1018 2167 1530 2033 
C 1722 1982 2042 1899 2106 1874 
C 2470 1722 2662 1341 2662 985 
C 2662 527 2336 38 1779 38 
C 1094 38 454 419 410 1311 
C 403 1413 397 1419 352 1419 
C 301 1419 294 1413 294 1285 
L 294 -1 
C 294 -115 301 -122 339 -122 
C 384 -122 397 -90 486 108 
C 493 127 493 140 614 381 
C 934 -39 1472 -128 1779 -128 
C 2477 -128 2970 451 2970 1124 
C 2970 1454 2848 1708 2778 1823 
C 2509 2230 2221 2306 1914 2382 
C 1869 2402 1856 2402 1498 2490 
C 1152 2579 1005 2624 845 2796 
C 666 2992 602 3196 602 3399 
C 602 3812 934 4263 1478 4263 
C 2157 4263 2579 3786 2675 2993 
C 2694 2878 2701 2872 2746 2872 
C 2803 2872 2803 2891 2803 2999 
L 2803 4290 
z
" transform="scale(0.015625)"/>
       <path id="CMR17-69" d="M 992 3909 
C 992 4049 877 4170 730 4170 
C 589 4170 467 4056 467 3909 
C 467 3769 582 3648 730 3648 
C 870 3648 992 3763 992 3909 
z
M 243 2706 
L 243 2541 
C 602 2541 653 2502 653 2197 
L 653 427 
C 653 184 627 153 218 153 
L 218 -13 
C 371 0 646 0 806 0 
C 960 0 1222 0 1370 -13 
L 1370 153 
C 992 153 979 191 979 420 
L 979 2776 
L 243 2706 
z
" transform="scale(0.015625)"/>
       <path id="CMR17-7a" d="M 2310 2605 
C 2362 2670 2362 2682 2362 2695 
C 2362 2752 2336 2752 2221 2752 
L 275 2752 
L 211 1760 
L 326 1760 
C 371 2381 442 2650 1178 2650 
L 1958 2650 
L 128 96 
C 128 0 134 0 269 0 
L 2291 0 
L 2381 1152 
L 2266 1152 
C 2214 442 2131 115 1350 115 
L 531 115 
L 2310 2605 
z
" transform="scale(0.015625)"/>
       <path id="CMR17-2c" d="M 1011 102 
C 1024 45 1024 25 1024 -77 
C 1024 -463 896 -817 627 -1139 
C 595 -1170 595 -1183 595 -1197 
C 595 -1222 621 -1248 646 -1248 
C 685 -1248 1126 -799 1126 -87 
C 1126 124 1101 522 800 522 
C 659 522 538 427 538 261 
C 538 96 659 0 800 0 
C 877 0 960 32 1011 102 
z
" transform="scale(0.015625)"/>
       <path id="CMSY10-6b" d="M 1103 4582 
C 1103 4685 1103 4800 975 4800 
C 847 4800 847 4659 847 4563 
L 847 -1363 
C 847 -1466 847 -1600 975 -1600 
C 1103 -1600 1103 -1485 1103 -1382 
L 1103 4582 
z
M 2351 4563 
C 2351 4666 2351 4800 2223 4800 
C 2095 4800 2095 4685 2095 4582 
L 2095 -1382 
C 2095 -1485 2095 -1600 2223 -1600 
C 2351 -1600 2351 -1459 2351 -1363 
L 2351 4563 
z
" transform="scale(0.015625)"/>
       <path id="CMMIB10-12" d="M 3501 3123 
C 3501 4250 2835 4480 2445 4480 
C 1939 4480 1299 4148 819 3277 
C 493 2675 294 1805 294 1287 
C 294 359 781 -64 1357 -64 
C 1786 -64 2349 186 2790 839 
C 3328 1626 3501 2644 3501 3123 
z
M 1267 2353 
C 1357 2727 1523 3312 1715 3647 
C 1862 3910 2125 4251 2432 4251 
C 2701 4251 2816 3969 2816 3589 
C 2816 3183 2675 2623 2605 2353 
L 1267 2353 
z
M 2528 2048 
C 2131 338 1594 165 1370 165 
C 1280 165 1146 190 1056 389 
C 979 560 979 809 979 816 
C 979 1180 1120 1773 1190 2048 
L 2528 2048 
z
" transform="scale(0.015625)"/>
       <path id="CMSY10-31" d="M 3251 1730 
C 2906 2166 2829 2262 2630 2422 
C 2272 2710 1914 2825 1587 2825 
C 838 2825 352 2122 352 1374 
C 352 639 826 -70 1562 -70 
C 2298 -70 2829 511 3142 1022 
C 3488 588 3565 492 3763 332 
C 4122 45 4480 -70 4806 -70 
C 5555 -70 6042 633 6042 1380 
C 6042 2115 5568 2825 4832 2825 
C 4096 2825 3565 2242 3251 1730 
z
M 3418 1514 
C 3680 1975 4154 2620 4877 2620 
C 5555 2620 5901 1955 5901 1380 
C 5901 753 5472 236 4909 236 
C 4538 236 4250 505 4115 638 
C 3955 811 3808 1009 3418 1514 
z
M 2976 1240 
C 2714 780 2240 134 1517 134 
C 838 134 493 799 493 1374 
C 493 2000 922 2518 1485 2518 
C 1856 2518 2144 2249 2278 2115 
C 2438 1943 2586 1744 2976 1240 
z
" transform="scale(0.015625)"/>
      </defs>
      <use xlink:href="#CMR17-55" transform="scale(0.996264)"/>
      <use xlink:href="#CMR17-70" transform="translate(69.07243 0) scale(0.996264)"/>
      <use xlink:href="#CMR17-64" transform="translate(122.570238 0) scale(0.996264)"/>
      <use xlink:href="#CMR17-61" transform="translate(173.465608 0) scale(0.996264)"/>
      <use xlink:href="#CMR17-74" transform="translate(219.156085 0) scale(0.996264)"/>
      <use xlink:href="#CMR17-65" transform="translate(254.436853 0) scale(0.996264)"/>
      <use xlink:href="#CMR17-53" transform="translate(324.99848 0) scale(0.996264)"/>
      <use xlink:href="#CMR17-69" transform="translate(375.89385 0) scale(0.996264)"/>
      <use xlink:href="#CMR17-7a" transform="translate(400.764908 0) scale(0.996264)"/>
      <use xlink:href="#CMR17-65" transform="translate(441.250569 0) scale(0.996264)"/>
      <use xlink:href="#CMR17-2c" transform="translate(481.736229 0) scale(0.996264)"/>
      <use xlink:href="#CMSY10-6b" transform="translate(536.683254 0) scale(0.996264)"/>
      <use xlink:href="#CMMIB10-12" transform="translate(586.496637 0) scale(0.996264)"/>
      <use xlink:href="#CMSY10-6b" transform="translate(645.649524 0) scale(0.996264)"/>
      <use xlink:href="#CMSY10-31" transform="translate(695.462906 -28.393509) scale(0.697382)"/>
     </g>
    </g>
   </g>
   <g id="matplotlib.axis_2">
    <g id="ytick_1">
     <g id="line2d_6">
      <defs>
       <path id="m7cd0cb57c2" d="M 0 0 
L -3.5 0 
" style="stroke: #000000; stroke-width: 0.8"/>
      </defs>
      <g>
       <use xlink:href="#m7cd0cb57c2" x="53.321448" y="109.980066" style="stroke: #000000; stroke-width: 0.8"/>
      </g>
     </g>
     <g id="text_7">
      <!-- $\mathdefault{0.0}$ -->
      <g transform="translate(32.318371 113.78524) scale(0.11 -0.11)">
       <defs>
        <path id="CMMI12-3a" d="M 1178 307 
C 1178 492 1024 619 870 619 
C 685 619 557 466 557 313 
C 557 128 710 0 864 0 
C 1050 0 1178 153 1178 307 
z
" transform="scale(0.015625)"/>
       </defs>
       <use xlink:href="#CMR17-30" transform="scale(0.996264)"/>
       <use xlink:href="#CMMI12-3a" transform="translate(45.690477 0) scale(0.996264)"/>
       <use xlink:href="#CMR17-30" transform="translate(72.787654 0) scale(0.996264)"/>
      </g>
     </g>
    </g>
    <g id="ytick_2">
     <g id="line2d_7">
      <g>
       <use xlink:href="#m7cd0cb57c2" x="53.321448" y="63.262437" style="stroke: #000000; stroke-width: 0.8"/>
      </g>
     </g>
     <g id="text_8">
      <!-- $\mathdefault{0.5}$ -->
      <g transform="translate(32.318371 67.067611) scale(0.11 -0.11)">
       <defs>
        <path id="CMR17-35" d="M 730 3692 
C 794 3666 1056 3584 1325 3584 
C 1920 3584 2246 3911 2432 4100 
C 2432 4157 2432 4192 2394 4192 
C 2387 4192 2374 4192 2323 4163 
C 2099 4058 1837 3973 1517 3973 
C 1325 3973 1037 3999 723 4139 
C 653 4171 640 4171 634 4171 
C 602 4171 595 4164 595 4037 
L 595 2203 
C 595 2089 595 2057 659 2057 
C 691 2057 704 2070 736 2114 
C 941 2401 1222 2522 1542 2522 
C 1766 2522 2246 2382 2246 1289 
C 2246 1085 2246 715 2054 421 
C 1894 159 1645 25 1370 25 
C 947 25 518 320 403 814 
C 429 807 480 795 506 795 
C 589 795 749 840 749 1038 
C 749 1210 627 1280 506 1280 
C 358 1280 262 1190 262 1011 
C 262 454 704 -128 1382 -128 
C 2042 -128 2669 440 2669 1264 
C 2669 2030 2170 2624 1549 2624 
C 1222 2624 947 2503 730 2274 
L 730 3692 
z
" transform="scale(0.015625)"/>
       </defs>
       <use xlink:href="#CMR17-30" transform="scale(0.996264)"/>
       <use xlink:href="#CMMI12-3a" transform="translate(45.690477 0) scale(0.996264)"/>
       <use xlink:href="#CMR17-35" transform="translate(72.787654 0) scale(0.996264)"/>
      </g>
     </g>
    </g>
    <g id="ytick_3">
     <g id="line2d_8">
      <g>
       <use xlink:href="#m7cd0cb57c2" x="53.321448" y="16.544808" style="stroke: #000000; stroke-width: 0.8"/>
      </g>
     </g>
     <g id="text_9">
      <!-- $\mathdefault{1.0}$ -->
      <g transform="translate(32.318371 20.349982) scale(0.11 -0.11)">
       <use xlink:href="#CMR17-31" transform="scale(0.996264)"/>
       <use xlink:href="#CMMI12-3a" transform="translate(45.690477 0) scale(0.996264)"/>
       <use xlink:href="#CMR17-30" transform="translate(72.787654 0) scale(0.996264)"/>
      </g>
     </g>
    </g>
    <g id="text_10">
     <!-- Infidelity, $\mathcal{L}(\bm{\theta})$ -->
     <g transform="translate(25.578645 98.913412) rotate(-90) scale(0.11 -0.11)">
      <defs>
       <path id="CMR17-49" d="M 1261 3905 
C 1261 4192 1338 4192 1798 4192 
L 1798 4352 
C 1594 4352 1267 4352 1050 4352 
C 832 4352 506 4352 301 4352 
L 301 4192 
C 762 4192 838 4192 838 3905 
L 838 447 
C 838 160 762 160 301 160 
L 301 0 
C 506 0 832 0 1050 0 
C 1267 0 1594 0 1798 0 
L 1798 160 
C 1338 160 1261 160 1261 447 
L 1261 3905 
z
" transform="scale(0.015625)"/>
       <path id="CMR17-6e" d="M 2656 1933 
C 2656 2259 2592 2790 1837 2790 
C 1331 2790 1069 2400 973 2144 
L 966 2144 
L 966 2790 
L 211 2720 
L 211 2554 
C 589 2554 646 2515 646 2208 
L 646 428 
C 646 184 621 153 211 153 
L 211 -13 
C 365 0 646 0 813 0 
C 979 0 1267 0 1421 -13 
L 1421 153 
C 1011 153 986 178 986 428 
L 986 1658 
C 986 2247 1344 2688 1792 2688 
C 2266 2688 2317 2266 2317 1958 
L 2317 428 
C 2317 184 2291 153 1882 153 
L 1882 -13 
C 2035 0 2317 0 2483 0 
C 2650 0 2938 0 3091 -13 
L 3091 153 
C 2682 153 2656 178 2656 428 
L 2656 1933 
z
" transform="scale(0.015625)"/>
       <path id="CMR17-c" d="M 2554 2764 
C 2400 2764 1926 2764 1805 2739 
C 1766 2725 1754 2725 1677 2725 
L 947 2725 
L 947 3469 
C 947 4073 1434 4352 1818 4352 
C 1939 4352 2214 4320 2355 4101 
C 2291 4101 2086 4101 2086 3878 
C 2086 3725 2189 3648 2317 3648 
C 2432 3648 2547 3712 2547 3885 
C 2547 4205 2240 4454 1843 4454 
C 1338 4454 634 4168 634 3469 
L 634 2725 
L 122 2725 
L 122 2560 
L 634 2560 
L 634 427 
C 634 184 608 153 198 153 
L 198 -13 
C 352 0 634 0 794 0 
C 960 0 1242 0 1395 -13 
L 1395 153 
C 986 153 960 178 960 427 
L 960 2560 
L 1901 2560 
C 2176 2560 2227 2502 2227 2222 
L 2227 427 
C 2227 184 2202 153 1792 153 
L 1792 -13 
C 1946 0 2227 0 2387 0 
C 2554 0 2835 0 2989 -13 
L 2989 153 
C 2579 153 2554 178 2554 427 
L 2554 2764 
z
" transform="scale(0.015625)"/>
       <path id="CMR17-6c" d="M 979 4396 
L 218 4326 
L 218 4160 
C 595 4160 653 4122 653 3817 
L 653 426 
C 653 184 627 153 218 153 
L 218 -13 
C 371 0 653 0 813 0 
C 979 0 1261 0 1414 -13 
L 1414 153 
C 1005 153 979 178 979 426 
L 979 4396 
z
" transform="scale(0.015625)"/>
       <path id="CMR17-79" d="M 2496 2197 
C 2656 2586 2944 2586 3034 2586 
L 3034 2752 
C 2912 2752 2752 2752 2630 2752 
C 2496 2752 2285 2752 2157 2758 
L 2157 2592 
C 2400 2573 2406 2394 2406 2343 
C 2406 2280 2394 2248 2362 2171 
L 1664 449 
L 902 2306 
C 870 2382 870 2426 870 2433 
C 870 2573 1018 2586 1171 2586 
L 1171 2758 
C 1018 2752 742 2752 582 2752 
C 410 2752 205 2752 64 2758 
L 64 2586 
C 410 2586 448 2554 531 2350 
L 1485 15 
C 1197 -738 1030 -1178 627 -1178 
C 557 -1178 397 -1159 282 -1044 
C 429 -1031 493 -942 493 -833 
C 493 -725 416 -629 288 -629 
C 147 -629 77 -725 77 -840 
C 77 -1095 339 -1280 627 -1280 
C 998 -1280 1229 -922 1357 -604 
L 2496 2197 
z
" transform="scale(0.015625)"/>
       <path id="CMSY10-4c" d="M 1152 610 
C 1498 1151 1606 1562 1690 1903 
C 1914 2790 2157 3562 2554 4005 
C 2630 4090 2682 4147 2886 4147 
C 3328 4147 3341 3704 3341 3613 
C 3341 3498 3309 3407 3309 3375 
C 3309 3330 3347 3330 3354 3330 
C 3456 3330 3629 3401 3789 3517 
C 3904 3607 3962 3671 3962 3934 
C 3962 4281 3782 4544 3424 4544 
C 3219 4544 2656 4493 2029 3856 
C 1517 3329 1216 2172 1094 1690 
C 979 1248 928 1048 736 662 
C 691 586 525 303 435 219 
C 262 59 198 -57 198 -89 
C 198 -102 211 -128 256 -128 
C 282 -128 416 -102 582 5 
C 691 68 704 80 851 231 
C 1171 231 1395 173 1798 58 
C 2125 -32 2451 -128 2778 -128 
C 3296 -128 3821 264 4026 546 
C 4154 719 4192 880 4192 899 
C 4192 944 4154 944 4147 944 
C 4045 944 3891 874 3782 796 
C 3610 687 3597 649 3558 539 
C 3526 436 3488 385 3462 346 
C 3411 269 3405 269 3309 269 
C 3002 269 2682 366 2259 481 
C 2080 532 1728 636 1408 636 
C 1325 636 1235 629 1152 610 
z
" transform="scale(0.015625)"/>
       <path id="CMR17-28" d="M 1958 -1561 
C 1958 -1555 1958 -1542 1939 -1523 
C 1645 -1224 858 -407 858 1581 
C 858 3569 1632 4379 1946 4697 
C 1946 4704 1958 4717 1958 4736 
C 1958 4755 1939 4768 1914 4768 
C 1843 4768 1299 4296 986 3594 
C 666 2887 576 2199 576 1588 
C 576 1128 621 351 1005 -471 
C 1312 -1135 1837 -1600 1914 -1600 
C 1946 -1600 1958 -1587 1958 -1561 
z
" transform="scale(0.015625)"/>
       <path id="CMR17-29" d="M 1683 1581 
C 1683 2040 1638 2817 1254 3639 
C 947 4303 422 4768 346 4768 
C 326 4768 301 4761 301 4729 
C 301 4717 307 4710 314 4697 
C 621 4378 1402 3568 1402 1584 
C 1402 -407 627 -1217 314 -1537 
C 307 -1549 301 -1556 301 -1568 
C 301 -1600 326 -1600 346 -1600 
C 416 -1600 960 -1128 1274 -426 
C 1594 281 1683 969 1683 1581 
z
" transform="scale(0.015625)"/>
      </defs>
      <use xlink:href="#CMR17-49" transform="scale(0.996264)"/>
      <use xlink:href="#CMR17-6e" transform="translate(32.638409 0) scale(0.996264)"/>
      <use xlink:href="#CMR17-c" transform="translate(83.533779 0) scale(0.996264)"/>
      <use xlink:href="#CMR17-64" transform="translate(133.276002 0) scale(0.996264)"/>
      <use xlink:href="#CMR17-65" transform="translate(184.171372 0) scale(0.996264)"/>
      <use xlink:href="#CMR17-6c" transform="translate(224.657033 0) scale(0.996264)"/>
      <use xlink:href="#CMR17-69" transform="translate(249.528091 0) scale(0.996264)"/>
      <use xlink:href="#CMR17-74" transform="translate(274.39915 0) scale(0.996264)"/>
      <use xlink:href="#CMR17-79" transform="translate(307.077463 0) scale(0.996264)"/>
      <use xlink:href="#CMR17-2c" transform="translate(347.563124 0) scale(0.996264)"/>
      <use xlink:href="#CMSY10-4c" transform="translate(402.510149 0) scale(0.996264)"/>
      <use xlink:href="#CMR17-28" transform="translate(471.224957 0) scale(0.996264)"/>
      <use xlink:href="#CMMIB10-12" transform="translate(506.505724 0) scale(0.996264)"/>
      <use xlink:href="#CMR17-29" transform="translate(565.658611 0) scale(0.996264)"/>
     </g>
    </g>
   </g>
   <g id="line2d_9">
    <path d="M 62.287431 16.581662 
L 98.151366 16.6279 
L 103.530956 16.733876 
L 106.400071 16.992652 
L 108.551907 17.389963 
L 110.345104 17.928215 
L 112.138301 18.72602 
L 113.572858 19.602577 
L 115.007416 20.736927 
L 116.441973 22.172839 
L 117.87653 23.953215 
L 119.311088 26.117512 
L 120.745645 28.698679 
L 122.180203 31.719801 
L 123.61476 35.190725 
L 125.407957 40.150411 
L 127.201154 45.748086 
L 129.35299 53.16242 
L 132.939383 66.509869 
L 136.884416 81.034175 
L 139.036252 88.211445 
L 140.829449 93.56305 
L 142.622646 98.244545 
L 144.057203 101.467017 
L 145.49176 104.202173 
L 146.926318 106.433008 
L 148.002236 107.764651 
L 149.078154 108.794044 
L 150.154072 109.511029 
L 151.22999 109.904088 
L 151.947269 109.980066 
L 152.664547 109.902864 
L 153.381826 109.668909 
L 154.457744 109.017065 
L 155.533662 107.996561 
L 156.60958 106.602523 
L 157.685498 104.835255 
L 158.761416 102.701351 
L 160.195974 99.310517 
L 161.630531 95.346064 
L 163.423728 89.70137 
L 165.575564 82.173424 
L 173.824269 52.376867 
L 175.976105 45.834376 
L 177.769302 41.018287 
L 179.562499 36.794352 
L 181.355695 33.142623 
L 183.148892 30.02281 
L 184.942089 27.383998 
L 186.735285 25.172142 
L 188.528482 23.334911 
L 190.321679 21.824088 
L 192.114876 20.596171 
L 193.908072 19.611921 
L 196.059909 18.702307 
L 198.211745 18.035705 
L 200.72222 17.497065 
L 203.591335 17.110097 
L 207.536368 16.827359 
L 213.633237 16.656753 
L 227.261532 16.56001 
L 241.607106 16.551432 
L 241.607106 16.551432 
" clip-path="url(#pd85db1c1ea)" style="fill: none; stroke-dasharray: 6.4,1.6,1,1.6; stroke-dashoffset: 0; stroke: #4b2362"/>
   </g>
   <g id="line2d_10">
    <path d="M 62.287431 16.579808 
L 105.682793 16.850791 
L 108.193268 17.202171 
L 109.986465 17.641986 
L 111.779662 18.308001 
L 113.214219 19.05183 
L 114.648776 20.027002 
L 116.083334 21.275957 
L 117.517891 22.841191 
L 118.952448 24.762965 
L 120.387006 27.076554 
L 121.821563 29.809156 
L 123.256121 32.976686 
L 125.049317 37.548622 
L 126.842514 42.76744 
L 128.99435 49.770385 
L 131.863465 59.993598 
L 137.960334 82.028968 
L 140.11217 88.935234 
L 141.905367 94.081722 
L 143.698564 98.594435 
L 145.133121 101.71309 
L 146.567678 104.371192 
L 148.002236 106.54659 
L 149.078154 107.845947 
L 150.154072 108.84636 
L 151.22999 109.533218 
L 152.305908 109.890715 
L 153.023187 109.938081 
L 153.740465 109.827248 
L 154.457744 109.553936 
L 155.533662 108.831319 
L 156.60958 107.725531 
L 157.685498 106.232381 
L 158.761416 104.354074 
L 160.195974 101.268164 
L 161.630531 97.559933 
L 163.423728 92.157326 
L 165.575564 84.796553 
L 168.803318 72.776752 
L 172.748351 58.2443 
L 174.900187 51.050025 
L 177.052023 44.624969 
L 178.84522 39.917358 
L 180.638417 35.80192 
L 182.431613 32.253124 
L 184.22481 29.228239 
L 186.018007 26.676303 
L 187.811204 24.544593 
L 189.6044 22.782474 
L 191.397597 21.343057 
L 193.190794 20.183396 
L 194.983991 19.263991 
L 197.135827 18.426443 
L 199.287663 17.823791 
L 201.798138 17.347376 
L 205.025892 16.984014 
L 209.329564 16.751759 
L 216.860991 16.614705 
L 235.510237 16.554464 
L 241.607106 16.552671 
L 241.607106 16.552671 
" clip-path="url(#pd85db1c1ea)" style="fill: none; stroke: #582766; stroke-opacity: 0.5; stroke-linecap: square"/>
   </g>
   <g id="line2d_11">
    <path d="M 62.287431 16.641534 
L 89.185383 16.922361 
L 102.096399 16.899133 
L 104.606875 17.156237 
L 106.758711 17.601331 
L 108.551907 18.197816 
L 110.345104 19.060256 
L 111.779662 19.982378 
L 113.214219 21.145083 
L 114.648776 22.579414 
L 116.083334 24.314687 
L 117.517891 26.37706 
L 118.952448 28.787837 
L 120.745645 32.312587 
L 122.538842 36.412346 
L 124.332039 41.068537 
L 126.483875 47.317833 
L 128.99435 55.326851 
L 137.960334 84.754839 
L 140.11217 90.72106 
L 141.905367 95.123223 
L 143.698564 98.972326 
L 145.49176 102.257242 
L 146.926318 104.477192 
L 148.360875 106.331661 
L 149.795433 107.812685 
L 150.871351 108.669432 
L 151.947269 109.298156 
L 153.023187 109.687052 
L 154.099105 109.82254 
L 155.175023 109.690097 
L 156.250941 109.275306 
L 157.326859 108.565047 
L 158.402777 107.548727 
L 159.478695 106.219461 
L 160.554613 104.575119 
L 161.98917 101.899366 
L 163.423728 98.695436 
L 165.216925 94.017985 
L 167.368761 87.592245 
L 170.237875 78.121686 
L 175.976105 58.863752 
L 178.48658 51.300547 
L 180.638417 45.506728 
L 182.790253 40.403212 
L 184.583449 36.674948 
L 186.376646 33.400398 
L 188.169843 30.547179 
L 189.96304 28.078831 
L 191.756236 25.958718 
L 193.549433 24.152125 
L 195.34263 22.626936 
L 197.135827 21.353418 
L 199.287663 20.118111 
L 201.439499 19.15885 
L 203.591335 18.431259 
L 206.10181 17.818848 
L 208.970925 17.355427 
L 212.557319 17.016445 
L 217.57827 16.789534 
L 227.261532 16.626145 
L 241.607106 16.556628 
L 241.607106 16.556628 
" clip-path="url(#pd85db1c1ea)" style="fill: none; stroke: #672a6b; stroke-opacity: 0.5; stroke-linecap: square"/>
   </g>
   <g id="line2d_12">
    <path d="M 62.287431 16.71934 
L 76.633005 17.144399 
L 86.674907 17.374581 
L 92.413137 17.273047 
L 99.585924 17.109698 
L 102.096399 17.283908 
L 104.248235 17.66135 
L 106.041432 18.199209 
L 107.834629 18.992619 
L 109.269186 19.84432 
L 110.703743 20.915274 
L 112.138301 22.228535 
L 113.572858 23.805364 
L 115.007416 25.664588 
L 116.800612 28.409101 
L 118.593809 31.639778 
L 120.387006 35.363597 
L 122.180203 39.569768 
L 124.332039 45.206968 
L 126.842514 52.464072 
L 130.428908 63.616616 
L 135.091219 78.05754 
L 137.601695 85.129906 
L 139.753531 90.551498 
L 141.546727 94.551821 
L 143.339924 98.062643 
L 145.133121 101.089406 
L 146.926318 103.649771 
L 148.719514 105.7623 
L 150.154072 107.136238 
L 151.588629 108.225732 
L 153.023187 109.018141 
L 154.099105 109.404802 
L 155.175023 109.600373 
L 156.250941 109.591083 
L 157.326859 109.362196 
L 158.402777 108.898985 
L 159.478695 108.187775 
L 160.554613 107.217006 
L 161.630531 105.978235 
L 163.065088 103.902628 
L 164.499646 101.34588 
L 165.934203 98.327211 
L 167.7274 93.96088 
L 169.879236 87.994209 
L 172.748351 79.201995 
L 179.562499 57.942433 
L 182.072974 51.00857 
L 184.22481 45.6893 
L 186.376646 40.979409 
L 188.528482 36.865481 
L 190.680318 33.306969 
L 192.832154 30.250566 
L 194.983991 27.640999 
L 197.135827 25.427375 
L 199.287663 23.565465 
L 201.439499 22.017133 
L 203.591335 20.74836 
L 205.743171 19.727132 
L 208.253646 18.806606 
L 210.764122 18.130422 
L 213.633237 17.594528 
L 216.860991 17.213668 
L 221.164663 16.938433 
L 227.978811 16.754289 
L 241.607106 16.596851 
L 241.607106 16.596851 
" clip-path="url(#pd85db1c1ea)" style="fill: none; stroke: #762d6f; stroke-opacity: 0.5; stroke-linecap: square"/>
   </g>
   <g id="line2d_13">
    <path d="M 62.287431 16.768916 
L 70.894776 17.115511 
L 84.88171 17.757236 
L 89.544022 17.66908 
L 98.510006 17.358908 
L 100.661842 17.531811 
L 102.813678 17.938952 
L 104.606875 18.511881 
L 106.400071 19.34271 
L 108.193268 20.471216 
L 109.627825 21.61262 
L 111.421022 23.364272 
L 113.214219 25.501836 
L 115.007416 28.046209 
L 116.800612 31.01102 
L 118.593809 34.400899 
L 120.745645 39.019562 
L 122.897481 44.201855 
L 125.407957 50.861395 
L 128.635711 60.107389 
L 135.091219 78.795864 
L 137.601695 85.319209 
L 139.753531 90.316127 
L 141.546727 94.005835 
L 143.339924 97.251286 
L 145.133121 100.063573 
L 146.926318 102.468687 
L 148.719514 104.498089 
L 150.512711 106.178449 
L 152.305908 107.522343 
L 153.740465 108.350484 
L 155.175023 108.943424 
L 156.60958 109.27679 
L 157.685498 109.33743 
L 158.761416 109.218698 
L 159.837334 108.904401 
L 160.913252 108.378554 
L 161.98917 107.626355 
L 163.065088 106.635163 
L 164.141006 105.395406 
L 165.575564 103.346506 
L 167.010121 100.845167 
L 168.444679 97.906254 
L 170.237875 93.666056 
L 172.389712 87.875032 
L 174.900187 80.430362 
L 182.431613 57.548394 
L 184.942089 50.865899 
L 187.093925 45.767686 
L 189.245761 41.277741 
L 191.397597 37.373834 
L 193.549433 34.003941 
L 195.701269 31.102079 
L 197.853105 28.601435 
L 200.004941 26.443189 
L 202.156778 24.580664 
L 204.308614 22.979469 
L 206.819089 21.409156 
L 209.329564 20.131697 
L 211.84004 19.120801 
L 214.350515 18.348107 
L 217.21963 17.714938 
L 220.447384 17.257233 
L 224.392417 16.956673 
L 229.772007 16.804106 
L 241.607106 16.730987 
L 241.607106 16.730987 
" clip-path="url(#pd85db1c1ea)" style="fill: none; stroke: #863071; stroke-opacity: 0.5; stroke-linecap: square"/>
   </g>
   <g id="line2d_14">
    <path d="M 62.287431 16.821549 
L 70.894776 17.194594 
L 82.371235 17.709928 
L 87.392186 17.671632 
L 96.35817 17.495096 
L 98.868645 17.71719 
L 101.020481 18.135769 
L 102.813678 18.695638 
L 104.606875 19.486299 
L 106.400071 20.541143 
L 108.193268 21.889484 
L 109.986465 23.555904 
L 111.779662 25.559916 
L 113.572858 27.915788 
L 115.366055 30.632305 
L 117.159252 33.712252 
L 119.311088 37.881468 
L 121.462924 42.544097 
L 123.973399 48.54566 
L 126.842514 55.99782 
L 137.243055 83.682113 
L 139.394891 88.522907 
L 141.546727 92.80498 
L 143.339924 95.921719 
L 145.133121 98.63359 
L 146.926318 100.965817 
L 148.719514 102.955325 
L 150.512711 104.641655 
L 152.305908 106.057128 
L 154.099105 107.217776 
L 155.892301 108.116563 
L 157.326859 108.625536 
L 158.761416 108.917199 
L 160.195974 108.953931 
L 161.271892 108.788089 
L 162.34781 108.434945 
L 163.423728 107.875305 
L 164.499646 107.091257 
L 165.575564 106.067209 
L 166.651482 104.790864 
L 168.086039 102.683255 
L 169.520597 100.107711 
L 170.955154 97.076065 
L 172.748351 92.692376 
L 174.900187 86.692827 
L 177.410662 78.974737 
L 184.22481 57.573536 
L 186.376646 51.617579 
L 188.528482 46.327979 
L 190.321679 42.465672 
L 192.114876 39.091081 
L 193.908072 36.168213 
L 195.701269 33.643146 
L 197.494466 31.453103 
L 199.646302 29.178613 
L 202.156778 26.892739 
L 204.667253 24.897725 
L 207.536368 22.896126 
L 210.405483 21.167841 
L 212.915958 19.89015 
L 215.426433 18.846087 
L 217.936909 18.039926 
L 220.447384 17.459837 
L 223.316499 17.037717 
L 226.544253 16.800001 
L 230.847925 16.726668 
L 241.607106 16.87592 
L 241.607106 16.87592 
" clip-path="url(#pd85db1c1ea)" style="fill: none; stroke: #943470; stroke-opacity: 0.5; stroke-linecap: square"/>
   </g>
   <g id="line2d_15">
    <path d="M 62.287431 16.921699 
L 94.923612 17.726083 
L 97.792727 18.132466 
L 99.944563 18.643241 
L 102.096399 19.387028 
L 103.889596 20.221498 
L 105.682793 21.2807 
L 107.475989 22.589557 
L 109.269186 24.169418 
L 111.062383 26.037517 
L 112.85558 28.206689 
L 114.648776 30.685255 
L 116.800612 34.072816 
L 118.952448 37.908021 
L 121.104285 42.176208 
L 123.61476 47.66328 
L 126.483875 54.505239 
L 130.428908 64.570162 
L 135.808498 78.314051 
L 138.318973 84.192135 
L 140.470809 88.745671 
L 142.622646 92.762812 
L 144.415842 95.673021 
L 146.209039 98.190126 
L 148.002236 100.341375 
L 149.795433 102.17005 
L 151.947269 104.00976 
L 154.099105 105.536395 
L 156.250941 106.794295 
L 158.044138 107.630223 
L 159.837334 108.228304 
L 161.271892 108.485027 
L 162.706449 108.489043 
L 163.782367 108.290582 
L 164.858285 107.890186 
L 165.934203 107.261844 
L 167.010121 106.381279 
L 168.086039 105.22731 
L 169.161957 103.783149 
L 170.237875 102.037573 
L 171.672433 99.234183 
L 173.10699 95.896527 
L 174.900187 91.026301 
L 176.693384 85.492448 
L 179.203859 76.957227 
L 185.300728 55.780409 
L 187.452564 49.276429 
L 189.245761 44.535923 
L 191.038958 40.472307 
L 192.473515 37.708295 
L 193.908072 35.351729 
L 195.34263 33.361813 
L 196.777187 31.686303 
L 198.570384 29.944693 
L 200.72222 28.220162 
L 203.591335 26.257602 
L 210.764122 21.732493 
L 213.991876 19.878853 
L 216.502351 18.668118 
L 218.654188 17.849032 
L 220.806024 17.249957 
L 222.95786 16.861535 
L 225.468335 16.633248 
L 228.696089 16.587577 
L 235.151598 16.805749 
L 241.607106 16.986253 
L 241.607106 16.986253 
" clip-path="url(#pd85db1c1ea)" style="fill: none; stroke: #a3386f; stroke-opacity: 0.5; stroke-linecap: square"/>
   </g>
   <g id="line2d_16">
    <path d="M 62.287431 17.200937 
L 71.253415 17.281359 
L 78.426202 17.576964 
L 86.674907 18.14818 
L 92.413137 18.732866 
L 96.35817 19.346773 
L 99.227284 19.995588 
L 101.73776 20.772515 
L 103.889596 21.64421 
L 106.041432 22.75198 
L 108.193268 24.140632 
L 109.986465 25.543581 
L 111.779662 27.194162 
L 113.572858 29.111725 
L 115.366055 31.31153 
L 117.517891 34.338399 
L 119.669727 37.795217 
L 121.821563 41.67914 
L 124.332039 46.728721 
L 126.842514 52.287277 
L 130.070268 60.039126 
L 140.11217 84.765773 
L 142.264006 89.22455 
L 144.057203 92.498677 
L 145.8504 95.335268 
L 147.643596 97.733391 
L 149.436793 99.724361 
L 151.22999 101.367243 
L 153.381826 102.987996 
L 155.892301 104.565757 
L 159.120056 106.306075 
L 161.271892 107.261135 
L 163.065088 107.811727 
L 164.499646 107.987626 
L 165.575564 107.904702 
L 166.651482 107.590416 
L 167.7274 107.001851 
L 168.803318 106.098153 
L 169.879236 104.842915 
L 170.955154 103.206501 
L 172.031072 101.168172 
L 173.10699 98.717881 
L 174.541548 94.815305 
L 175.976105 90.22584 
L 177.769302 83.650576 
L 179.921138 74.857955 
L 185.659367 50.770654 
L 187.452564 44.308435 
L 188.887122 39.810967 
L 190.321679 35.982543 
L 191.756236 32.843467 
L 192.832154 30.930141 
L 193.908072 29.370362 
L 194.983991 28.131192 
L 196.059909 27.171855 
L 197.494466 26.247734 
L 198.929023 25.622376 
L 201.080859 24.996045 
L 204.667253 24.017408 
L 206.819089 23.165741 
L 208.970925 22.067633 
L 216.860991 17.733959 
L 218.654188 17.132818 
L 220.447384 16.757041 
L 222.240581 16.590501 
L 224.392417 16.608577 
L 227.978811 16.913305 
L 232.282483 17.231255 
L 235.510237 17.245877 
L 241.607106 16.995191 
L 241.607106 16.995191 
" clip-path="url(#pd85db1c1ea)" style="fill: none; stroke-dasharray: 6.4,1.6,1,1.6; stroke-dashoffset: 0; stroke: #b23c6c"/>
   </g>
   <g id="line2d_17">
    <path d="M 62.287431 17.851837 
L 64.797907 18.190106 
L 67.667022 18.823835 
L 78.067563 21.393736 
L 84.164432 22.772694 
L 88.468104 23.730504 
L 90.61994 23.981088 
L 92.413137 23.984605 
L 94.206333 23.783423 
L 96.35817 23.317532 
L 100.661842 22.278812 
L 102.096399 22.142621 
L 103.530956 22.214499 
L 104.965514 22.532109 
L 106.400071 23.107304 
L 107.834629 23.923508 
L 109.627825 25.214223 
L 116.441973 30.472411 
L 118.23517 31.392194 
L 120.028367 32.056949 
L 125.766596 33.844216 
L 127.201154 34.699487 
L 128.277072 35.580334 
L 129.35299 36.712184 
L 130.428908 38.131515 
L 131.504826 39.868887 
L 132.580744 41.947491 
L 134.015301 45.273072 
L 135.449859 49.234178 
L 136.884416 53.79661 
L 138.677613 60.222321 
L 141.546727 71.528067 
L 144.415842 82.700024 
L 146.209039 88.80364 
L 147.643596 92.869322 
L 148.719514 95.344822 
L 149.795433 97.291623 
L 150.871351 98.706834 
L 151.588629 99.367103 
L 152.305908 99.817891 
L 153.023187 100.080106 
L 154.099105 100.177693 
L 155.175023 100.014557 
L 159.120056 99.106904 
L 160.195974 99.251767 
L 161.271892 99.700318 
L 162.34781 100.466079 
L 163.423728 101.5195 
L 165.216925 103.696315 
L 167.010121 105.871864 
L 168.086039 106.851424 
L 168.803318 107.253584 
L 169.520597 107.391036 
L 170.237875 107.212265 
L 170.955154 106.67081 
L 171.672433 105.727049 
L 172.389712 104.349778 
L 173.10699 102.517561 
L 174.182908 98.896115 
L 175.258826 94.24294 
L 176.334744 88.630858 
L 177.769302 79.888512 
L 179.921138 65.022693 
L 183.148892 42.638884 
L 184.583449 34.13537 
L 185.659367 28.743302 
L 186.735285 24.330557 
L 187.811204 20.957858 
L 188.528482 19.291311 
L 189.245761 18.077306 
L 189.96304 17.293432 
L 190.680318 16.908411 
L 191.397597 16.883394 
L 192.114876 17.173445 
L 192.832154 17.729134 
L 193.908072 18.946031 
L 195.34263 21.004934 
L 197.853105 24.708189 
L 198.929023 25.986802 
L 200.004941 26.948196 
L 201.080859 27.54554 
L 201.798138 27.733195 
L 202.515417 27.755191 
L 203.232696 27.619744 
L 204.308614 27.14983 
L 205.384532 26.411029 
L 206.819089 25.124969 
L 212.198679 19.848575 
L 213.633237 18.860346 
L 215.067794 18.156637 
L 216.502351 17.734867 
L 217.936909 17.568714 
L 219.371466 17.6175 
L 221.164663 17.909804 
L 223.675138 18.59528 
L 233.71704 21.672596 
L 236.586155 22.204462 
L 239.813909 22.58104 
L 241.607106 22.72053 
L 241.607106 22.72053 
" clip-path="url(#pd85db1c1ea)" style="fill: none; stroke-dasharray: 6.4,1.6,1,1.6; stroke-dashoffset: 0; stroke: #c14168"/>
   </g>
   <g id="line2d_18">
    <path d="M 62.287431 17.362674 
L 65.156546 17.68137 
L 68.3843 18.262824 
L 76.633005 19.870515 
L 89.185383 21.618591 
L 92.054497 21.854788 
L 94.564973 21.827034 
L 97.792727 21.51786 
L 101.020481 21.247315 
L 102.813678 21.31575 
L 104.248235 21.557989 
L 105.682793 21.995323 
L 107.11735 22.632389 
L 108.910547 23.680074 
L 111.421022 25.459878 
L 115.007416 28.03008 
L 116.800612 29.079362 
L 118.593809 29.892738 
L 120.745645 30.587931 
L 125.407957 31.925977 
L 126.842514 32.652879 
L 127.918432 33.406677 
L 128.99435 34.385597 
L 130.070268 35.627671 
L 131.146186 37.166009 
L 132.222104 39.02735 
L 133.656662 42.042965 
L 135.091219 45.683802 
L 136.525777 49.932861 
L 138.318973 56.007396 
L 140.829449 65.53164 
L 144.774482 80.74639 
L 146.567678 86.714465 
L 148.002236 90.682821 
L 149.078154 93.098569 
L 150.154072 95.002008 
L 151.22999 96.394648 
L 152.305908 97.307515 
L 153.023187 97.677953 
L 154.099105 97.936749 
L 155.175023 97.929046 
L 159.120056 97.493795 
L 160.195974 97.738479 
L 161.271892 98.277618 
L 162.34781 99.128018 
L 163.423728 100.263781 
L 165.216925 102.582357 
L 167.010121 104.916641 
L 168.086039 106.002847 
L 168.803318 106.481139 
L 169.520597 106.69857 
L 170.237875 106.603274 
L 170.955154 106.148294 
L 171.672433 105.293382 
L 172.389712 104.006618 
L 173.10699 102.265776 
L 173.824269 100.059399 
L 174.900187 95.880264 
L 175.976105 90.706566 
L 177.410662 82.456569 
L 179.203859 70.559141 
L 183.507531 41.023436 
L 184.942089 32.840476 
L 186.018007 27.706507 
L 187.093925 23.545421 
L 188.169843 20.398878 
L 188.887122 18.860416 
L 189.6044 17.751328 
L 190.321679 17.045844 
L 191.038958 16.710298 
L 191.756236 16.70451 
L 192.473515 16.983301 
L 193.190794 17.498076 
L 194.266712 18.602346 
L 196.059909 20.914014 
L 198.211745 23.617533 
L 199.287663 24.672356 
L 200.363581 25.432229 
L 201.439499 25.863535 
L 202.515417 25.961753 
L 203.591335 25.747467 
L 204.667253 25.261094 
L 206.10181 24.284468 
L 208.253646 22.41941 
L 211.122761 19.92179 
L 212.915958 18.686908 
L 214.350515 17.965896 
L 215.785073 17.494007 
L 217.21963 17.255429 
L 218.654188 17.217833 
L 220.447384 17.391204 
L 222.95786 17.900417 
L 233.358401 20.362018 
L 236.586155 20.769543 
L 240.172549 20.987083 
L 241.607106 21.022551 
L 241.607106 21.022551 
" clip-path="url(#pd85db1c1ea)" style="fill: none; stroke: #cf4862; stroke-opacity: 0.5; stroke-linecap: square"/>
   </g>
   <g id="line2d_19">
    <path d="M 62.287431 16.963455 
L 65.873825 17.26299 
L 69.818858 17.835185 
L 77.350284 19.018395 
L 82.012596 19.438731 
L 95.640891 20.36052 
L 102.096399 20.438522 
L 103.889596 20.715119 
L 105.682793 21.216361 
L 107.475989 21.963475 
L 109.627825 23.151521 
L 113.214219 25.502606 
L 115.724694 27.050015 
L 117.87653 28.105799 
L 120.028367 28.866266 
L 123.256121 29.674489 
L 125.407957 30.325839 
L 126.842514 30.991343 
L 128.277072 31.958292 
L 129.35299 32.939283 
L 130.428908 34.180643 
L 131.504826 35.714198 
L 132.580744 37.56545 
L 134.015301 40.557363 
L 135.449859 44.160617 
L 136.884416 48.356495 
L 138.677613 54.341604 
L 141.188088 63.701111 
L 145.133121 78.603842 
L 146.926318 84.436212 
L 148.360875 88.312988 
L 149.436793 90.675565 
L 150.512711 92.543188 
L 151.588629 93.920864 
L 152.664547 94.842777 
L 153.740465 95.371244 
L 154.816383 95.593233 
L 156.250941 95.59692 
L 158.402777 95.538094 
L 159.478695 95.717492 
L 160.554613 96.149496 
L 161.630531 96.880839 
L 162.706449 97.918833 
L 164.141006 99.711026 
L 167.7274 104.634213 
L 168.803318 105.576412 
L 169.520597 105.8964 
L 170.237875 105.908089 
L 170.955154 105.563635 
L 171.672433 104.821775 
L 172.389712 103.64948 
L 173.10699 102.023372 
L 173.824269 99.930825 
L 174.900187 95.918232 
L 175.976105 90.902742 
L 177.410662 82.844811 
L 179.203859 71.146783 
L 183.866171 39.655104 
L 185.300728 31.786478 
L 186.376646 26.896003 
L 187.452564 22.964304 
L 188.528482 20.015439 
L 189.245761 18.583609 
L 189.96304 17.556822 
L 190.680318 16.906705 
L 191.397597 16.597989 
L 192.114876 16.589931 
L 192.832154 16.837828 
L 193.549433 17.294569 
L 194.625351 18.266376 
L 196.777187 20.675642 
L 198.570384 22.531555 
L 199.646302 23.37816 
L 200.72222 23.955995 
L 201.798138 24.242459 
L 202.874056 24.240716 
L 203.949974 23.97543 
L 205.025892 23.487571 
L 206.46045 22.581006 
L 209.688204 20.121185 
L 211.84004 18.668576 
L 213.274597 17.932197 
L 214.709155 17.415574 
L 216.143712 17.116429 
L 217.936909 17.012291 
L 219.730106 17.141374 
L 222.240581 17.564909 
L 231.206565 19.306287 
L 234.792958 19.669844 
L 238.379352 19.79751 
L 241.607106 19.75324 
L 241.607106 19.75324 
" clip-path="url(#pd85db1c1ea)" style="fill: none; stroke: #d9535d; stroke-opacity: 0.5; stroke-linecap: square"/>
   </g>
   <g id="line2d_20">
    <path d="M 62.287431 16.654447 
L 67.308382 16.886312 
L 71.253415 17.284641 
L 81.653956 18.50828 
L 89.544022 18.894442 
L 101.37912 19.699176 
L 103.889596 20.104805 
L 106.041432 20.695084 
L 108.193268 21.55025 
L 110.703743 22.841239 
L 116.800612 26.184027 
L 118.952448 27.029553 
L 121.462924 27.733104 
L 125.049317 28.661901 
L 126.483875 29.241177 
L 127.918432 30.077745 
L 128.99435 30.930443 
L 130.070268 32.017313 
L 131.146186 33.37109 
L 132.222104 35.019109 
L 133.656662 37.708687 
L 135.091219 40.983248 
L 136.525777 44.838373 
L 138.318973 50.4093 
L 140.470809 57.967324 
L 146.209039 78.812786 
L 147.643596 83.102295 
L 149.078154 86.664707 
L 150.154072 88.799875 
L 151.22999 90.460904 
L 152.305908 91.665339 
L 153.381826 92.459234 
L 154.457744 92.915163 
L 155.533662 93.127744 
L 159.120056 93.516153 
L 160.195974 93.947775 
L 161.271892 94.66237 
L 162.34781 95.686118 
L 163.423728 97.003155 
L 165.216925 99.666753 
L 167.368761 102.925728 
L 168.444679 104.190939 
L 169.161957 104.772097 
L 169.879236 105.079122 
L 170.596515 105.060631 
L 171.313793 104.670692 
L 172.031072 103.870616 
L 172.748351 102.630552 
L 173.46563 100.93078 
L 174.182908 98.762694 
L 175.258826 94.642503 
L 176.334744 89.538801 
L 177.769302 81.415226 
L 179.562499 69.748481 
L 183.866171 41.024761 
L 185.300728 33.095224 
L 186.376646 28.102567 
L 187.452564 24.021582 
L 188.528482 20.879823 
L 189.245761 19.297897 
L 189.96304 18.106337 
L 190.680318 17.279362 
L 191.397597 16.784616 
L 192.114876 16.584518 
L 192.832154 16.637698 
L 193.549433 16.900447 
L 194.625351 17.589985 
L 196.059909 18.833475 
L 198.570384 21.057366 
L 200.004941 21.974303 
L 201.080859 22.394464 
L 202.156778 22.566021 
L 203.232696 22.496397 
L 204.308614 22.211486 
L 205.743171 21.566174 
L 207.895007 20.265766 
L 210.764122 18.508428 
L 212.557319 17.669807 
L 213.991876 17.211063 
L 215.426433 16.945778 
L 217.21963 16.855115 
L 219.371466 17.008493 
L 222.95786 17.563768 
L 227.978811 18.300376 
L 231.565204 18.601323 
L 235.510237 18.700617 
L 239.813909 18.580357 
L 241.607106 18.483834 
L 241.607106 18.483834 
" clip-path="url(#pd85db1c1ea)" style="fill: none; stroke: #e0615c; stroke-opacity: 0.5; stroke-linecap: square"/>
   </g>
   <g id="line2d_21">
    <path d="M 62.287431 16.559741 
L 71.612054 16.678641 
L 75.915727 16.979855 
L 85.598989 17.798326 
L 94.206333 18.245665 
L 98.868645 18.807299 
L 103.172317 19.518821 
L 106.041432 20.20628 
L 108.551907 21.033501 
L 111.421022 22.228264 
L 117.159252 24.717494 
L 119.669727 25.515053 
L 125.766596 27.225964 
L 127.201154 27.957213 
L 128.635711 28.986 
L 129.711629 30.002334 
L 130.787547 31.262761 
L 131.863465 32.793011 
L 133.298022 35.286258 
L 134.73258 38.320737 
L 136.167137 41.897798 
L 137.960334 47.086083 
L 140.11217 54.183453 
L 146.926318 77.750374 
L 148.360875 81.669593 
L 149.795433 84.867116 
L 150.871351 86.749333 
L 151.947269 88.188864 
L 153.023187 89.215067 
L 154.099105 89.884531 
L 155.175023 90.278248 
L 156.96822 90.598879 
L 158.761416 90.950431 
L 159.837334 91.379376 
L 160.913252 92.070569 
L 161.98917 93.068689 
L 163.065088 94.378971 
L 164.499646 96.538755 
L 168.086039 102.365534 
L 169.161957 103.566009 
L 169.879236 104.054371 
L 170.596515 104.231936 
L 171.313793 104.051724 
L 172.031072 103.473659 
L 172.748351 102.466176 
L 173.46563 101.007538 
L 174.182908 99.086832 
L 175.258826 95.343709 
L 176.334744 90.615496 
L 177.769302 82.971131 
L 179.562499 71.828911 
L 184.22481 41.601912 
L 185.659367 33.900864 
L 186.735285 29.021271 
L 187.811204 24.990457 
L 188.887122 21.829338 
L 189.96304 19.514065 
L 190.680318 18.410742 
L 191.397597 17.629201 
L 192.114876 17.137577 
L 192.832154 16.900182 
L 193.549433 16.878785 
L 194.625351 17.165171 
L 195.701269 17.716038 
L 200.363581 20.453324 
L 201.439499 20.74576 
L 202.515417 20.842319 
L 203.591335 20.749878 
L 205.025892 20.374386 
L 206.819089 19.623327 
L 211.481401 17.500547 
L 213.274597 16.990672 
L 215.067794 16.717493 
L 217.21963 16.647461 
L 220.447384 16.833387 
L 226.902893 17.247302 
L 232.282483 17.336691 
L 239.09663 17.209189 
L 241.607106 17.127912 
L 241.607106 17.127912 
" clip-path="url(#pd85db1c1ea)" style="fill: none; stroke: #e5715e; stroke-opacity: 0.5; stroke-linecap: square"/>
   </g>
   <g id="line2d_22">
    <path d="M 62.287431 16.630285 
L 73.046612 16.613055 
L 78.426202 16.62397 
L 83.805792 16.918217 
L 89.902661 17.174426 
L 93.847694 17.398449 
L 97.075448 17.814024 
L 101.37912 18.629466 
L 109.986465 20.476737 
L 115.366055 21.960945 
L 119.669727 23.04315 
L 123.61476 24.038276 
L 125.407957 24.73743 
L 126.842514 25.5382 
L 128.277072 26.636059 
L 129.711629 28.101339 
L 131.146186 29.992266 
L 132.580744 32.350195 
L 134.015301 35.196524 
L 135.449859 38.530918 
L 137.243055 43.347582 
L 139.394891 49.940522 
L 142.264006 59.603806 
L 145.49176 70.416569 
L 147.284957 75.730683 
L 148.719514 79.354439 
L 150.154072 82.294352 
L 151.22999 84.015849 
L 152.305908 85.326725 
L 153.381826 86.258836 
L 154.457744 86.870229 
L 155.533662 87.24245 
L 159.478695 88.252999 
L 160.554613 88.893576 
L 161.630531 89.838368 
L 162.706449 91.114191 
L 163.782367 92.706171 
L 165.216925 95.212238 
L 168.444679 101.006952 
L 169.520597 102.38927 
L 170.237875 103.000394 
L 170.955154 103.304381 
L 171.672433 103.25678 
L 172.389712 102.820286 
L 173.10699 101.966159 
L 173.824269 100.675334 
L 174.541548 98.939188 
L 175.617466 95.507767 
L 176.693384 91.13455 
L 178.127941 84.024081 
L 179.921138 73.607889 
L 185.300728 40.981816 
L 186.735285 33.978258 
L 188.169843 28.228834 
L 189.245761 24.794794 
L 190.321679 22.107822 
L 191.397597 20.127035 
L 192.114876 19.166064 
L 192.832154 18.463395 
L 193.549433 17.990194 
L 194.266712 17.715417 
L 195.34263 17.604596 
L 196.418548 17.758411 
L 198.211745 18.325677 
L 200.72222 19.13567 
L 202.156778 19.375915 
L 203.591335 19.392945 
L 205.025892 19.201312 
L 207.177728 18.640056 
L 211.84004 17.278048 
L 213.991876 16.897364 
L 216.502351 16.675949 
L 220.447384 16.584068 
L 240.172549 16.552373 
L 241.607106 16.552387 
L 241.607106 16.552387 
" clip-path="url(#pd85db1c1ea)" style="fill: none; stroke: #e88165; stroke-opacity: 0.5; stroke-linecap: square"/>
   </g>
   <g id="line2d_23">
    <path d="M 62.287431 16.621245 
L 72.687972 16.744103 
L 82.371235 16.61357 
L 95.99953 17.104895 
L 99.944563 17.624333 
L 104.965514 18.279683 
L 116.441973 19.504094 
L 121.462924 20.379575 
L 123.61476 20.994588 
L 125.049317 21.610996 
L 126.483875 22.474611 
L 127.918432 23.656891 
L 129.35299 25.221356 
L 130.787547 27.216476 
L 132.222104 29.670711 
L 133.656662 32.590259 
L 135.449859 36.867891 
L 137.243055 41.771145 
L 139.394891 48.3101 
L 146.926318 71.98972 
L 148.360875 75.55174 
L 149.795433 78.486642 
L 150.871351 80.231379 
L 151.947269 81.576072 
L 153.023187 82.538993 
L 154.099105 83.16433 
L 155.175023 83.521409 
L 156.60958 83.740066 
L 158.761416 84.044922 
L 159.837334 84.428769 
L 160.913252 85.094331 
L 161.98917 86.105445 
L 163.065088 87.489892 
L 164.141006 89.233588 
L 165.575564 92.010636 
L 169.161957 99.37211 
L 170.237875 101.01801 
L 170.955154 101.808549 
L 171.672433 102.299589 
L 172.389712 102.45137 
L 173.10699 102.231539 
L 173.824269 101.616202 
L 174.541548 100.59066 
L 175.258826 99.149789 
L 175.976105 97.298066 
L 177.052023 93.782664 
L 178.127941 89.458096 
L 179.562499 82.643112 
L 181.355695 72.947766 
L 186.018007 46.920277 
L 187.811204 38.443399 
L 189.245761 32.749846 
L 190.321679 29.179698 
L 191.397597 26.219065 
L 192.473515 23.84968 
L 193.549433 22.031548 
L 194.625351 20.706746 
L 195.701269 19.80404 
L 196.777187 19.244093 
L 197.853105 18.944964 
L 199.287663 18.816011 
L 202.156778 18.908174 
L 204.667253 18.877075 
L 207.177728 18.591691 
L 214.709155 17.527266 
L 218.295548 17.378831 
L 227.261532 17.36923 
L 234.792958 17.18117 
L 241.607106 16.975394 
L 241.607106 16.975394 
" clip-path="url(#pd85db1c1ea)" style="fill: none; stroke: #ea916e; stroke-opacity: 0.5; stroke-linecap: square"/>
   </g>
   <g id="line2d_24">
    <path d="M 62.287431 16.628128 
L 91.695858 16.798951 
L 102.096399 16.888232 
L 106.758711 16.934785 
L 110.345104 17.209639 
L 116.800612 17.77025 
L 121.104285 18.068476 
L 122.897481 18.437002 
L 124.332039 18.971414 
L 125.766596 19.801041 
L 126.842514 20.658734 
L 127.918432 21.7452 
L 129.35299 23.579571 
L 130.787547 25.874661 
L 132.222104 28.630527 
L 133.656662 31.82524 
L 135.449859 36.37146 
L 137.601695 42.482129 
L 140.829449 52.437156 
L 144.415842 63.384868 
L 146.209039 68.262358 
L 147.643596 71.656127 
L 149.078154 74.479197 
L 150.154072 76.172999 
L 151.22999 77.483401 
L 152.305908 78.411062 
L 153.381826 78.976879 
L 154.457744 79.223173 
L 155.533662 79.213263 
L 156.96822 78.94551 
L 159.120056 78.480379 
L 160.195974 78.448414 
L 161.271892 78.681083 
L 161.98917 79.022698 
L 162.706449 79.534277 
L 163.782367 80.643362 
L 164.858285 82.169352 
L 165.934203 84.08743 
L 167.368761 87.145928 
L 172.389712 98.541284 
L 173.46563 100.183424 
L 174.182908 100.963473 
L 174.900187 101.456734 
L 175.617466 101.639805 
L 176.334744 101.495721 
L 177.052023 101.014227 
L 177.769302 100.191811 
L 178.48658 99.031533 
L 179.562499 96.679458 
L 180.638417 93.643877 
L 182.072974 88.670581 
L 183.507531 82.853004 
L 185.659367 73.113675 
L 190.321679 51.566162 
L 192.114876 44.269665 
L 193.908072 37.931797 
L 195.34263 33.636868 
L 196.777187 30.049963 
L 198.211745 27.146782 
L 199.646302 24.869584 
L 200.72222 23.523281 
L 202.156778 22.132762 
L 203.591335 21.111404 
L 205.025892 20.362067 
L 206.819089 19.681329 
L 209.329564 18.997128 
L 212.915958 18.271668 
L 216.860991 17.702274 
L 220.806024 17.372069 
L 226.185614 17.183188 
L 241.607106 16.822904 
L 241.607106 16.822904 
" clip-path="url(#pd85db1c1ea)" style="fill: none; stroke-dasharray: 6.4,1.6,1,1.6; stroke-dashoffset: 0; stroke: #eca077"/>
   </g>
   <g id="patch_3">
    <path d="M 53.321448 114.651498 
L 53.321448 11.88 
" style="fill: none; stroke: #000000; stroke-width: 0.8; stroke-linejoin: miter; stroke-linecap: square"/>
   </g>
   <g id="patch_4">
    <path d="M 250.57309 114.651498 
L 250.57309 11.88 
" style="fill: none; stroke: #000000; stroke-width: 0.8; stroke-linejoin: miter; stroke-linecap: square"/>
   </g>
   <g id="patch_5">
    <path d="M 53.321448 114.651498 
L 250.57309 114.651498 
" style="fill: none; stroke: #000000; stroke-width: 0.8; stroke-linejoin: miter; stroke-linecap: square"/>
   </g>
   <g id="patch_6">
    <path d="M 53.321448 11.88 
L 250.57309 11.88 
" style="fill: none; stroke: #000000; stroke-width: 0.8; stroke-linejoin: miter; stroke-linecap: square"/>
   </g>
   <g id="legend_1">
    <g id="line2d_25">
     <path d="M 58.821558 57.17781 
L 67.071558 57.17781 
L 75.321558 57.17781 
" style="fill: none; stroke-dasharray: 6.4,1.6,1,1.6; stroke-dashoffset: 0; stroke: #4b2362"/>
    </g>
    <g id="text_11">
     <!-- $\delta t=0.00$ -->
     <g transform="translate(79.721558 61.02781) scale(0.11 -0.11)">
      <defs>
       <path id="CMMI12-e" d="M 1664 2795 
C 845 2597 256 1748 256 1001 
C 256 319 717 -64 1229 -64 
C 1984 -64 2496 970 2496 1818 
C 2496 2392 2227 2744 2067 2954 
C 1830 3254 1446 3746 1446 4052 
C 1446 4161 1530 4352 1811 4352 
C 2010 4352 2131 4282 2323 4173 
C 2381 4134 2528 4052 2611 4052 
C 2746 4052 2842 4185 2842 4287 
C 2842 4409 2746 4428 2522 4479 
C 2221 4543 2131 4543 2022 4543 
C 1914 4543 1286 4543 1286 3892 
C 1286 3579 1446 3216 1664 2795 
z
M 1734 2669 
C 1978 2165 2074 1974 2074 1560 
C 2074 1063 1805 63 1235 63 
C 986 63 627 229 627 821 
C 627 1235 864 2439 1734 2669 
z
" transform="scale(0.015625)"/>
       <path id="CMMI12-74" d="M 1286 2566 
L 1875 2566 
C 1997 2566 2061 2566 2061 2681 
C 2061 2752 2022 2752 1894 2752 
L 1331 2752 
L 1568 3692 
C 1594 3781 1594 3794 1594 3840 
C 1594 3943 1510 4000 1427 4000 
C 1376 4000 1229 3981 1178 3775 
L 928 2752 
L 326 2752 
C 198 2752 141 2752 141 2630 
C 141 2566 186 2566 307 2566 
L 877 2566 
L 454 881 
C 403 658 384 594 384 511 
C 384 211 595 -64 954 -64 
C 1600 -64 1946 868 1946 912 
C 1946 951 1920 970 1882 970 
C 1869 970 1843 970 1830 944 
C 1824 938 1818 931 1773 829 
C 1638 511 1344 64 973 64 
C 781 64 768 224 768 364 
C 768 370 768 492 787 568 
L 1286 2566 
z
" transform="scale(0.015625)"/>
       <path id="CMR17-3d" d="M 4115 2017 
C 4211 2017 4307 2017 4307 2125 
C 4307 2240 4198 2240 4090 2240 
L 512 2240 
C 403 2240 294 2240 294 2125 
C 294 2017 390 2017 486 2017 
L 4115 2017 
z
M 4090 896 
C 4198 896 4307 896 4307 1011 
C 4307 1119 4211 1119 4115 1119 
L 486 1119 
C 390 1119 294 1119 294 1011 
C 294 896 403 896 512 896 
L 4090 896 
z
" transform="scale(0.015625)"/>
      </defs>
      <use xlink:href="#CMMI12-e" transform="scale(0.996264)"/>
      <use xlink:href="#CMMI12-74" transform="translate(46.941386 0) scale(0.996264)"/>
      <use xlink:href="#CMR17-3d" transform="translate(109.841725 0) scale(0.996264)"/>
      <use xlink:href="#CMR17-30" transform="translate(209.230522 0) scale(0.996264)"/>
      <use xlink:href="#CMMI12-3a" transform="translate(254.920999 0) scale(0.996264)"/>
      <use xlink:href="#CMR17-30" transform="translate(282.018176 0) scale(0.996264)"/>
      <use xlink:href="#CMR17-30" transform="translate(327.708654 0) scale(0.996264)"/>
     </g>
    </g>
    <g id="line2d_26">
     <path d="M 58.821558 72.508704 
L 67.071558 72.508704 
L 75.321558 72.508704 
" style="fill: none; stroke-dasharray: 6.4,1.6,1,1.6; stroke-dashoffset: 0; stroke: #b23c6c"/>
    </g>
    <g id="text_12">
     <!-- $\delta t=0.07$ -->
     <g transform="translate(79.721558 76.358704) scale(0.11 -0.11)">
      <defs>
       <path id="CMR17-37" d="M 2886 3941 
L 2886 4081 
L 1382 4081 
C 634 4081 621 4165 595 4288 
L 480 4288 
L 294 3094 
L 410 3094 
C 429 3215 474 3540 550 3661 
C 589 3712 1062 3712 1171 3712 
L 2579 3712 
L 1869 2661 
C 1395 1954 1069 999 1069 165 
C 1069 89 1069 -128 1299 -128 
C 1530 -128 1530 89 1530 171 
L 1530 465 
C 1530 1508 1709 2196 2003 2636 
L 2886 3941 
z
" transform="scale(0.015625)"/>
      </defs>
      <use xlink:href="#CMMI12-e" transform="scale(0.996264)"/>
      <use xlink:href="#CMMI12-74" transform="translate(46.941386 0) scale(0.996264)"/>
      <use xlink:href="#CMR17-3d" transform="translate(109.841725 0) scale(0.996264)"/>
      <use xlink:href="#CMR17-30" transform="translate(209.230522 0) scale(0.996264)"/>
      <use xlink:href="#CMMI12-3a" transform="translate(254.920999 0) scale(0.996264)"/>
      <use xlink:href="#CMR17-30" transform="translate(282.018176 0) scale(0.996264)"/>
      <use xlink:href="#CMR17-37" transform="translate(327.708654 0) scale(0.996264)"/>
     </g>
    </g>
    <g id="line2d_27">
     <path d="M 58.821558 87.839599 
L 67.071558 87.839599 
L 75.321558 87.839599 
" style="fill: none; stroke-dasharray: 6.4,1.6,1,1.6; stroke-dashoffset: 0; stroke: #c14168"/>
    </g>
    <g id="text_13">
     <!-- $\delta t=0.08$ -->
     <g transform="translate(79.721558 91.689599) scale(0.11 -0.11)">
      <defs>
       <path id="CMR17-38" d="M 1741 2264 
C 2144 2467 2554 2773 2554 3263 
C 2554 3841 1990 4179 1472 4179 
C 890 4179 378 3759 378 3180 
C 378 3021 416 2747 666 2505 
C 730 2442 998 2251 1171 2130 
C 883 1983 211 1634 211 934 
C 211 279 838 -128 1459 -128 
C 2144 -128 2720 362 2720 1010 
C 2720 1590 2330 1857 2074 2029 
L 1741 2264 
z
M 902 2822 
C 851 2854 595 3051 595 3351 
C 595 3739 998 4032 1459 4032 
C 1965 4032 2336 3676 2336 3262 
C 2336 2669 1670 2331 1638 2331 
C 1632 2331 1626 2331 1574 2370 
L 902 2822 
z
M 2080 1519 
C 2176 1449 2483 1240 2483 851 
C 2483 381 2010 25 1472 25 
C 890 25 448 438 448 940 
C 448 1443 838 1862 1280 2060 
L 2080 1519 
z
" transform="scale(0.015625)"/>
      </defs>
      <use xlink:href="#CMMI12-e" transform="scale(0.996264)"/>
      <use xlink:href="#CMMI12-74" transform="translate(46.941386 0) scale(0.996264)"/>
      <use xlink:href="#CMR17-3d" transform="translate(109.841725 0) scale(0.996264)"/>
      <use xlink:href="#CMR17-30" transform="translate(209.230522 0) scale(0.996264)"/>
      <use xlink:href="#CMMI12-3a" transform="translate(254.920999 0) scale(0.996264)"/>
      <use xlink:href="#CMR17-30" transform="translate(282.018176 0) scale(0.996264)"/>
      <use xlink:href="#CMR17-38" transform="translate(327.708654 0) scale(0.996264)"/>
     </g>
    </g>
    <g id="line2d_28">
     <path d="M 58.821558 103.170493 
L 67.071558 103.170493 
L 75.321558 103.170493 
" style="fill: none; stroke-dasharray: 6.4,1.6,1,1.6; stroke-dashoffset: 0; stroke: #eca077"/>
    </g>
    <g id="text_14">
     <!-- $\delta t=0.16$ -->
     <g transform="translate(79.721558 107.020493) scale(0.11 -0.11)">
      <defs>
       <path id="CMR17-36" d="M 678 2176 
C 678 3690 1395 4032 1811 4032 
C 1946 4032 2272 4009 2400 3776 
C 2298 3776 2106 3776 2106 3553 
C 2106 3381 2246 3323 2336 3323 
C 2394 3323 2566 3348 2566 3560 
C 2566 3954 2246 4179 1805 4179 
C 1043 4179 243 3390 243 1984 
C 243 253 966 -128 1478 -128 
C 2099 -128 2688 427 2688 1283 
C 2688 2081 2170 2662 1517 2662 
C 1126 2662 838 2407 678 1960 
L 678 2176 
z
M 1478 25 
C 691 25 691 1200 691 1436 
C 691 1896 909 2560 1504 2560 
C 1613 2560 1926 2560 2138 2120 
C 2253 1870 2253 1609 2253 1289 
C 2253 944 2253 690 2118 434 
C 1978 171 1773 25 1478 25 
z
" transform="scale(0.015625)"/>
      </defs>
      <use xlink:href="#CMMI12-e" transform="scale(0.996264)"/>
      <use xlink:href="#CMMI12-74" transform="translate(46.941386 0) scale(0.996264)"/>
      <use xlink:href="#CMR17-3d" transform="translate(109.841725 0) scale(0.996264)"/>
      <use xlink:href="#CMR17-30" transform="translate(209.230522 0) scale(0.996264)"/>
      <use xlink:href="#CMMI12-3a" transform="translate(254.920999 0) scale(0.996264)"/>
      <use xlink:href="#CMR17-31" transform="translate(282.018176 0) scale(0.996264)"/>
      <use xlink:href="#CMR17-36" transform="translate(327.708654 0) scale(0.996264)"/>
     </g>
    </g>
   </g>
  </g>
  <g id="axes_2">
   <g id="patch_7">
    <path d="M 298.963003 114.651498 
L 496.214645 114.651498 
L 496.214645 11.88 
L 298.963003 11.88 
z
" style="fill: #ffffff"/>
   </g>
   <g id="matplotlib.axis_3">
    <g id="xtick_6">
     <g id="line2d_29">
      <g>
       <use xlink:href="#mcc5658ec5d" x="307.928987" y="114.651498" style="stroke: #000000; stroke-width: 0.8"/>
      </g>
     </g>
     <g id="text_15">
      <!-- $\mathdefault{0.00}$ -->
      <g transform="translate(298.187715 129.261845) scale(0.11 -0.11)">
       <use xlink:href="#CMR17-30" transform="scale(0.996264)"/>
       <use xlink:href="#CMMI12-3a" transform="translate(45.690477 0) scale(0.996264)"/>
       <use xlink:href="#CMR17-30" transform="translate(72.787654 0) scale(0.996264)"/>
       <use xlink:href="#CMR17-30" transform="translate(118.478131 0) scale(0.996264)"/>
      </g>
     </g>
    </g>
    <g id="xtick_7">
     <g id="line2d_30">
      <g>
       <use xlink:href="#mcc5658ec5d" x="365.423752" y="114.651498" style="stroke: #000000; stroke-width: 0.8"/>
      </g>
     </g>
     <g id="text_16">
      <!-- $\mathdefault{0.05}$ -->
      <g transform="translate(355.68248 129.261845) scale(0.11 -0.11)">
       <use xlink:href="#CMR17-30" transform="scale(0.996264)"/>
       <use xlink:href="#CMMI12-3a" transform="translate(45.690477 0) scale(0.996264)"/>
       <use xlink:href="#CMR17-30" transform="translate(72.787654 0) scale(0.996264)"/>
       <use xlink:href="#CMR17-35" transform="translate(118.478131 0) scale(0.996264)"/>
      </g>
     </g>
    </g>
    <g id="xtick_8">
     <g id="line2d_31">
      <g>
       <use xlink:href="#mcc5658ec5d" x="422.918516" y="114.651498" style="stroke: #000000; stroke-width: 0.8"/>
      </g>
     </g>
     <g id="text_17">
      <!-- $\mathdefault{0.10}$ -->
      <g transform="translate(413.177245 129.261845) scale(0.11 -0.11)">
       <use xlink:href="#CMR17-30" transform="scale(0.996264)"/>
       <use xlink:href="#CMMI12-3a" transform="translate(45.690477 0) scale(0.996264)"/>
       <use xlink:href="#CMR17-31" transform="translate(72.787654 0) scale(0.996264)"/>
       <use xlink:href="#CMR17-30" transform="translate(118.478131 0) scale(0.996264)"/>
      </g>
     </g>
    </g>
    <g id="xtick_9">
     <g id="line2d_32">
      <g>
       <use xlink:href="#mcc5658ec5d" x="480.413281" y="114.651498" style="stroke: #000000; stroke-width: 0.8"/>
      </g>
     </g>
     <g id="text_18">
      <!-- $\mathdefault{0.15}$ -->
      <g transform="translate(470.67201 129.261845) scale(0.11 -0.11)">
       <use xlink:href="#CMR17-30" transform="scale(0.996264)"/>
       <use xlink:href="#CMMI12-3a" transform="translate(45.690477 0) scale(0.996264)"/>
       <use xlink:href="#CMR17-31" transform="translate(72.787654 0) scale(0.996264)"/>
       <use xlink:href="#CMR17-35" transform="translate(118.478131 0) scale(0.996264)"/>
      </g>
     </g>
    </g>
    <g id="text_19">
     <!-- Time, $\delta t$ -->
     <g transform="translate(377.137889 143.003086) scale(0.11 -0.11)">
      <defs>
       <path id="CMR17-54" d="M 3981 4326 
L 288 4326 
L 179 2918 
L 294 2918 
C 378 3976 467 4160 1453 4160 
C 1568 4160 1754 4160 1805 4154 
C 1926 4135 1926 4058 1926 3912 
L 1926 459 
C 1926 230 1907 160 1376 160 
L 1197 160 
L 1197 0 
C 1504 0 1824 0 2138 0 
C 2451 0 2771 0 3078 0 
L 3078 160 
L 2899 160 
C 2368 160 2349 230 2349 459 
L 2349 3912 
C 2349 4052 2349 4129 2464 4154 
C 2515 4160 2701 4160 2816 4160 
C 3795 4160 3891 3976 3974 2918 
L 4090 2918 
L 3981 4326 
z
" transform="scale(0.015625)"/>
       <path id="CMR17-6d" d="M 4326 1933 
C 4326 2252 4269 2790 3507 2790 
C 3072 2790 2771 2496 2656 2151 
L 2650 2151 
C 2573 2676 2195 2790 1837 2790 
C 1331 2790 1069 2400 973 2144 
L 966 2144 
L 966 2790 
L 211 2720 
L 211 2554 
C 589 2554 646 2515 646 2208 
L 646 428 
C 646 184 621 153 211 153 
L 211 -13 
C 365 0 646 0 813 0 
C 979 0 1267 0 1421 -13 
L 1421 153 
C 1011 153 986 178 986 428 
L 986 1658 
C 986 2247 1344 2688 1792 2688 
C 2266 2688 2317 2266 2317 1958 
L 2317 428 
C 2317 184 2291 153 1882 153 
L 1882 -13 
C 2035 0 2317 0 2483 0 
C 2650 0 2938 0 3091 -13 
L 3091 153 
C 2682 153 2656 178 2656 428 
L 2656 1658 
C 2656 2247 3014 2688 3462 2688 
C 3936 2688 3987 2266 3987 1958 
L 3987 428 
C 3987 184 3962 153 3552 153 
L 3552 -13 
C 3706 0 3987 0 4154 0 
C 4320 0 4608 0 4762 -13 
L 4762 153 
C 4352 153 4326 178 4326 428 
L 4326 1933 
z
" transform="scale(0.015625)"/>
      </defs>
      <use xlink:href="#CMR17-54" transform="scale(0.996264)"/>
      <use xlink:href="#CMR17-69" transform="translate(66.509881 0) scale(0.996264)"/>
      <use xlink:href="#CMR17-6d" transform="translate(91.380939 0) scale(0.996264)"/>
      <use xlink:href="#CMR17-65" transform="translate(168.300529 0) scale(0.996264)"/>
      <use xlink:href="#CMR17-2c" transform="translate(208.786189 0) scale(0.996264)"/>
      <use xlink:href="#CMMI12-e" transform="translate(263.733214 0) scale(0.996264)"/>
      <use xlink:href="#CMMI12-74" transform="translate(310.6746 0) scale(0.996264)"/>
     </g>
    </g>
   </g>
   <g id="matplotlib.axis_4">
    <g id="ytick_4">
     <g id="line2d_33">
      <g>
       <use xlink:href="#m7cd0cb57c2" x="298.963003" y="109.980066" style="stroke: #000000; stroke-width: 0.8"/>
      </g>
     </g>
     <g id="text_20">
      <!-- $\mathdefault{0.0}$ -->
      <g transform="translate(277.959927 113.78524) scale(0.11 -0.11)">
       <use xlink:href="#CMR17-30" transform="scale(0.996264)"/>
       <use xlink:href="#CMMI12-3a" transform="translate(45.690477 0) scale(0.996264)"/>
       <use xlink:href="#CMR17-30" transform="translate(72.787654 0) scale(0.996264)"/>
      </g>
     </g>
    </g>
    <g id="ytick_5">
     <g id="line2d_34">
      <g>
       <use xlink:href="#m7cd0cb57c2" x="298.963003" y="82.832821" style="stroke: #000000; stroke-width: 0.8"/>
      </g>
     </g>
     <g id="text_21">
      <!-- $\mathdefault{0.5}$ -->
      <g transform="translate(277.959927 86.637994) scale(0.11 -0.11)">
       <use xlink:href="#CMR17-30" transform="scale(0.996264)"/>
       <use xlink:href="#CMMI12-3a" transform="translate(45.690477 0) scale(0.996264)"/>
       <use xlink:href="#CMR17-35" transform="translate(72.787654 0) scale(0.996264)"/>
      </g>
     </g>
    </g>
    <g id="ytick_6">
     <g id="line2d_35">
      <g>
       <use xlink:href="#m7cd0cb57c2" x="298.963003" y="55.685575" style="stroke: #000000; stroke-width: 0.8"/>
      </g>
     </g>
     <g id="text_22">
      <!-- $\mathdefault{1.0}$ -->
      <g transform="translate(277.959927 59.490748) scale(0.11 -0.11)">
       <use xlink:href="#CMR17-31" transform="scale(0.996264)"/>
       <use xlink:href="#CMMI12-3a" transform="translate(45.690477 0) scale(0.996264)"/>
       <use xlink:href="#CMR17-30" transform="translate(72.787654 0) scale(0.996264)"/>
      </g>
     </g>
    </g>
    <g id="ytick_7">
     <g id="line2d_36">
      <g>
       <use xlink:href="#m7cd0cb57c2" x="298.963003" y="28.538329" style="stroke: #000000; stroke-width: 0.8"/>
      </g>
     </g>
     <g id="text_23">
      <!-- $\mathdefault{1.5}$ -->
      <g transform="translate(277.959927 32.343502) scale(0.11 -0.11)">
       <use xlink:href="#CMR17-31" transform="scale(0.996264)"/>
       <use xlink:href="#CMMI12-3a" transform="translate(45.690477 0) scale(0.996264)"/>
       <use xlink:href="#CMR17-35" transform="translate(72.787654 0) scale(0.996264)"/>
      </g>
     </g>
    </g>
    <g id="text_24">
     <!-- Update Size, $\norm{\bm{\theta}}_{\infty}$ -->
     <g transform="translate(270.672268 108.634914) rotate(-90) scale(0.11 -0.11)">
      <use xlink:href="#CMR17-55" transform="scale(0.996264)"/>
      <use xlink:href="#CMR17-70" transform="translate(69.07243 0) scale(0.996264)"/>
      <use xlink:href="#CMR17-64" transform="translate(122.570238 0) scale(0.996264)"/>
      <use xlink:href="#CMR17-61" transform="translate(173.465608 0) scale(0.996264)"/>
      <use xlink:href="#CMR17-74" transform="translate(219.156085 0) scale(0.996264)"/>
      <use xlink:href="#CMR17-65" transform="translate(254.436853 0) scale(0.996264)"/>
      <use xlink:href="#CMR17-53" transform="translate(324.99848 0) scale(0.996264)"/>
      <use xlink:href="#CMR17-69" transform="translate(375.89385 0) scale(0.996264)"/>
      <use xlink:href="#CMR17-7a" transform="translate(400.764908 0) scale(0.996264)"/>
      <use xlink:href="#CMR17-65" transform="translate(441.250569 0) scale(0.996264)"/>
      <use xlink:href="#CMR17-2c" transform="translate(481.736229 0) scale(0.996264)"/>
      <use xlink:href="#CMSY10-6b" transform="translate(536.683254 0) scale(0.996264)"/>
      <use xlink:href="#CMMIB10-12" transform="translate(586.496637 0) scale(0.996264)"/>
      <use xlink:href="#CMSY10-6b" transform="translate(645.649524 0) scale(0.996264)"/>
      <use xlink:href="#CMSY10-31" transform="translate(695.462906 -28.393509) scale(0.697382)"/>
     </g>
    </g>
   </g>
   <g id="line2d_37">
    <path d="M 307.928987 109.980066 
L 319.883632 104.277011 
L 331.838277 98.811896 
L 343.792922 93.764473 
L 355.747567 89.328616 
L 367.702212 86.037096 
L 379.656857 81.794789 
L 391.611502 59.84529 
L 403.566147 58.704813 
L 415.520792 54.077837 
L 427.475436 48.630026 
L 439.430081 43.956028 
L 451.384726 40.165336 
L 463.339371 37.471781 
L 475.294016 35.735771 
L 487.248661 32.597144 
" clip-path="url(#p235e941ed4)" style="fill: none; stroke: #4056a1; stroke-width: 1.5; stroke-linecap: square"/>
    <defs>
     <path id="mbd8fa5d726" d="M 0 1.15 
C 0.304984 1.15 0.597517 1.028829 0.813173 0.813173 
C 1.028829 0.597517 1.15 0.304984 1.15 0 
C 1.15 -0.304984 1.028829 -0.597517 0.813173 -0.813173 
C 0.597517 -1.028829 0.304984 -1.15 0 -1.15 
C -0.304984 -1.15 -0.597517 -1.028829 -0.813173 -0.813173 
C -1.028829 -0.597517 -1.15 -0.304984 -1.15 0 
C -1.15 0.304984 -1.028829 0.597517 -0.813173 0.813173 
C -0.597517 1.028829 -0.304984 1.15 0 1.15 
z
" style="stroke: #4056a1"/>
    </defs>
    <g clip-path="url(#p235e941ed4)">
     <use xlink:href="#mbd8fa5d726" x="307.928987" y="109.980066" style="fill: #4056a1; stroke: #4056a1"/>
     <use xlink:href="#mbd8fa5d726" x="319.883632" y="104.277011" style="fill: #4056a1; stroke: #4056a1"/>
     <use xlink:href="#mbd8fa5d726" x="331.838277" y="98.811896" style="fill: #4056a1; stroke: #4056a1"/>
     <use xlink:href="#mbd8fa5d726" x="343.792922" y="93.764473" style="fill: #4056a1; stroke: #4056a1"/>
     <use xlink:href="#mbd8fa5d726" x="355.747567" y="89.328616" style="fill: #4056a1; stroke: #4056a1"/>
     <use xlink:href="#mbd8fa5d726" x="367.702212" y="86.037096" style="fill: #4056a1; stroke: #4056a1"/>
     <use xlink:href="#mbd8fa5d726" x="379.656857" y="81.794789" style="fill: #4056a1; stroke: #4056a1"/>
     <use xlink:href="#mbd8fa5d726" x="391.611502" y="59.84529" style="fill: #4056a1; stroke: #4056a1"/>
     <use xlink:href="#mbd8fa5d726" x="403.566147" y="58.704813" style="fill: #4056a1; stroke: #4056a1"/>
     <use xlink:href="#mbd8fa5d726" x="415.520792" y="54.077837" style="fill: #4056a1; stroke: #4056a1"/>
     <use xlink:href="#mbd8fa5d726" x="427.475436" y="48.630026" style="fill: #4056a1; stroke: #4056a1"/>
     <use xlink:href="#mbd8fa5d726" x="439.430081" y="43.956028" style="fill: #4056a1; stroke: #4056a1"/>
     <use xlink:href="#mbd8fa5d726" x="451.384726" y="40.165336" style="fill: #4056a1; stroke: #4056a1"/>
     <use xlink:href="#mbd8fa5d726" x="463.339371" y="37.471781" style="fill: #4056a1; stroke: #4056a1"/>
     <use xlink:href="#mbd8fa5d726" x="475.294016" y="35.735771" style="fill: #4056a1; stroke: #4056a1"/>
     <use xlink:href="#mbd8fa5d726" x="487.248661" y="32.597144" style="fill: #4056a1; stroke: #4056a1"/>
    </g>
   </g>
   <g id="line2d_38">
    <path d="M 307.928987 109.980066 
L 319.883632 105.689593 
L 331.838277 101.160002 
L 343.792922 95.557126 
L 355.747567 89.453911 
L 367.702212 83.239021 
L 379.656857 77.235986 
L 391.611502 71.622442 
L 403.566147 66.458503 
L 415.520792 61.741498 
L 427.475436 57.435311 
L 439.430081 53.49297 
L 451.384726 49.851727 
L 463.339371 46.46085 
L 475.294016 43.268884 
L 487.248661 40.236645 
" clip-path="url(#p235e941ed4)" style="fill: none; stroke-dasharray: 5.55,2.4; stroke-dashoffset: 0; stroke: #075c2f; stroke-width: 1.5"/>
    <defs>
     <path id="m5592d05726" d="M 0 1.15 
C 0.304984 1.15 0.597517 1.028829 0.813173 0.813173 
C 1.028829 0.597517 1.15 0.304984 1.15 0 
C 1.15 -0.304984 1.028829 -0.597517 0.813173 -0.813173 
C 0.597517 -1.028829 0.304984 -1.15 0 -1.15 
C -0.304984 -1.15 -0.597517 -1.028829 -0.813173 -0.813173 
C -1.028829 -0.597517 -1.15 -0.304984 -1.15 0 
C -1.15 0.304984 -1.028829 0.597517 -0.813173 0.813173 
C -0.597517 1.028829 -0.304984 1.15 0 1.15 
z
" style="stroke: #075c2f"/>
    </defs>
    <g clip-path="url(#p235e941ed4)">
     <use xlink:href="#m5592d05726" x="307.928987" y="109.980066" style="fill: #075c2f; stroke: #075c2f"/>
     <use xlink:href="#m5592d05726" x="319.883632" y="105.689593" style="fill: #075c2f; stroke: #075c2f"/>
     <use xlink:href="#m5592d05726" x="331.838277" y="101.160002" style="fill: #075c2f; stroke: #075c2f"/>
     <use xlink:href="#m5592d05726" x="343.792922" y="95.557126" style="fill: #075c2f; stroke: #075c2f"/>
     <use xlink:href="#m5592d05726" x="355.747567" y="89.453911" style="fill: #075c2f; stroke: #075c2f"/>
     <use xlink:href="#m5592d05726" x="367.702212" y="83.239021" style="fill: #075c2f; stroke: #075c2f"/>
     <use xlink:href="#m5592d05726" x="379.656857" y="77.235986" style="fill: #075c2f; stroke: #075c2f"/>
     <use xlink:href="#m5592d05726" x="391.611502" y="71.622442" style="fill: #075c2f; stroke: #075c2f"/>
     <use xlink:href="#m5592d05726" x="403.566147" y="66.458503" style="fill: #075c2f; stroke: #075c2f"/>
     <use xlink:href="#m5592d05726" x="415.520792" y="61.741498" style="fill: #075c2f; stroke: #075c2f"/>
     <use xlink:href="#m5592d05726" x="427.475436" y="57.435311" style="fill: #075c2f; stroke: #075c2f"/>
     <use xlink:href="#m5592d05726" x="439.430081" y="53.49297" style="fill: #075c2f; stroke: #075c2f"/>
     <use xlink:href="#m5592d05726" x="451.384726" y="49.851727" style="fill: #075c2f; stroke: #075c2f"/>
     <use xlink:href="#m5592d05726" x="463.339371" y="46.46085" style="fill: #075c2f; stroke: #075c2f"/>
     <use xlink:href="#m5592d05726" x="475.294016" y="43.268884" style="fill: #075c2f; stroke: #075c2f"/>
     <use xlink:href="#m5592d05726" x="487.248661" y="40.236645" style="fill: #075c2f; stroke: #075c2f"/>
    </g>
   </g>
   <g id="line2d_39">
    <path d="M 307.928987 109.980066 
L 319.883632 102.60336 
L 331.838277 94.390221 
L 343.792922 65.704447 
L 355.747567 54.815404 
L 367.702212 48.840764 
L 379.656857 44.647401 
L 391.611502 41.443324 
L 403.566147 38.886253 
L 415.520792 36.810979 
L 427.475436 35.05906 
L 439.430081 33.423244 
L 451.384726 31.46569 
L 463.339371 28.670639 
L 475.294016 24.362619 
L 487.248661 16.551432 
" clip-path="url(#p235e941ed4)" style="fill: none; stroke-dasharray: 9.6,2.4,1.5,2.4; stroke-dashoffset: 0; stroke: #7d8238; stroke-width: 1.5"/>
    <defs>
     <path id="m336ca5ae9f" d="M 0 1.15 
C 0.304984 1.15 0.597517 1.028829 0.813173 0.813173 
C 1.028829 0.597517 1.15 0.304984 1.15 0 
C 1.15 -0.304984 1.028829 -0.597517 0.813173 -0.813173 
C 0.597517 -1.028829 0.304984 -1.15 0 -1.15 
C -0.304984 -1.15 -0.597517 -1.028829 -0.813173 -0.813173 
C -1.028829 -0.597517 -1.15 -0.304984 -1.15 0 
C -1.15 0.304984 -1.028829 0.597517 -0.813173 0.813173 
C -0.597517 1.028829 -0.304984 1.15 0 1.15 
z
" style="stroke: #7d8238"/>
    </defs>
    <g clip-path="url(#p235e941ed4)">
     <use xlink:href="#m336ca5ae9f" x="307.928987" y="109.980066" style="fill: #7d8238; stroke: #7d8238"/>
     <use xlink:href="#m336ca5ae9f" x="319.883632" y="102.60336" style="fill: #7d8238; stroke: #7d8238"/>
     <use xlink:href="#m336ca5ae9f" x="331.838277" y="94.390221" style="fill: #7d8238; stroke: #7d8238"/>
     <use xlink:href="#m336ca5ae9f" x="343.792922" y="65.704447" style="fill: #7d8238; stroke: #7d8238"/>
     <use xlink:href="#m336ca5ae9f" x="355.747567" y="54.815404" style="fill: #7d8238; stroke: #7d8238"/>
     <use xlink:href="#m336ca5ae9f" x="367.702212" y="48.840764" style="fill: #7d8238; stroke: #7d8238"/>
     <use xlink:href="#m336ca5ae9f" x="379.656857" y="44.647401" style="fill: #7d8238; stroke: #7d8238"/>
     <use xlink:href="#m336ca5ae9f" x="391.611502" y="41.443324" style="fill: #7d8238; stroke: #7d8238"/>
     <use xlink:href="#m336ca5ae9f" x="403.566147" y="38.886253" style="fill: #7d8238; stroke: #7d8238"/>
     <use xlink:href="#m336ca5ae9f" x="415.520792" y="36.810979" style="fill: #7d8238; stroke: #7d8238"/>
     <use xlink:href="#m336ca5ae9f" x="427.475436" y="35.05906" style="fill: #7d8238; stroke: #7d8238"/>
     <use xlink:href="#m336ca5ae9f" x="439.430081" y="33.423244" style="fill: #7d8238; stroke: #7d8238"/>
     <use xlink:href="#m336ca5ae9f" x="451.384726" y="31.46569" style="fill: #7d8238; stroke: #7d8238"/>
     <use xlink:href="#m336ca5ae9f" x="463.339371" y="28.670639" style="fill: #7d8238; stroke: #7d8238"/>
     <use xlink:href="#m336ca5ae9f" x="475.294016" y="24.362619" style="fill: #7d8238; stroke: #7d8238"/>
     <use xlink:href="#m336ca5ae9f" x="487.248661" y="16.551432" style="fill: #7d8238; stroke: #7d8238"/>
    </g>
   </g>
   <g id="line2d_40">
    <path d="M 307.928987 109.980066 
L 319.883632 106.422275 
L 331.838277 101.731915 
L 343.792922 95.819837 
L 355.747567 88.752972 
L 367.702212 80.569375 
L 379.656857 71.646486 
L 391.611502 61.824183 
L 403.566147 43.22385 
L 415.520792 42.521608 
L 427.475436 41.639753 
L 439.430081 40.516817 
L 451.384726 38.976679 
L 463.339371 36.633377 
L 475.294016 32.415511 
L 487.248661 19.737425 
" clip-path="url(#p235e941ed4)" style="fill: none; stroke-dasharray: 1.5,2.475; stroke-dashoffset: 0; stroke: #d79922; stroke-width: 1.5"/>
    <defs>
     <path id="m630af7fe5a" d="M 0 1.15 
C 0.304984 1.15 0.597517 1.028829 0.813173 0.813173 
C 1.028829 0.597517 1.15 0.304984 1.15 0 
C 1.15 -0.304984 1.028829 -0.597517 0.813173 -0.813173 
C 0.597517 -1.028829 0.304984 -1.15 0 -1.15 
C -0.304984 -1.15 -0.597517 -1.028829 -0.813173 -0.813173 
C -1.028829 -0.597517 -1.15 -0.304984 -1.15 0 
C -1.15 0.304984 -1.028829 0.597517 -0.813173 0.813173 
C -0.597517 1.028829 -0.304984 1.15 0 1.15 
z
" style="stroke: #d79922"/>
    </defs>
    <g clip-path="url(#p235e941ed4)">
     <use xlink:href="#m630af7fe5a" x="307.928987" y="109.980066" style="fill: #d79922; stroke: #d79922"/>
     <use xlink:href="#m630af7fe5a" x="319.883632" y="106.422275" style="fill: #d79922; stroke: #d79922"/>
     <use xlink:href="#m630af7fe5a" x="331.838277" y="101.731915" style="fill: #d79922; stroke: #d79922"/>
     <use xlink:href="#m630af7fe5a" x="343.792922" y="95.819837" style="fill: #d79922; stroke: #d79922"/>
     <use xlink:href="#m630af7fe5a" x="355.747567" y="88.752972" style="fill: #d79922; stroke: #d79922"/>
     <use xlink:href="#m630af7fe5a" x="367.702212" y="80.569375" style="fill: #d79922; stroke: #d79922"/>
     <use xlink:href="#m630af7fe5a" x="379.656857" y="71.646486" style="fill: #d79922; stroke: #d79922"/>
     <use xlink:href="#m630af7fe5a" x="391.611502" y="61.824183" style="fill: #d79922; stroke: #d79922"/>
     <use xlink:href="#m630af7fe5a" x="403.566147" y="43.22385" style="fill: #d79922; stroke: #d79922"/>
     <use xlink:href="#m630af7fe5a" x="415.520792" y="42.521608" style="fill: #d79922; stroke: #d79922"/>
     <use xlink:href="#m630af7fe5a" x="427.475436" y="41.639753" style="fill: #d79922; stroke: #d79922"/>
     <use xlink:href="#m630af7fe5a" x="439.430081" y="40.516817" style="fill: #d79922; stroke: #d79922"/>
     <use xlink:href="#m630af7fe5a" x="451.384726" y="38.976679" style="fill: #d79922; stroke: #d79922"/>
     <use xlink:href="#m630af7fe5a" x="463.339371" y="36.633377" style="fill: #d79922; stroke: #d79922"/>
     <use xlink:href="#m630af7fe5a" x="475.294016" y="32.415511" style="fill: #d79922; stroke: #d79922"/>
     <use xlink:href="#m630af7fe5a" x="487.248661" y="19.737425" style="fill: #d79922; stroke: #d79922"/>
    </g>
   </g>
   <g id="patch_8">
    <path d="M 298.963003 114.651498 
L 298.963003 11.88 
" style="fill: none; stroke: #000000; stroke-width: 0.8; stroke-linejoin: miter; stroke-linecap: square"/>
   </g>
   <g id="patch_9">
    <path d="M 496.214645 114.651498 
L 496.214645 11.88 
" style="fill: none; stroke: #000000; stroke-width: 0.8; stroke-linejoin: miter; stroke-linecap: square"/>
   </g>
   <g id="patch_10">
    <path d="M 298.963003 114.651498 
L 496.214645 114.651498 
" style="fill: none; stroke: #000000; stroke-width: 0.8; stroke-linejoin: miter; stroke-linecap: square"/>
   </g>
   <g id="patch_11">
    <path d="M 298.963003 11.88 
L 496.214645 11.88 
" style="fill: none; stroke: #000000; stroke-width: 0.8; stroke-linejoin: miter; stroke-linecap: square"/>
   </g>
   <g id="legend_2">
    <g id="line2d_41">
     <path d="M 444.243693 57.17781 
L 452.493693 57.17781 
L 460.743693 57.17781 
" style="fill: none; stroke: #4056a1; stroke-width: 1.5; stroke-linecap: square"/>
     <g>
      <use xlink:href="#mbd8fa5d726" x="452.493693" y="57.17781" style="fill: #4056a1; stroke: #4056a1"/>
     </g>
    </g>
    <g id="text_25">
     <!-- n=4 -->
     <g transform="translate(465.143693 61.02781) scale(0.11 -0.11)">
      <defs>
       <path id="CMR17-34" d="M 2150 4122 
C 2150 4256 2144 4256 2029 4256 
L 128 1254 
L 128 1088 
L 1779 1088 
L 1779 457 
C 1779 224 1766 160 1318 160 
L 1197 160 
L 1197 0 
C 1402 0 1747 0 1965 0 
C 2182 0 2528 0 2733 0 
L 2733 160 
L 2611 160 
C 2163 160 2150 224 2150 457 
L 2150 1088 
L 2803 1088 
L 2803 1254 
L 2150 1254 
L 2150 4122 
z
M 1798 3703 
L 1798 1254 
L 256 1254 
L 1798 3703 
z
" transform="scale(0.015625)"/>
      </defs>
      <use xlink:href="#CMR17-6e" transform="scale(0.996264)"/>
      <use xlink:href="#CMR17-3d" transform="translate(50.89537 0) scale(0.996264)"/>
      <use xlink:href="#CMR17-34" transform="translate(122.610158 0) scale(0.996264)"/>
     </g>
    </g>
    <g id="line2d_42">
     <path d="M 444.243693 72.508704 
L 452.493693 72.508704 
L 460.743693 72.508704 
" style="fill: none; stroke-dasharray: 5.55,2.4; stroke-dashoffset: 0; stroke: #075c2f; stroke-width: 1.5"/>
     <g>
      <use xlink:href="#m5592d05726" x="452.493693" y="72.508704" style="fill: #075c2f; stroke: #075c2f"/>
     </g>
    </g>
    <g id="text_26">
     <!-- n=6 -->
     <g transform="translate(465.143693 76.358704) scale(0.11 -0.11)">
      <use xlink:href="#CMR17-6e" transform="scale(0.996264)"/>
      <use xlink:href="#CMR17-3d" transform="translate(50.89537 0) scale(0.996264)"/>
      <use xlink:href="#CMR17-36" transform="translate(122.610158 0) scale(0.996264)"/>
     </g>
    </g>
    <g id="line2d_43">
     <path d="M 444.243693 87.839599 
L 452.493693 87.839599 
L 460.743693 87.839599 
" style="fill: none; stroke-dasharray: 9.6,2.4,1.5,2.4; stroke-dashoffset: 0; stroke: #7d8238; stroke-width: 1.5"/>
     <g>
      <use xlink:href="#m336ca5ae9f" x="452.493693" y="87.839599" style="fill: #7d8238; stroke: #7d8238"/>
     </g>
    </g>
    <g id="text_27">
     <!-- n=8 -->
     <g transform="translate(465.143693 91.689599) scale(0.11 -0.11)">
      <use xlink:href="#CMR17-6e" transform="scale(0.996264)"/>
      <use xlink:href="#CMR17-3d" transform="translate(50.89537 0) scale(0.996264)"/>
      <use xlink:href="#CMR17-38" transform="translate(122.610158 0) scale(0.996264)"/>
     </g>
    </g>
    <g id="line2d_44">
     <path d="M 444.243693 103.170493 
L 452.493693 103.170493 
L 460.743693 103.170493 
" style="fill: none; stroke-dasharray: 1.5,2.475; stroke-dashoffset: 0; stroke: #d79922; stroke-width: 1.5"/>
     <g>
      <use xlink:href="#m630af7fe5a" x="452.493693" y="103.170493" style="fill: #d79922; stroke: #d79922"/>
     </g>
    </g>
    <g id="text_28">
     <!-- n=10 -->
     <g transform="translate(465.143693 107.020493) scale(0.11 -0.11)">
      <use xlink:href="#CMR17-6e" transform="scale(0.996264)"/>
      <use xlink:href="#CMR17-3d" transform="translate(50.89537 0) scale(0.996264)"/>
      <use xlink:href="#CMR17-31" transform="translate(122.610158 0) scale(0.996264)"/>
      <use xlink:href="#CMR17-30" transform="translate(168.300635 0) scale(0.996264)"/>
     </g>
    </g>
   </g>
  </g>
 </g>
 <defs>
  <clipPath id="pd85db1c1ea">
   <rect x="53.321448" y="11.88" width="197.251642" height="102.771498"/>
  </clipPath>
  <clipPath id="p235e941ed4">
   <rect x="298.963003" y="11.88" width="197.251642" height="102.771498"/>
  </clipPath>
 </defs>
</svg>
