<?xml version="1.0" encoding="utf-8" standalone="no"?>
<!DOCTYPE svg PUBLIC "-//W3C//DTD SVG 1.1//EN"
  "http://www.w3.org/Graphics/SVG/1.1/DTD/svg11.dtd">
<svg xmlns:xlink="http://www.w3.org/1999/xlink" width="508.094645pt" height="158.779577pt" viewBox="0 0 508.094645 158.779577" xmlns="http://www.w3.org/2000/svg" version="1.1">
 <metadata>
  <rdf:RDF xmlns:dc="http://purl.org/dc/elements/1.1/" xmlns:cc="http://creativecommons.org/ns#" xmlns:rdf="http://www.w3.org/1999/02/22-rdf-syntax-ns#">
   <cc:Work>
    <dc:type rdf:resource="http://purl.org/dc/dcmitype/StillImage"/>
    <dc:date>2024-03-28T13:48:43.650937</dc:date>
    <dc:format>image/svg+xml</dc:format>
    <dc:creator>
     <cc:Agent>
      <dc:title>Matplotlib v3.8.3, https://matplotlib.org/</dc:title>
     </cc:Agent>
    </dc:creator>
   </cc:Work>
  </rdf:RDF>
 </metadata>
 <defs>
  <style type="text/css">*{stroke-linejoin: round; stroke-linecap: butt}</style>
 </defs>
 <g id="figure_1">
  <g id="patch_1">
   <path d="M 0 158.779577 
L 508.094645 158.779577 
L 508.094645 0 
L 0 0 
z
" style="fill: #ffffff"/>
  </g>
  <g id="axes_1">
   <g id="patch_2">
    <path d="M 55.421448 112.551498 
L 254.825739 112.551498 
L 254.825739 15.685173 
L 55.421448 15.685173 
z
" style="fill: #ffffff"/>
   </g>
   <g id="matplotlib.axis_1">
    <g id="xtick_1">
     <g id="line2d_1">
      <defs>
       <path id="m94ee006dd2" d="M 0 0 
L 0 3.5 
" style="stroke: #000000; stroke-width: 0.8"/>
      </defs>
      <g>
       <use xlink:href="#m94ee006dd2" x="64.485279" y="112.551498" style="stroke: #000000; stroke-width: 0.8"/>
      </g>
     </g>
     <g id="text_1">
      <!-- $\mathdefault{−2}$ -->
      <g transform="translate(57.483741 129.261845) scale(0.11 -0.11)">
       <defs>
        <path id="CMSY10-0" d="M 4218 1472 
C 4326 1472 4442 1472 4442 1600 
C 4442 1728 4326 1728 4218 1728 
L 755 1728 
C 646 1728 531 1728 531 1600 
C 531 1472 646 1472 755 1472 
L 4218 1472 
z
" transform="scale(0.015625)"/>
        <path id="CMR17-32" d="M 2669 989 
L 2554 989 
C 2490 536 2438 459 2413 420 
C 2381 369 1920 369 1830 369 
L 602 369 
C 832 619 1280 1072 1824 1597 
C 2214 1967 2669 2402 2669 3035 
C 2669 3790 2067 4224 1395 4224 
C 691 4224 262 3604 262 3030 
C 262 2780 448 2748 525 2748 
C 589 2748 781 2787 781 3010 
C 781 3207 614 3264 525 3264 
C 486 3264 448 3258 422 3245 
C 544 3790 915 4058 1306 4058 
C 1862 4058 2227 3617 2227 3035 
C 2227 2479 1901 2000 1536 1584 
L 262 146 
L 262 0 
L 2515 0 
L 2669 989 
z
" transform="scale(0.015625)"/>
       </defs>
       <use xlink:href="#CMSY10-0" transform="scale(0.996264)"/>
       <use xlink:href="#CMR17-32" transform="translate(77.487468 0) scale(0.996264)"/>
      </g>
     </g>
    </g>
    <g id="xtick_2">
     <g id="line2d_2">
      <g>
       <use xlink:href="#m94ee006dd2" x="109.804436" y="112.551498" style="stroke: #000000; stroke-width: 0.8"/>
      </g>
     </g>
     <g id="text_2">
      <!-- $\mathdefault{−1}$ -->
      <g transform="translate(102.802898 129.261845) scale(0.11 -0.11)">
       <defs>
        <path id="CMR17-31" d="M 1702 4058 
C 1702 4192 1696 4192 1606 4192 
C 1357 3916 979 3827 621 3827 
C 602 3827 570 3827 563 3808 
C 557 3795 557 3782 557 3648 
C 755 3648 1088 3686 1344 3839 
L 1344 461 
C 1344 236 1331 160 781 160 
L 589 160 
L 589 0 
C 896 0 1216 0 1523 0 
C 1830 0 2150 0 2458 0 
L 2458 160 
L 2266 160 
C 1715 160 1702 230 1702 458 
L 1702 4058 
z
" transform="scale(0.015625)"/>
       </defs>
       <use xlink:href="#CMSY10-0" transform="scale(0.996264)"/>
       <use xlink:href="#CMR17-31" transform="translate(77.487468 0) scale(0.996264)"/>
      </g>
     </g>
    </g>
    <g id="xtick_3">
     <g id="line2d_3">
      <g>
       <use xlink:href="#m94ee006dd2" x="155.123593" y="112.551498" style="stroke: #000000; stroke-width: 0.8"/>
      </g>
     </g>
     <g id="text_3">
      <!-- $\mathdefault{0}$ -->
      <g transform="translate(152.38386 129.261845) scale(0.11 -0.11)">
       <defs>
        <path id="CMR17-30" d="M 2688 2025 
C 2688 2416 2682 3080 2413 3591 
C 2176 4039 1798 4198 1466 4198 
C 1158 4198 768 4058 525 3597 
C 269 3118 243 2524 243 2025 
C 243 1661 250 1106 448 619 
C 723 -39 1216 -128 1466 -128 
C 1760 -128 2208 -7 2470 600 
C 2662 1042 2688 1559 2688 2025 
z
M 1466 -26 
C 1056 -26 813 325 723 812 
C 653 1188 653 1738 653 2096 
C 653 2588 653 2997 736 3387 
C 858 3929 1216 4096 1466 4096 
C 1728 4096 2067 3923 2189 3400 
C 2272 3036 2278 2607 2278 2096 
C 2278 1680 2278 1169 2202 792 
C 2067 95 1690 -26 1466 -26 
z
" transform="scale(0.015625)"/>
       </defs>
       <use xlink:href="#CMR17-30" transform="scale(0.996264)"/>
      </g>
     </g>
    </g>
    <g id="xtick_4">
     <g id="line2d_4">
      <g>
       <use xlink:href="#m94ee006dd2" x="200.442751" y="112.551498" style="stroke: #000000; stroke-width: 0.8"/>
      </g>
     </g>
     <g id="text_4">
      <!-- $\mathdefault{1}$ -->
      <g transform="translate(197.703017 129.261845) scale(0.11 -0.11)">
       <use xlink:href="#CMR17-31" transform="scale(0.996264)"/>
      </g>
     </g>
    </g>
    <g id="xtick_5">
     <g id="line2d_5">
      <g>
       <use xlink:href="#m94ee006dd2" x="245.761908" y="112.551498" style="stroke: #000000; stroke-width: 0.8"/>
      </g>
     </g>
     <g id="text_5">
      <!-- $\mathdefault{2}$ -->
      <g transform="translate(243.022174 129.261845) scale(0.11 -0.11)">
       <use xlink:href="#CMR17-32" transform="scale(0.996264)"/>
      </g>
     </g>
    </g>
    <g id="text_6">
     <!-- Update Size, $\norm{\bm{\theta}}_{\infty}$ -->
     <g transform="translate(109.754429 143.611918) scale(0.11 -0.11)">
      <defs>
       <path id="CMR17-55" d="M 3456 1433 
C 3456 579 2899 38 2291 38 
C 1965 38 1670 210 1491 477 
C 1286 783 1261 1178 1261 1401 
L 1261 3874 
C 1261 4160 1331 4160 1773 4160 
L 1773 4320 
C 1587 4320 1248 4320 1050 4320 
C 851 4320 512 4320 326 4320 
L 326 4160 
C 768 4160 838 4160 838 3874 
L 838 1433 
C 838 516 1536 -128 2278 -128 
C 3110 -128 3590 719 3590 1344 
L 3590 3766 
C 3590 4122 3917 4160 4102 4160 
L 4102 4326 
C 3955 4320 3686 4320 3526 4320 
C 3366 4320 3091 4320 2944 4326 
L 2944 4160 
C 3456 4160 3456 3861 3456 3702 
L 3456 1433 
z
" transform="scale(0.015625)"/>
       <path id="CMR17-70" d="M 1408 -1063 
C 998 -1063 973 -1037 973 -789 
L 973 402 
C 1158 134 1427 -38 1766 -38 
C 2406 -38 3053 523 3053 1388 
C 3053 2191 2496 2802 1837 2802 
C 1453 2802 1139 2592 960 2338 
L 960 2802 
L 198 2732 
L 198 2567 
C 576 2567 634 2528 634 2223 
L 634 -789 
C 634 -1031 608 -1063 198 -1063 
L 198 -1228 
C 352 -1216 634 -1216 800 -1216 
C 966 -1216 1254 -1216 1408 -1228 
L 1408 -1063 
z
M 973 2012 
C 973 2102 973 2235 1222 2471 
C 1254 2497 1472 2688 1792 2688 
C 2259 2688 2643 2108 2643 1382 
C 2643 656 2234 64 1728 64 
C 1498 64 1248 172 1056 472 
C 973 612 973 650 973 752 
L 973 2012 
z
" transform="scale(0.015625)"/>
       <path id="CMR17-64" d="M 1869 4326 
L 1869 4160 
C 2246 4160 2304 4122 2304 3820 
L 2304 2345 
C 2278 2377 2016 2790 1498 2790 
C 845 2790 211 2208 211 1364 
C 211 525 806 -64 1434 -64 
C 1978 -64 2259 337 2291 380 
L 2291 -63 
L 3066 -63 
L 3066 128 
C 2688 128 2630 166 2630 473 
L 2630 4396 
L 1869 4326 
z
M 2291 755 
C 2291 563 2176 390 2029 262 
C 1811 70 1594 38 1472 38 
C 1286 38 621 134 621 1356 
C 621 2612 1363 2688 1530 2688 
C 1824 2688 2061 2522 2208 2291 
C 2291 2157 2291 2138 2291 2023 
L 2291 755 
z
" transform="scale(0.015625)"/>
       <path id="CMR17-61" d="M 2304 1653 
C 2304 2072 2304 2294 2035 2543 
C 1798 2752 1523 2816 1306 2816 
C 800 2816 435 2407 435 1971 
C 435 1728 627 1728 666 1728 
C 749 1728 896 1778 896 1954 
C 896 2112 774 2181 666 2181 
C 640 2181 608 2174 589 2168 
C 723 2592 1069 2714 1293 2714 
C 1613 2714 1965 2429 1965 1885 
L 1965 1600 
C 1587 1600 1133 1549 774 1357 
C 371 1133 256 813 256 570 
C 256 77 832 -64 1171 -64 
C 1523 -64 1850 139 1990 511 
C 2003 233 2182 -18 2464 -18 
C 2598 -18 2938 70 2938 567 
L 2938 920 
L 2822 920 
L 2822 562 
C 2822 178 2650 128 2566 128 
C 2304 128 2304 458 2304 738 
L 2304 1653 
z
M 1965 870 
C 1965 317 1568 38 1216 38 
C 896 38 646 275 646 570 
C 646 761 730 1100 1101 1305 
C 1408 1478 1760 1504 1965 1504 
L 1965 870 
z
" transform="scale(0.015625)"/>
       <path id="CMR17-74" d="M 966 2560 
L 1862 2560 
L 1862 2725 
L 966 2725 
L 966 3904 
L 851 3904 
C 838 3245 614 2668 70 2668 
L 70 2560 
L 627 2560 
L 627 771 
C 627 650 627 -64 1370 -64 
C 1747 -64 1965 306 1965 777 
L 1965 1140 
L 1850 1140 
L 1850 783 
C 1850 344 1677 51 1408 51 
C 1222 51 966 178 966 758 
L 966 2560 
z
" transform="scale(0.015625)"/>
       <path id="CMR17-65" d="M 2438 1472 
C 2464 1498 2464 1511 2464 1576 
C 2464 2238 2118 2816 1389 2816 
C 710 2816 173 2169 173 1383 
C 173 551 781 -64 1459 -64 
C 2176 -64 2458 607 2458 740 
C 2458 784 2419 784 2406 784 
C 2362 784 2355 771 2330 696 
C 2189 265 1837 51 1504 51 
C 1229 51 954 203 781 480 
C 582 803 582 1176 582 1472 
L 2438 1472 
z
M 589 1568 
C 634 2505 1126 2714 1382 2714 
C 1818 2714 2112 2297 2118 1568 
L 589 1568 
z
" transform="scale(0.015625)"/>
       <path id="CMR17-53" d="M 2803 4290 
C 2803 4404 2797 4411 2758 4411 
C 2720 4411 2707 4385 2682 4328 
L 2490 3907 
C 2246 4257 1875 4416 1472 4416 
C 819 4416 294 3901 294 3253 
C 294 3056 339 2776 557 2510 
C 794 2218 1018 2167 1530 2033 
C 1722 1982 2042 1899 2106 1874 
C 2470 1722 2662 1341 2662 985 
C 2662 527 2336 38 1779 38 
C 1094 38 454 419 410 1311 
C 403 1413 397 1419 352 1419 
C 301 1419 294 1413 294 1285 
L 294 -1 
C 294 -115 301 -122 339 -122 
C 384 -122 397 -90 486 108 
C 493 127 493 140 614 381 
C 934 -39 1472 -128 1779 -128 
C 2477 -128 2970 451 2970 1124 
C 2970 1454 2848 1708 2778 1823 
C 2509 2230 2221 2306 1914 2382 
C 1869 2402 1856 2402 1498 2490 
C 1152 2579 1005 2624 845 2796 
C 666 2992 602 3196 602 3399 
C 602 3812 934 4263 1478 4263 
C 2157 4263 2579 3786 2675 2993 
C 2694 2878 2701 2872 2746 2872 
C 2803 2872 2803 2891 2803 2999 
L 2803 4290 
z
" transform="scale(0.015625)"/>
       <path id="CMR17-69" d="M 992 3909 
C 992 4049 877 4170 730 4170 
C 589 4170 467 4056 467 3909 
C 467 3769 582 3648 730 3648 
C 870 3648 992 3763 992 3909 
z
M 243 2706 
L 243 2541 
C 602 2541 653 2502 653 2197 
L 653 427 
C 653 184 627 153 218 153 
L 218 -13 
C 371 0 646 0 806 0 
C 960 0 1222 0 1370 -13 
L 1370 153 
C 992 153 979 191 979 420 
L 979 2776 
L 243 2706 
z
" transform="scale(0.015625)"/>
       <path id="CMR17-7a" d="M 2310 2605 
C 2362 2670 2362 2682 2362 2695 
C 2362 2752 2336 2752 2221 2752 
L 275 2752 
L 211 1760 
L 326 1760 
C 371 2381 442 2650 1178 2650 
L 1958 2650 
L 128 96 
C 128 0 134 0 269 0 
L 2291 0 
L 2381 1152 
L 2266 1152 
C 2214 442 2131 115 1350 115 
L 531 115 
L 2310 2605 
z
" transform="scale(0.015625)"/>
       <path id="CMR17-2c" d="M 1011 102 
C 1024 45 1024 25 1024 -77 
C 1024 -463 896 -817 627 -1139 
C 595 -1170 595 -1183 595 -1197 
C 595 -1222 621 -1248 646 -1248 
C 685 -1248 1126 -799 1126 -87 
C 1126 124 1101 522 800 522 
C 659 522 538 427 538 261 
C 538 96 659 0 800 0 
C 877 0 960 32 1011 102 
z
" transform="scale(0.015625)"/>
       <path id="CMSY10-6b" d="M 1103 4582 
C 1103 4685 1103 4800 975 4800 
C 847 4800 847 4659 847 4563 
L 847 -1363 
C 847 -1466 847 -1600 975 -1600 
C 1103 -1600 1103 -1485 1103 -1382 
L 1103 4582 
z
M 2351 4563 
C 2351 4666 2351 4800 2223 4800 
C 2095 4800 2095 4685 2095 4582 
L 2095 -1382 
C 2095 -1485 2095 -1600 2223 -1600 
C 2351 -1600 2351 -1459 2351 -1363 
L 2351 4563 
z
" transform="scale(0.015625)"/>
       <path id="CMMIB10-12" d="M 3501 3123 
C 3501 4250 2835 4480 2445 4480 
C 1939 4480 1299 4148 819 3277 
C 493 2675 294 1805 294 1287 
C 294 359 781 -64 1357 -64 
C 1786 -64 2349 186 2790 839 
C 3328 1626 3501 2644 3501 3123 
z
M 1267 2353 
C 1357 2727 1523 3312 1715 3647 
C 1862 3910 2125 4251 2432 4251 
C 2701 4251 2816 3969 2816 3589 
C 2816 3183 2675 2623 2605 2353 
L 1267 2353 
z
M 2528 2048 
C 2131 338 1594 165 1370 165 
C 1280 165 1146 190 1056 389 
C 979 560 979 809 979 816 
C 979 1180 1120 1773 1190 2048 
L 2528 2048 
z
" transform="scale(0.015625)"/>
       <path id="CMSY10-31" d="M 3251 1730 
C 2906 2166 2829 2262 2630 2422 
C 2272 2710 1914 2825 1587 2825 
C 838 2825 352 2122 352 1374 
C 352 639 826 -70 1562 -70 
C 2298 -70 2829 511 3142 1022 
C 3488 588 3565 492 3763 332 
C 4122 45 4480 -70 4806 -70 
C 5555 -70 6042 633 6042 1380 
C 6042 2115 5568 2825 4832 2825 
C 4096 2825 3565 2242 3251 1730 
z
M 3418 1514 
C 3680 1975 4154 2620 4877 2620 
C 5555 2620 5901 1955 5901 1380 
C 5901 753 5472 236 4909 236 
C 4538 236 4250 505 4115 638 
C 3955 811 3808 1009 3418 1514 
z
M 2976 1240 
C 2714 780 2240 134 1517 134 
C 838 134 493 799 493 1374 
C 493 2000 922 2518 1485 2518 
C 1856 2518 2144 2249 2278 2115 
C 2438 1943 2586 1744 2976 1240 
z
" transform="scale(0.015625)"/>
      </defs>
      <use xlink:href="#CMR17-55" transform="scale(0.996264)"/>
      <use xlink:href="#CMR17-70" transform="translate(69.07243 0) scale(0.996264)"/>
      <use xlink:href="#CMR17-64" transform="translate(122.570238 0) scale(0.996264)"/>
      <use xlink:href="#CMR17-61" transform="translate(173.465608 0) scale(0.996264)"/>
      <use xlink:href="#CMR17-74" transform="translate(219.156085 0) scale(0.996264)"/>
      <use xlink:href="#CMR17-65" transform="translate(254.436853 0) scale(0.996264)"/>
      <use xlink:href="#CMR17-53" transform="translate(324.99848 0) scale(0.996264)"/>
      <use xlink:href="#CMR17-69" transform="translate(375.89385 0) scale(0.996264)"/>
      <use xlink:href="#CMR17-7a" transform="translate(400.764908 0) scale(0.996264)"/>
      <use xlink:href="#CMR17-65" transform="translate(441.250569 0) scale(0.996264)"/>
      <use xlink:href="#CMR17-2c" transform="translate(481.736229 0) scale(0.996264)"/>
      <use xlink:href="#CMSY10-6b" transform="translate(536.683254 0) scale(0.996264)"/>
      <use xlink:href="#CMMIB10-12" transform="translate(586.496637 0) scale(0.996264)"/>
      <use xlink:href="#CMSY10-6b" transform="translate(645.649524 0) scale(0.996264)"/>
      <use xlink:href="#CMSY10-31" transform="translate(695.462906 -28.393509) scale(0.697382)"/>
     </g>
    </g>
   </g>
   <g id="matplotlib.axis_2">
    <g id="ytick_1">
     <g id="line2d_6">
      <defs>
       <path id="ma82f9466f9" d="M 0 0 
L -3.5 0 
" style="stroke: #000000; stroke-width: 0.8"/>
      </defs>
      <g>
       <use xlink:href="#ma82f9466f9" x="55.421448" y="108.148483" style="stroke: #000000; stroke-width: 0.8"/>
      </g>
     </g>
     <g id="text_7">
      <!-- $\mathdefault{0.0}$ -->
      <g transform="translate(32.318371 111.953657) scale(0.11 -0.11)">
       <defs>
        <path id="CMMI12-3a" d="M 1178 307 
C 1178 492 1024 619 870 619 
C 685 619 557 466 557 313 
C 557 128 710 0 864 0 
C 1050 0 1178 153 1178 307 
z
" transform="scale(0.015625)"/>
       </defs>
       <use xlink:href="#CMR17-30" transform="scale(0.996264)"/>
       <use xlink:href="#CMMI12-3a" transform="translate(45.690477 0) scale(0.996264)"/>
       <use xlink:href="#CMR17-30" transform="translate(72.787654 0) scale(0.996264)"/>
      </g>
     </g>
    </g>
    <g id="ytick_2">
     <g id="line2d_7">
      <g>
       <use xlink:href="#ma82f9466f9" x="55.421448" y="64.11812" style="stroke: #000000; stroke-width: 0.8"/>
      </g>
     </g>
     <g id="text_8">
      <!-- $\mathdefault{0.5}$ -->
      <g transform="translate(32.318371 67.923293) scale(0.11 -0.11)">
       <defs>
        <path id="CMR17-35" d="M 730 3692 
C 794 3666 1056 3584 1325 3584 
C 1920 3584 2246 3911 2432 4100 
C 2432 4157 2432 4192 2394 4192 
C 2387 4192 2374 4192 2323 4163 
C 2099 4058 1837 3973 1517 3973 
C 1325 3973 1037 3999 723 4139 
C 653 4171 640 4171 634 4171 
C 602 4171 595 4164 595 4037 
L 595 2203 
C 595 2089 595 2057 659 2057 
C 691 2057 704 2070 736 2114 
C 941 2401 1222 2522 1542 2522 
C 1766 2522 2246 2382 2246 1289 
C 2246 1085 2246 715 2054 421 
C 1894 159 1645 25 1370 25 
C 947 25 518 320 403 814 
C 429 807 480 795 506 795 
C 589 795 749 840 749 1038 
C 749 1210 627 1280 506 1280 
C 358 1280 262 1190 262 1011 
C 262 454 704 -128 1382 -128 
C 2042 -128 2669 440 2669 1264 
C 2669 2030 2170 2624 1549 2624 
C 1222 2624 947 2503 730 2274 
L 730 3692 
z
" transform="scale(0.015625)"/>
       </defs>
       <use xlink:href="#CMR17-30" transform="scale(0.996264)"/>
       <use xlink:href="#CMMI12-3a" transform="translate(45.690477 0) scale(0.996264)"/>
       <use xlink:href="#CMR17-35" transform="translate(72.787654 0) scale(0.996264)"/>
      </g>
     </g>
    </g>
    <g id="ytick_3">
     <g id="line2d_8">
      <g>
       <use xlink:href="#ma82f9466f9" x="55.421448" y="20.087757" style="stroke: #000000; stroke-width: 0.8"/>
      </g>
     </g>
     <g id="text_9">
      <!-- $\mathdefault{1.0}$ -->
      <g transform="translate(32.318371 23.89293) scale(0.11 -0.11)">
       <use xlink:href="#CMR17-31" transform="scale(0.996264)"/>
       <use xlink:href="#CMMI12-3a" transform="translate(45.690477 0) scale(0.996264)"/>
       <use xlink:href="#CMR17-30" transform="translate(72.787654 0) scale(0.996264)"/>
      </g>
     </g>
    </g>
    <g id="text_10">
     <!-- Infidelity, $\mathcal{L}(\bm{\theta})$ -->
     <g transform="translate(25.578645 99.765999) rotate(-90) scale(0.11 -0.11)">
      <defs>
       <path id="CMR17-49" d="M 1261 3905 
C 1261 4192 1338 4192 1798 4192 
L 1798 4352 
C 1594 4352 1267 4352 1050 4352 
C 832 4352 506 4352 301 4352 
L 301 4192 
C 762 4192 838 4192 838 3905 
L 838 447 
C 838 160 762 160 301 160 
L 301 0 
C 506 0 832 0 1050 0 
C 1267 0 1594 0 1798 0 
L 1798 160 
C 1338 160 1261 160 1261 447 
L 1261 3905 
z
" transform="scale(0.015625)"/>
       <path id="CMR17-6e" d="M 2656 1933 
C 2656 2259 2592 2790 1837 2790 
C 1331 2790 1069 2400 973 2144 
L 966 2144 
L 966 2790 
L 211 2720 
L 211 2554 
C 589 2554 646 2515 646 2208 
L 646 428 
C 646 184 621 153 211 153 
L 211 -13 
C 365 0 646 0 813 0 
C 979 0 1267 0 1421 -13 
L 1421 153 
C 1011 153 986 178 986 428 
L 986 1658 
C 986 2247 1344 2688 1792 2688 
C 2266 2688 2317 2266 2317 1958 
L 2317 428 
C 2317 184 2291 153 1882 153 
L 1882 -13 
C 2035 0 2317 0 2483 0 
C 2650 0 2938 0 3091 -13 
L 3091 153 
C 2682 153 2656 178 2656 428 
L 2656 1933 
z
" transform="scale(0.015625)"/>
       <path id="CMR17-c" d="M 2554 2764 
C 2400 2764 1926 2764 1805 2739 
C 1766 2725 1754 2725 1677 2725 
L 947 2725 
L 947 3469 
C 947 4073 1434 4352 1818 4352 
C 1939 4352 2214 4320 2355 4101 
C 2291 4101 2086 4101 2086 3878 
C 2086 3725 2189 3648 2317 3648 
C 2432 3648 2547 3712 2547 3885 
C 2547 4205 2240 4454 1843 4454 
C 1338 4454 634 4168 634 3469 
L 634 2725 
L 122 2725 
L 122 2560 
L 634 2560 
L 634 427 
C 634 184 608 153 198 153 
L 198 -13 
C 352 0 634 0 794 0 
C 960 0 1242 0 1395 -13 
L 1395 153 
C 986 153 960 178 960 427 
L 960 2560 
L 1901 2560 
C 2176 2560 2227 2502 2227 2222 
L 2227 427 
C 2227 184 2202 153 1792 153 
L 1792 -13 
C 1946 0 2227 0 2387 0 
C 2554 0 2835 0 2989 -13 
L 2989 153 
C 2579 153 2554 178 2554 427 
L 2554 2764 
z
" transform="scale(0.015625)"/>
       <path id="CMR17-6c" d="M 979 4396 
L 218 4326 
L 218 4160 
C 595 4160 653 4122 653 3817 
L 653 426 
C 653 184 627 153 218 153 
L 218 -13 
C 371 0 653 0 813 0 
C 979 0 1261 0 1414 -13 
L 1414 153 
C 1005 153 979 178 979 426 
L 979 4396 
z
" transform="scale(0.015625)"/>
       <path id="CMR17-79" d="M 2496 2197 
C 2656 2586 2944 2586 3034 2586 
L 3034 2752 
C 2912 2752 2752 2752 2630 2752 
C 2496 2752 2285 2752 2157 2758 
L 2157 2592 
C 2400 2573 2406 2394 2406 2343 
C 2406 2280 2394 2248 2362 2171 
L 1664 449 
L 902 2306 
C 870 2382 870 2426 870 2433 
C 870 2573 1018 2586 1171 2586 
L 1171 2758 
C 1018 2752 742 2752 582 2752 
C 410 2752 205 2752 64 2758 
L 64 2586 
C 410 2586 448 2554 531 2350 
L 1485 15 
C 1197 -738 1030 -1178 627 -1178 
C 557 -1178 397 -1159 282 -1044 
C 429 -1031 493 -942 493 -833 
C 493 -725 416 -629 288 -629 
C 147 -629 77 -725 77 -840 
C 77 -1095 339 -1280 627 -1280 
C 998 -1280 1229 -922 1357 -604 
L 2496 2197 
z
" transform="scale(0.015625)"/>
       <path id="CMSY10-4c" d="M 1152 610 
C 1498 1151 1606 1562 1690 1903 
C 1914 2790 2157 3562 2554 4005 
C 2630 4090 2682 4147 2886 4147 
C 3328 4147 3341 3704 3341 3613 
C 3341 3498 3309 3407 3309 3375 
C 3309 3330 3347 3330 3354 3330 
C 3456 3330 3629 3401 3789 3517 
C 3904 3607 3962 3671 3962 3934 
C 3962 4281 3782 4544 3424 4544 
C 3219 4544 2656 4493 2029 3856 
C 1517 3329 1216 2172 1094 1690 
C 979 1248 928 1048 736 662 
C 691 586 525 303 435 219 
C 262 59 198 -57 198 -89 
C 198 -102 211 -128 256 -128 
C 282 -128 416 -102 582 5 
C 691 68 704 80 851 231 
C 1171 231 1395 173 1798 58 
C 2125 -32 2451 -128 2778 -128 
C 3296 -128 3821 264 4026 546 
C 4154 719 4192 880 4192 899 
C 4192 944 4154 944 4147 944 
C 4045 944 3891 874 3782 796 
C 3610 687 3597 649 3558 539 
C 3526 436 3488 385 3462 346 
C 3411 269 3405 269 3309 269 
C 3002 269 2682 366 2259 481 
C 2080 532 1728 636 1408 636 
C 1325 636 1235 629 1152 610 
z
" transform="scale(0.015625)"/>
       <path id="CMR17-28" d="M 1958 -1561 
C 1958 -1555 1958 -1542 1939 -1523 
C 1645 -1224 858 -407 858 1581 
C 858 3569 1632 4379 1946 4697 
C 1946 4704 1958 4717 1958 4736 
C 1958 4755 1939 4768 1914 4768 
C 1843 4768 1299 4296 986 3594 
C 666 2887 576 2199 576 1588 
C 576 1128 621 351 1005 -471 
C 1312 -1135 1837 -1600 1914 -1600 
C 1946 -1600 1958 -1587 1958 -1561 
z
" transform="scale(0.015625)"/>
       <path id="CMR17-29" d="M 1683 1581 
C 1683 2040 1638 2817 1254 3639 
C 947 4303 422 4768 346 4768 
C 326 4768 301 4761 301 4729 
C 301 4717 307 4710 314 4697 
C 621 4378 1402 3568 1402 1584 
C 1402 -407 627 -1217 314 -1537 
C 307 -1549 301 -1556 301 -1568 
C 301 -1600 326 -1600 346 -1600 
C 416 -1600 960 -1128 1274 -426 
C 1594 281 1683 969 1683 1581 
z
" transform="scale(0.015625)"/>
      </defs>
      <use xlink:href="#CMR17-49" transform="scale(0.996264)"/>
      <use xlink:href="#CMR17-6e" transform="translate(32.638409 0) scale(0.996264)"/>
      <use xlink:href="#CMR17-c" transform="translate(83.533779 0) scale(0.996264)"/>
      <use xlink:href="#CMR17-64" transform="translate(133.276002 0) scale(0.996264)"/>
      <use xlink:href="#CMR17-65" transform="translate(184.171372 0) scale(0.996264)"/>
      <use xlink:href="#CMR17-6c" transform="translate(224.657033 0) scale(0.996264)"/>
      <use xlink:href="#CMR17-69" transform="translate(249.528091 0) scale(0.996264)"/>
      <use xlink:href="#CMR17-74" transform="translate(274.39915 0) scale(0.996264)"/>
      <use xlink:href="#CMR17-79" transform="translate(307.077463 0) scale(0.996264)"/>
      <use xlink:href="#CMR17-2c" transform="translate(347.563124 0) scale(0.996264)"/>
      <use xlink:href="#CMSY10-4c" transform="translate(402.510149 0) scale(0.996264)"/>
      <use xlink:href="#CMR17-28" transform="translate(471.224957 0) scale(0.996264)"/>
      <use xlink:href="#CMMIB10-12" transform="translate(506.505724 0) scale(0.996264)"/>
      <use xlink:href="#CMR17-29" transform="translate(565.658611 0) scale(0.996264)"/>
     </g>
    </g>
   </g>
   <g id="line2d_9">
    <path d="M 64.485279 28.042638 
L 65.572939 27.574554 
L 66.660599 27.357085 
L 67.748258 27.387013 
L 68.835918 27.655713 
L 69.923578 28.14849 
L 71.373791 29.116037 
L 72.824004 30.372315 
L 74.999323 32.588714 
L 77.89975 35.543935 
L 79.349963 36.743225 
L 80.437622 37.432233 
L 81.525282 37.905178 
L 82.612942 38.143969 
L 83.700602 38.145278 
L 84.788261 37.920996 
L 85.875921 37.497347 
L 87.326134 36.689835 
L 89.864007 34.933095 
L 92.40188 33.254193 
L 94.214646 32.320322 
L 96.027412 31.623738 
L 100.740605 29.989487 
L 102.190818 29.197155 
L 103.641031 28.172017 
L 105.453797 26.588801 
L 110.529543 21.804405 
L 111.979756 20.861303 
L 113.067416 20.389344 
L 114.155075 20.136102 
L 115.242735 20.099047 
L 116.330395 20.260385 
L 117.780608 20.730992 
L 119.593374 21.60107 
L 123.218907 23.693468 
L 125.75678 25.313221 
L 127.206993 26.453572 
L 128.657206 27.919458 
L 129.744865 29.328374 
L 130.832525 31.075582 
L 131.920185 33.218015 
L 133.007845 35.798736 
L 134.458058 39.961398 
L 135.908271 44.944523 
L 137.721037 52.211675 
L 139.896357 62.061029 
L 144.972102 85.731388 
L 146.784868 92.951168 
L 148.235081 97.842529 
L 149.322741 100.915858 
L 150.410401 103.445776 
L 151.498061 105.420481 
L 152.585721 106.843971 
L 153.310827 107.495272 
L 154.035934 107.918143 
L 154.76104 108.123462 
L 155.486147 108.124069 
L 156.211253 107.934482 
L 156.93636 107.570626 
L 158.024019 106.735625 
L 159.111679 105.607996 
L 160.561892 103.75898 
L 162.737212 100.551961 
L 166.000191 95.712559 
L 167.812957 93.45311 
L 169.26317 92.025505 
L 170.35083 91.219771 
L 171.43849 90.661875 
L 172.52615 90.362363 
L 173.61381 90.324376 
L 174.701469 90.543883 
L 175.789129 91.010041 
L 176.876789 91.70567 
L 178.327002 92.949708 
L 179.777215 94.492027 
L 181.952534 97.18346 
L 186.303174 102.731015 
L 187.753387 104.251156 
L 189.2036 105.436618 
L 190.291259 106.049061 
L 191.378919 106.38375 
L 192.466579 106.408271 
L 193.191685 106.238382 
L 193.916792 105.911275 
L 195.004452 105.113566 
L 196.092111 103.935324 
L 197.179771 102.369254 
L 198.267431 100.415297 
L 199.717644 97.220579 
L 201.167857 93.388859 
L 202.980623 87.799455 
L 205.155943 80.1456 
L 208.056369 68.951171 
L 212.407008 52.100433 
L 214.582328 44.537432 
L 216.395094 38.989178 
L 217.845307 35.127244 
L 219.29552 31.808597 
L 220.745733 29.034068 
L 222.195946 26.780828 
L 223.646159 25.006294 
L 225.096372 23.653315 
L 226.546585 22.65603 
L 227.996798 21.945751 
L 229.809564 21.361158 
L 231.984884 20.956543 
L 234.88531 20.682334 
L 241.773822 20.340499 
L 245.761908 20.205859 
L 245.761908 20.205859 
" clip-path="url(#pe7ce0bf5d8)" style="fill: none; stroke: #edb081; stroke-width: 1.5; stroke-linecap: square"/>
   </g>
   <g id="line2d_10">
    <path d="M 64.485279 29.232622 
L 65.572939 28.900921 
L 66.660599 28.842241 
L 67.748258 29.051081 
L 68.835918 29.515246 
L 69.923578 30.215081 
L 71.373791 31.465469 
L 73.186557 33.407422 
L 77.537196 38.35805 
L 78.987409 39.589595 
L 80.075069 40.237104 
L 81.162729 40.604889 
L 82.250389 40.671174 
L 83.338048 40.432266 
L 84.425708 39.903364 
L 85.513368 39.117721 
L 86.963581 37.756873 
L 89.501454 34.932764 
L 91.676773 32.58685 
L 93.48954 30.975614 
L 94.939753 29.972242 
L 96.752519 29.028222 
L 102.553371 26.364465 
L 104.366137 25.109137 
L 109.804436 21.013357 
L 110.892096 20.502614 
L 111.979756 20.195446 
L 113.067416 20.110399 
L 114.155075 20.248265 
L 115.242735 20.592378 
L 116.692948 21.31556 
L 118.505714 22.49672 
L 123.218907 25.712563 
L 126.844439 28.077673 
L 128.294652 29.357281 
L 129.382312 30.591048 
L 130.469972 32.135427 
L 131.557632 34.048852 
L 132.645291 36.375231 
L 133.732951 39.139993 
L 135.183164 43.512868 
L 136.633377 48.621146 
L 138.446144 55.862189 
L 141.34657 68.595498 
L 144.609549 82.720654 
L 146.422315 89.653384 
L 147.872528 94.459409 
L 149.322741 98.494555 
L 150.410401 100.978613 
L 151.498061 102.986849 
L 152.585721 104.522805 
L 153.67338 105.601108 
L 154.398487 106.077377 
L 155.123593 106.370165 
L 155.8487 106.490177 
L 156.573806 106.44934 
L 157.661466 106.115085 
L 158.749126 105.495432 
L 159.836786 104.640531 
L 161.286999 103.224579 
L 163.824872 100.335342 
L 166.725298 97.089819 
L 168.175511 95.73526 
L 169.625724 94.669643 
L 170.713383 94.096695 
L 171.801043 93.737784 
L 172.888703 93.603549 
L 173.976363 93.697634 
L 175.064023 94.016744 
L 176.151682 94.550885 
L 177.601895 95.56855 
L 179.052108 96.884516 
L 180.864875 98.841333 
L 187.02828 105.827105 
L 188.478493 106.99294 
L 189.566153 107.623281 
L 190.653813 108.005058 
L 191.741472 108.106643 
L 192.829132 107.900673 
L 193.916792 107.364677 
L 195.004452 106.481621 
L 196.092111 105.24035 
L 197.179771 103.635913 
L 198.267431 101.669754 
L 199.717644 98.500114 
L 201.167857 94.738504 
L 202.980623 89.290319 
L 205.155943 81.856903 
L 208.056369 70.96455 
L 213.132115 51.742718 
L 215.307434 44.413305 
L 217.1202 39.039841 
L 218.570413 35.297528 
L 220.020626 32.077317 
L 221.470839 29.378714 
L 222.921053 27.178942 
L 224.371266 25.436722 
L 225.821479 24.097336 
L 227.271692 23.098317 
L 228.721905 22.375033 
L 230.534671 21.764877 
L 232.70999 21.325842 
L 235.610417 21.012537 
L 243.586588 20.515972 
L 245.761908 20.387442 
L 245.761908 20.387442 
" clip-path="url(#pe7ce0bf5d8)" style="fill: none; stroke: #eb9b74; stroke-opacity: 0.5; stroke-linecap: square"/>
   </g>
   <g id="line2d_11">
    <path d="M 64.485279 35.61434 
L 66.298045 36.794685 
L 69.198471 39.03742 
L 71.373791 40.62259 
L 72.824004 41.398249 
L 73.911664 41.736573 
L 74.999323 41.809417 
L 76.086983 41.576545 
L 77.174643 41.012324 
L 78.262303 40.109116 
L 79.349963 38.879433 
L 80.800176 36.792359 
L 82.612942 33.659221 
L 86.601028 26.47308 
L 88.051241 24.374801 
L 89.138901 23.128932 
L 90.22656 22.19701 
L 91.31422 21.58322 
L 92.40188 21.268655 
L 93.48954 21.213937 
L 94.577199 21.363686 
L 96.389966 21.88797 
L 99.290392 22.770418 
L 100.740605 22.985251 
L 102.190818 22.985171 
L 104.003584 22.725659 
L 108.354223 21.911492 
L 109.804436 21.927996 
L 111.254649 22.190884 
L 112.704862 22.694868 
L 114.517629 23.581922 
L 118.868268 25.848426 
L 120.681034 26.454289 
L 122.4938 26.803285 
L 126.119333 27.373508 
L 127.206993 27.768548 
L 128.294652 28.390335 
L 129.382312 29.304598 
L 130.469972 30.567589 
L 131.557632 32.222143 
L 132.645291 34.294815 
L 133.732951 36.79425 
L 135.183164 40.771459 
L 136.633377 45.417796 
L 138.446144 51.984819 
L 141.34657 63.512588 
L 144.972102 77.800377 
L 146.784868 84.179146 
L 148.597635 89.733285 
L 150.047848 93.478284 
L 151.498061 96.550088 
L 152.585721 98.398836 
L 153.67338 99.85711 
L 154.76104 100.932271 
L 155.8487 101.638233 
L 156.93636 101.994948 
L 158.024019 102.027897 
L 159.111679 101.767585 
L 160.199339 101.248999 
L 161.286999 100.511026 
L 162.737212 99.258996 
L 164.912531 97.024781 
L 168.538064 93.27123 
L 169.988277 92.06432 
L 171.43849 91.159076 
L 172.52615 90.718566 
L 173.61381 90.505284 
L 174.701469 90.531771 
L 175.789129 90.802713 
L 176.876789 91.314799 
L 177.964449 92.056841 
L 179.414662 93.37064 
L 180.864875 94.996305 
L 183.040194 97.838464 
L 187.753387 104.171171 
L 189.2036 105.737651 
L 190.653813 106.950969 
L 191.741472 107.578102 
L 192.829132 107.928409 
L 193.916792 107.976081 
L 195.004452 107.700451 
L 196.092111 107.086258 
L 197.179771 106.123834 
L 198.267431 104.809206 
L 199.355091 103.1441 
L 200.442751 101.135871 
L 201.892964 97.947405 
L 203.343177 94.217012 
L 205.155943 88.884121 
L 207.331262 81.696896 
L 210.594242 69.933701 
L 215.307434 52.899189 
L 217.482754 45.795408 
L 219.29552 40.502907 
L 221.108286 35.88628 
L 222.558499 32.717167 
L 224.008712 30.02207 
L 225.458925 27.788838 
L 226.909138 25.988597 
L 228.359351 24.578605 
L 229.809564 23.506038 
L 231.259777 22.712373 
L 233.072544 22.021788 
L 235.247863 21.49331 
L 238.148289 21.055706 
L 244.311695 20.408913 
L 245.761908 20.297423 
L 245.761908 20.297423 
" clip-path="url(#pe7ce0bf5d8)" style="fill: none; stroke: #e98768; stroke-opacity: 0.5; stroke-linecap: square"/>
   </g>
   <g id="line2d_12">
    <path d="M 64.485279 37.886409 
L 65.935492 38.376613 
L 67.385705 38.631781 
L 68.473365 38.630156 
L 69.561025 38.436235 
L 70.648684 38.031491 
L 71.736344 37.405002 
L 72.824004 36.555334 
L 74.274217 35.093127 
L 75.72443 33.30581 
L 77.89975 30.214442 
L 81.525282 24.992852 
L 82.975495 23.251752 
L 84.425708 21.861377 
L 85.513368 21.08284 
L 86.601028 20.539787 
L 87.688688 20.225396 
L 88.776347 20.120188 
L 90.22656 20.252237 
L 92.039327 20.724677 
L 97.840179 22.566243 
L 100.378052 22.982516 
L 105.091244 23.639873 
L 107.266563 24.24104 
L 109.441883 25.091155 
L 114.517629 27.223654 
L 116.330395 27.667866 
L 118.143161 27.833979 
L 119.955927 27.758228 
L 123.944013 27.447262 
L 125.394226 27.629839 
L 126.481886 27.989641 
L 127.569546 28.591554 
L 128.657206 29.473418 
L 129.744865 30.663311 
L 130.832525 32.178156 
L 131.920185 34.023061 
L 133.370398 36.983293 
L 134.820611 40.471663 
L 136.633377 45.459188 
L 139.17125 53.262657 
L 145.697209 73.889686 
L 147.872528 79.853531 
L 149.685295 84.198211 
L 151.135508 87.207719 
L 152.585721 89.773583 
L 154.035934 91.880437 
L 155.486147 93.523846 
L 156.573806 94.455968 
L 157.661466 95.138304 
L 158.749126 95.582026 
L 159.836786 95.802301 
L 160.924446 95.818296 
L 162.374659 95.562257 
L 163.824872 95.04913 
L 165.637638 94.160299 
L 170.35083 91.680455 
L 171.801043 91.188973 
L 173.251256 90.948619 
L 174.338916 90.963344 
L 175.426576 91.161169 
L 176.514236 91.549427 
L 177.601895 92.128595 
L 179.052108 93.185643 
L 180.502321 94.535967 
L 182.315088 96.55355 
L 185.215514 100.202186 
L 188.11594 103.752412 
L 189.928706 105.597593 
L 191.378919 106.732863 
L 192.466579 107.337964 
L 193.554239 107.703233 
L 194.641898 107.807392 
L 195.729558 107.633514 
L 196.817218 107.169057 
L 197.904878 106.405807 
L 198.992538 105.339748 
L 200.080197 103.970891 
L 201.167857 102.303082 
L 202.61807 99.627719 
L 204.068283 96.461706 
L 205.881049 91.87182 
L 207.693816 86.667204 
L 209.869135 79.771599 
L 213.132115 68.588804 
L 218.20786 51.117116 
L 220.745733 43.266104 
L 222.558499 38.301328 
L 224.371266 33.980907 
L 225.821479 31.027171 
L 227.271692 28.531618 
L 228.721905 26.486433 
L 230.172118 24.867313 
L 231.622331 23.635415 
L 233.072544 22.740335 
L 234.522757 22.12393 
L 236.335523 21.651576 
L 238.510843 21.369183 
L 242.861482 21.134151 
L 245.761908 20.956056 
L 245.761908 20.956056 
" clip-path="url(#pe7ce0bf5d8)" style="fill: none; stroke: #e5715e; stroke-width: 1.5; stroke-linecap: square"/>
   </g>
   <g id="line2d_13">
    <path d="M 64.485279 33.195123 
L 65.935492 32.785104 
L 67.385705 32.133478 
L 68.835918 31.251227 
L 70.648684 29.868438 
L 73.186557 27.582894 
L 77.174643 23.963794 
L 78.987409 22.637327 
L 80.437622 21.817696 
L 81.887835 21.240052 
L 83.338048 20.906652 
L 84.788261 20.799292 
L 86.601028 20.928677 
L 88.776347 21.349586 
L 100.740605 24.339728 
L 103.641031 25.289236 
L 110.529543 27.733415 
L 112.342309 28.069794 
L 114.155075 28.168083 
L 115.967842 28.034665 
L 118.505714 27.583189 
L 121.40614 27.085625 
L 122.856353 27.036095 
L 124.306567 27.229856 
L 125.394226 27.578623 
L 126.481886 28.129449 
L 127.569546 28.900459 
L 128.657206 29.902772 
L 130.107419 31.604634 
L 131.557632 33.71347 
L 133.007845 36.199087 
L 134.820611 39.764466 
L 136.995931 44.563131 
L 140.25891 52.37493 
L 145.697209 65.430497 
L 148.597635 71.758 
L 150.772954 76.020298 
L 152.948274 79.77944 
L 154.76104 82.479289 
L 156.573806 84.754332 
L 158.024019 86.257388 
L 159.474232 87.478289 
L 160.924446 88.426074 
L 162.374659 89.119768 
L 163.824872 89.588839 
L 165.637638 89.920498 
L 167.812957 90.074782 
L 171.801043 90.292526 
L 173.61381 90.629822 
L 175.064023 91.097778 
L 176.514236 91.77615 
L 177.964449 92.680585 
L 179.777215 94.125707 
L 181.589981 95.881272 
L 184.127854 98.703904 
L 188.478493 103.635177 
L 190.291259 105.337187 
L 191.741472 106.408981 
L 192.829132 107.003045 
L 193.916792 107.392442 
L 195.004452 107.558575 
L 196.092111 107.486537 
L 197.179771 107.165146 
L 198.267431 106.586872 
L 199.355091 105.747655 
L 200.442751 104.646663 
L 201.53041 103.286006 
L 202.980623 101.076423 
L 204.430836 98.43156 
L 206.243603 94.550517 
L 208.056369 90.086447 
L 210.231689 84.061676 
L 212.769561 76.30041 
L 216.395094 64.386413 
L 221.108286 48.933307 
L 223.646159 41.390088 
L 225.458925 36.593951 
L 227.271692 32.408814 
L 228.721905 29.550161 
L 230.172118 27.149509 
L 231.622331 25.21057 
L 233.072544 23.7201 
L 234.160203 22.879324 
L 235.247863 22.256479 
L 236.698076 21.726525 
L 238.148289 21.483971 
L 239.598502 21.462206 
L 241.773822 21.694944 
L 245.761908 22.335077 
L 245.761908 22.335077 
" clip-path="url(#pe7ce0bf5d8)" style="fill: none; stroke: #de5d5c; stroke-opacity: 0.5; stroke-linecap: square"/>
   </g>
   <g id="line2d_14">
    <path d="M 64.485279 27.327524 
L 66.660599 26.397618 
L 69.923578 24.710545 
L 73.54911 22.885446 
L 75.72443 22.038329 
L 77.537196 21.546817 
L 79.349963 21.267384 
L 81.162729 21.189939 
L 83.338048 21.319781 
L 86.238474 21.747075 
L 92.039327 22.908986 
L 97.477625 24.165111 
L 102.553371 25.612906 
L 106.178904 26.554134 
L 108.354223 26.909346 
L 110.529543 27.029703 
L 112.704862 26.90392 
L 115.242735 26.518376 
L 119.593374 25.82723 
L 121.40614 25.796761 
L 122.856353 25.980355 
L 124.306567 26.391887 
L 125.75678 27.059196 
L 127.206993 27.997229 
L 128.657206 29.207803 
L 130.107419 30.680594 
L 131.920185 32.858402 
L 134.095504 35.890798 
L 136.633377 39.864947 
L 140.25891 46.039436 
L 153.310827 68.747558 
L 156.211253 73.161275 
L 158.749126 76.585808 
L 160.924446 79.135729 
L 163.099765 81.313124 
L 165.275085 83.142109 
L 167.450404 84.688009 
L 170.713383 86.704924 
L 174.338916 88.98618 
L 176.514236 90.592348 
L 178.689555 92.466676 
L 180.864875 94.619129 
L 183.765301 97.819665 
L 188.478493 103.048952 
L 190.291259 104.735224 
L 191.741472 105.8333 
L 193.191685 106.650193 
L 194.279345 107.050126 
L 195.367005 107.249202 
L 196.454665 107.234008 
L 197.542324 106.994273 
L 198.629984 106.522879 
L 199.717644 105.815772 
L 200.805304 104.871772 
L 202.255517 103.247455 
L 203.70573 101.214594 
L 205.155943 98.789011 
L 206.968709 95.236626 
L 208.781475 91.151731 
L 210.956795 85.626157 
L 213.494668 78.459622 
L 216.395094 69.569335 
L 225.096372 42.30696 
L 227.271692 36.428988 
L 229.084458 32.129123 
L 230.534671 29.152223 
L 231.984884 26.627776 
L 233.435097 24.578768 
L 234.522757 23.358874 
L 235.610417 22.407377 
L 236.698076 21.715454 
L 237.785736 21.268929 
L 238.873396 21.04861 
L 239.961056 21.030823 
L 241.411269 21.274291 
L 242.861482 21.7561 
L 245.036801 22.756073 
L 245.761908 23.124669 
L 245.761908 23.124669 
" clip-path="url(#pe7ce0bf5d8)" style="fill: none; stroke: #d34c60; stroke-opacity: 0.5; stroke-linecap: square"/>
   </g>
   <g id="line2d_15">
    <path d="M 64.485279 24.421776 
L 70.286131 22.283399 
L 72.824004 21.59295 
L 75.361877 21.153526 
L 77.89975 20.97436 
L 80.437622 21.019858 
L 83.700602 21.307616 
L 89.138901 22.053455 
L 95.302306 23.098545 
L 104.366137 24.705637 
L 107.266563 24.913181 
L 109.804436 24.879395 
L 113.067416 24.598834 
L 117.780608 24.175894 
L 119.955927 24.211935 
L 121.768694 24.447607 
L 123.58146 24.910263 
L 125.394226 25.620263 
L 127.206993 26.580818 
L 129.019759 27.779877 
L 131.195078 29.500156 
L 133.732951 31.830005 
L 136.633377 34.823009 
L 139.896357 38.518099 
L 143.159336 42.527009 
L 146.422315 46.867048 
L 150.047848 52.086084 
L 154.76104 59.331987 
L 160.561892 68.225515 
L 163.824872 72.825973 
L 167.087851 77.01195 
L 170.713383 81.259447 
L 179.052108 90.826521 
L 188.841046 102.634577 
L 190.653813 104.339979 
L 192.104026 105.445072 
L 193.554239 106.271327 
L 194.641898 106.684035 
L 195.729558 106.903287 
L 196.817218 106.917252 
L 197.904878 106.716731 
L 198.992538 106.295255 
L 200.080197 105.649099 
L 201.167857 104.777198 
L 202.61807 103.266323 
L 204.068283 101.366549 
L 205.518496 99.093563 
L 207.331262 95.759165 
L 209.144029 91.921886 
L 211.319348 86.729442 
L 213.857221 79.988794 
L 216.757647 71.595592 
L 221.470839 57.116236 
L 225.821479 43.988207 
L 228.359351 37.038643 
L 230.172118 32.616731 
L 231.984884 28.771199 
L 233.435097 26.173328 
L 234.88531 24.041514 
L 235.97297 22.763511 
L 237.06063 21.766125 
L 238.148289 21.048773 
L 239.235949 20.605397 
L 240.323609 20.424393 
L 241.411269 20.488718 
L 242.498928 20.776202 
L 243.586588 21.260057 
L 245.036801 22.157119 
L 245.761908 22.690961 
L 245.761908 22.690961 
" clip-path="url(#pe7ce0bf5d8)" style="fill: none; stroke: #c14168; stroke-width: 1.5; stroke-linecap: square"/>
   </g>
   <g id="line2d_16">
    <path d="M 64.485279 23.743069 
L 68.110812 22.408824 
L 71.011238 21.580901 
L 73.54911 21.073341 
L 76.449537 20.740098 
L 79.349963 20.630306 
L 82.975495 20.712727 
L 88.413794 21.083742 
L 95.302306 21.787696 
L 103.278478 22.605669 
L 107.266563 22.756583 
L 111.979756 22.67506 
L 117.055501 22.630584 
L 119.955927 22.851294 
L 122.4938 23.281953 
L 125.031673 23.961205 
L 127.569546 24.883125 
L 130.469972 26.19852 
L 133.732951 27.954437 
L 136.995931 29.968296 
L 139.896357 31.996045 
L 142.796783 34.3111 
L 145.334655 36.637329 
L 147.872528 39.297642 
L 150.410401 42.322703 
L 152.948274 45.712215 
L 155.8487 49.985527 
L 159.474232 55.773157 
L 176.876789 84.22691 
L 183.402747 94.314627 
L 186.303174 98.437444 
L 188.478493 101.189506 
L 190.291259 103.156937 
L 191.741472 104.460867 
L 193.191685 105.48221 
L 194.641898 106.184837 
L 195.729558 106.483579 
L 196.817218 106.574322 
L 197.904878 106.448352 
L 198.992538 106.099409 
L 200.080197 105.523809 
L 201.167857 104.720478 
L 202.255517 103.690913 
L 203.70573 101.973412 
L 205.155943 99.876593 
L 206.606156 97.422209 
L 208.418922 93.892486 
L 210.594242 89.059577 
L 212.769561 83.681912 
L 215.669987 75.864208 
L 219.658073 64.363767 
L 226.546585 44.382648 
L 229.084458 37.674164 
L 231.259777 32.508963 
L 233.072544 28.748226 
L 234.522757 26.16389 
L 235.97297 24.003117 
L 237.423183 22.300116 
L 238.510843 21.337647 
L 239.598502 20.650716 
L 240.686162 20.239271 
L 241.773822 20.098068 
L 242.861482 20.216469 
L 243.949141 20.578424 
L 245.036801 21.162655 
L 245.761908 21.66291 
L 245.761908 21.66291 
" clip-path="url(#pe7ce0bf5d8)" style="fill: none; stroke: #ae3b6d; stroke-opacity: 0.5; stroke-linecap: square"/>
   </g>
   <g id="line2d_17">
    <path d="M 64.485279 24.060396 
L 68.110812 22.717635 
L 71.011238 21.85942 
L 73.911664 21.215848 
L 77.174643 20.73603 
L 80.800176 20.450415 
L 85.150815 20.341776 
L 90.951667 20.430924 
L 98.927838 20.804132 
L 107.99167 21.188054 
L 117.418055 21.530993 
L 121.40614 21.929442 
L 125.394226 22.566177 
L 129.744865 23.505036 
L 134.095504 24.661718 
L 137.721037 25.83306 
L 140.621463 26.989623 
L 143.159336 28.242348 
L 145.334655 29.553885 
L 147.509975 31.133715 
L 149.685295 33.021945 
L 151.860614 35.24799 
L 154.035934 37.826961 
L 156.211253 40.75761 
L 158.749126 44.59661 
L 161.286999 48.836385 
L 164.549978 54.75884 
L 168.900617 63.203328 
L 182.677641 90.388255 
L 185.578067 95.434325 
L 187.753387 98.802713 
L 189.566153 101.242456 
L 191.016366 102.90125 
L 192.466579 104.259026 
L 193.916792 105.280217 
L 195.004452 105.805758 
L 196.092111 106.112113 
L 197.179771 106.189533 
L 198.267431 106.030539 
L 199.355091 105.630179 
L 200.442751 104.986208 
L 201.53041 104.099204 
L 202.61807 102.972597 
L 204.068283 101.108915 
L 205.518496 98.852775 
L 207.331262 95.526444 
L 209.144029 91.704762 
L 211.319348 86.58001 
L 214.219774 79.078263 
L 218.570413 67.074644 
L 224.733819 50.114477 
L 227.996798 41.756651 
L 230.534671 35.805422 
L 232.70999 31.234572 
L 234.522757 27.898612 
L 235.97297 25.59652 
L 237.423183 23.662698 
L 238.873396 22.131552 
L 239.961056 21.263949 
L 241.048715 20.645686 
L 242.136375 20.2803 
L 243.224035 20.166791 
L 244.311695 20.299226 
L 245.399354 20.666513 
L 245.761908 20.838465 
L 245.761908 20.838465 
" clip-path="url(#pe7ce0bf5d8)" style="fill: none; stroke: #9a3670; stroke-opacity: 0.5; stroke-linecap: square"/>
   </g>
   <g id="line2d_18">
    <path d="M 64.485279 24.510083 
L 68.110812 23.265932 
L 71.736344 22.268019 
L 74.999323 21.594042 
L 78.624856 21.075647 
L 82.975495 20.697007 
L 89.501454 20.393355 
L 98.565285 20.200723 
L 105.81635 20.260964 
L 113.429969 20.546926 
L 121.768694 21.089622 
L 133.370398 22.086802 
L 138.08359 22.670844 
L 141.34657 23.291529 
L 143.884442 23.991403 
L 146.059762 24.805863 
L 148.235081 25.874133 
L 150.047848 26.996849 
L 151.860614 28.362091 
L 153.67338 29.995337 
L 155.486147 31.916616 
L 157.298913 34.138938 
L 159.474232 37.209319 
L 161.649552 40.711511 
L 163.824872 44.619624 
L 166.362744 49.636115 
L 169.26317 55.864743 
L 173.251256 65.021491 
L 182.677641 86.952156 
L 185.215514 92.248929 
L 187.390833 96.328752 
L 189.2036 99.30402 
L 190.653813 101.349212 
L 192.104026 103.052744 
L 193.554239 104.375988 
L 194.641898 105.09753 
L 195.729558 105.572296 
L 196.817218 105.78936 
L 197.904878 105.740252 
L 198.992538 105.419302 
L 200.080197 104.823944 
L 201.167857 103.95494 
L 202.255517 102.816523 
L 203.70573 100.893451 
L 205.155943 98.533497 
L 206.606156 95.774689 
L 208.418922 91.837294 
L 210.594242 86.536934 
L 213.494668 78.822446 
L 222.195946 55.209823 
L 225.458925 47.201499 
L 228.359351 40.649757 
L 230.897224 35.39759 
L 233.072544 31.312587 
L 235.247863 27.69908 
L 237.06063 25.127548 
L 238.510843 23.409639 
L 239.961056 22.032196 
L 241.048715 21.241407 
L 242.136375 20.669717 
L 243.224035 20.323657 
L 244.311695 20.205542 
L 245.399354 20.312932 
L 245.761908 20.397685 
L 245.761908 20.397685 
" clip-path="url(#pe7ce0bf5d8)" style="fill: none; stroke: #863071; stroke-opacity: 0.5; stroke-linecap: square"/>
   </g>
   <g id="line2d_19">
    <path d="M 64.485279 24.131485 
L 67.385705 23.345979 
L 70.648684 22.695712 
L 74.274217 22.224047 
L 78.262303 21.945739 
L 94.214646 21.129358 
L 104.728691 20.196787 
L 109.07933 20.08848 
L 114.155075 20.200954 
L 129.382312 20.700601 
L 139.533803 20.910259 
L 143.159336 21.203815 
L 146.059762 21.662582 
L 148.235081 22.21298 
L 150.410401 23.008701 
L 152.223167 23.908846 
L 154.035934 25.067877 
L 155.8487 26.524253 
L 157.661466 28.311356 
L 159.474232 30.454853 
L 161.286999 32.970565 
L 163.099765 35.863093 
L 165.275085 39.82065 
L 167.450404 44.276071 
L 169.988277 50.029183 
L 172.888703 57.19162 
L 177.239342 68.654288 
L 183.040194 83.926199 
L 185.578067 90.046383 
L 187.753387 94.759486 
L 189.566153 98.18548 
L 191.016366 100.527663 
L 192.466579 102.462464 
L 193.554239 103.618395 
L 194.641898 104.501532 
L 195.729558 105.096268 
L 196.817218 105.389587 
L 197.904878 105.371568 
L 198.992538 105.035858 
L 200.080197 104.380081 
L 201.167857 103.40616 
L 202.255517 102.120539 
L 203.343177 100.534272 
L 204.79339 97.979204 
L 206.243603 94.966832 
L 208.056369 90.652211 
L 210.231689 84.855913 
L 213.857221 74.385398 
L 218.20786 61.888459 
L 221.108286 54.244123 
L 223.646159 48.167737 
L 226.184032 42.650919 
L 228.721905 37.629392 
L 231.259777 33.052082 
L 233.79765 28.934543 
L 235.97297 25.850475 
L 237.785736 23.680863 
L 239.235949 22.264622 
L 240.686162 21.17657 
L 241.773822 20.597409 
L 242.861482 20.234131 
L 243.949141 20.0938 
L 245.036801 20.178461 
L 245.761908 20.358381 
L 245.761908 20.358381 
" clip-path="url(#pe7ce0bf5d8)" style="fill: none; stroke: #722c6e; stroke-opacity: 0.5; stroke-linecap: square"/>
   </g>
   <g id="line2d_20">
    <path d="M 64.485279 22.532957 
L 66.660599 22.072839 
L 68.835918 21.822065 
L 71.373791 21.753944 
L 74.274217 21.912298 
L 77.89975 22.34882 
L 85.875921 23.394597 
L 88.776347 23.515346 
L 91.676773 23.401783 
L 94.577199 23.054879 
L 98.202732 22.373702 
L 106.178904 20.766524 
L 109.441883 20.373692 
L 113.067416 20.182208 
L 117.780608 20.193279 
L 127.932099 20.266834 
L 142.434229 20.22539 
L 147.147422 20.413392 
L 149.685295 20.704956 
L 151.860614 21.164345 
L 153.67338 21.761103 
L 155.486147 22.610557 
L 156.93636 23.508554 
L 158.386573 24.628745 
L 159.836786 25.993683 
L 161.286999 27.621639 
L 163.099765 30.045923 
L 164.912531 32.914306 
L 166.725298 36.225234 
L 168.538064 39.962861 
L 170.713383 44.969454 
L 173.251256 51.435674 
L 176.151682 59.463227 
L 181.589981 75.370165 
L 185.215514 85.626816 
L 187.390833 91.226934 
L 189.2036 95.389826 
L 191.016366 98.958967 
L 192.466579 101.302049 
L 193.554239 102.7203 
L 194.641898 103.821667 
L 195.729558 104.58536 
L 196.817218 104.993982 
L 197.542324 105.062375 
L 198.267431 104.964149 
L 198.992538 104.697524 
L 199.717644 104.261803 
L 200.805304 103.292461 
L 201.892964 101.950455 
L 202.980623 100.248469 
L 204.430836 97.45259 
L 205.881049 94.111702 
L 207.693816 89.288361 
L 209.869135 82.791015 
L 213.857221 69.96182 
L 217.1202 59.737045 
L 219.658073 52.496649 
L 221.833393 46.931451 
L 224.008712 41.965527 
L 226.184032 37.543355 
L 228.359351 33.587635 
L 230.534671 30.03903 
L 232.70999 26.888033 
L 234.522757 24.604324 
L 236.335523 22.699671 
L 237.785736 21.505656 
L 238.873396 20.832978 
L 239.961056 20.37187 
L 241.048715 20.13802 
L 242.136375 20.143031 
L 243.224035 20.393214 
L 244.311695 20.888618 
L 245.399354 21.622369 
L 245.761908 21.91769 
L 245.761908 21.91769 
" clip-path="url(#pe7ce0bf5d8)" style="fill: none; stroke: #5e2868; stroke-opacity: 0.5; stroke-linecap: square"/>
   </g>
   <g id="line2d_21">
    <path d="M 64.485279 21.53349 
L 66.298045 20.987993 
L 68.110812 20.63869 
L 69.923578 20.481621 
L 72.098897 20.533127 
L 74.274217 20.821345 
L 76.81209 21.407571 
L 80.075069 22.437126 
L 86.963581 24.714408 
L 89.501454 25.252564 
L 91.676773 25.477633 
L 93.852093 25.457444 
L 96.027412 25.194048 
L 98.202732 24.716976 
L 101.103158 23.84305 
L 108.716776 21.413052 
L 111.617202 20.80776 
L 114.517629 20.445856 
L 118.143161 20.25451 
L 126.844439 20.153027 
L 135.183164 20.160104 
L 147.147422 20.336038 
L 151.860614 20.373 
L 154.035934 20.6004 
L 155.8487 20.998142 
L 157.661466 21.658176 
L 159.111679 22.420215 
L 160.561892 23.424543 
L 162.012105 24.698519 
L 163.462318 26.264302 
L 164.912531 28.138081 
L 166.362744 30.329651 
L 168.175511 33.520407 
L 169.988277 37.204867 
L 171.801043 41.360876 
L 173.976363 46.919281 
L 176.514236 54.080152 
L 179.777215 64.068597 
L 187.02828 86.673818 
L 189.2036 92.607335 
L 191.016366 96.890636 
L 192.466579 99.761784 
L 193.554239 101.535783 
L 194.641898 102.947978 
L 195.729558 103.968942 
L 196.454665 104.419651 
L 197.179771 104.679097 
L 197.904878 104.742335 
L 198.629984 104.605728 
L 199.355091 104.26705 
L 200.080197 103.725575 
L 201.167857 102.535418 
L 202.255517 100.900991 
L 203.343177 98.840374 
L 204.79339 95.476487 
L 206.243603 91.485985 
L 208.056369 85.777378 
L 210.594242 76.872822 
L 216.757647 54.743979 
L 218.932967 47.878684 
L 220.745733 42.771507 
L 222.558499 38.24913 
L 224.371266 34.292628 
L 226.184032 30.85932 
L 227.996798 27.902463 
L 229.809564 25.389315 
L 231.622331 23.314088 
L 233.072544 21.985938 
L 234.522757 20.981627 
L 235.610417 20.462108 
L 236.698076 20.160986 
L 237.785736 20.093964 
L 238.873396 20.274477 
L 239.961056 20.712081 
L 241.048715 21.410963 
L 242.136375 22.368713 
L 243.224035 23.575427 
L 244.674248 25.539567 
L 245.761908 27.243792 
L 245.761908 27.243792 
" clip-path="url(#pe7ce0bf5d8)" style="fill: none; stroke: #4b2362; stroke-width: 1.5; stroke-linecap: square"/>
   </g>
   <g id="patch_3">
    <path d="M 55.421448 112.551498 
L 55.421448 15.685173 
" style="fill: none; stroke: #000000; stroke-width: 0.8; stroke-linejoin: miter; stroke-linecap: square"/>
   </g>
   <g id="patch_4">
    <path d="M 254.825739 112.551498 
L 254.825739 15.685173 
" style="fill: none; stroke: #000000; stroke-width: 0.8; stroke-linejoin: miter; stroke-linecap: square"/>
   </g>
   <g id="patch_5">
    <path d="M 55.421448 112.551498 
L 254.825739 112.551498 
" style="fill: none; stroke: #000000; stroke-width: 0.8; stroke-linejoin: miter; stroke-linecap: square"/>
   </g>
   <g id="patch_6">
    <path d="M 55.421448 15.685173 
L 254.825739 15.685173 
" style="fill: none; stroke: #000000; stroke-width: 0.8; stroke-linejoin: miter; stroke-linecap: square"/>
   </g>
   <g id="legend_1">
    <g id="line2d_22">
     <path d="M 60.921558 55.07781 
L 69.171558 55.07781 
L 77.421558 55.07781 
" style="fill: none; stroke: #edb081; stroke-width: 1.5; stroke-linecap: square"/>
    </g>
    <g id="text_11">
     <!-- $\Delta_H \delta t=0.0$ -->
     <g transform="translate(81.821558 58.92781) scale(0.11 -0.11)">
      <defs>
       <path id="CMR17-1" d="M 2598 4403 
C 2547 4512 2522 4512 2470 4512 
C 2394 4512 2387 4499 2342 4409 
L 269 109 
C 262 96 237 38 237 32 
C 237 6 243 0 358 0 
L 4576 0 
C 4691 0 4698 6 4698 32 
C 4698 38 4672 96 4666 109 
L 2598 4403 
z
M 2310 4038 
L 4083 358 
L 531 358 
L 2310 4038 
z
" transform="scale(0.015625)"/>
       <path id="CMMI12-48" d="M 4787 3887 
C 4845 4103 4858 4167 5312 4167 
C 5427 4167 5491 4167 5491 4282 
C 5491 4352 5434 4352 5395 4352 
C 5280 4352 5146 4352 5024 4352 
L 4269 4352 
C 4147 4352 4013 4352 3891 4352 
C 3846 4352 3770 4352 3770 4231 
C 3770 4167 3814 4167 3936 4167 
C 4320 4167 4320 4116 4320 4046 
C 4320 4034 4320 3995 4294 3900 
L 3904 2361 
L 1971 2361 
L 2355 3887 
C 2413 4103 2426 4167 2880 4167 
C 2995 4167 3059 4167 3059 4282 
C 3059 4352 3002 4352 2963 4352 
C 2848 4352 2714 4352 2592 4352 
L 1837 4352 
C 1715 4352 1581 4352 1459 4352 
C 1414 4352 1338 4352 1338 4231 
C 1338 4167 1382 4167 1504 4167 
C 1888 4167 1888 4116 1888 4046 
C 1888 4034 1888 3995 1862 3899 
L 998 472 
C 941 249 928 185 486 185 
C 339 185 294 185 294 64 
C 294 0 365 0 384 0 
C 499 0 634 0 755 0 
L 1510 0 
C 1632 0 1766 0 1888 0 
C 1939 0 2010 0 2010 121 
C 2010 185 1952 185 1856 185 
C 1466 185 1466 236 1466 300 
C 1466 307 1466 351 1478 402 
L 1920 2176 
L 3859 2176 
C 3750 1753 3424 416 3411 376 
C 3341 185 3238 185 2861 185 
C 2784 185 2726 185 2726 64 
C 2726 0 2797 0 2816 0 
C 2931 0 3066 0 3187 0 
L 3942 0 
C 4064 0 4198 0 4320 0 
C 4371 0 4442 0 4442 121 
C 4442 185 4384 185 4288 185 
C 3898 185 3898 236 3898 300 
C 3898 307 3898 351 3910 402 
L 4787 3887 
z
" transform="scale(0.015625)"/>
       <path id="CMMI12-e" d="M 1664 2795 
C 845 2597 256 1748 256 1001 
C 256 319 717 -64 1229 -64 
C 1984 -64 2496 970 2496 1818 
C 2496 2392 2227 2744 2067 2954 
C 1830 3254 1446 3746 1446 4052 
C 1446 4161 1530 4352 1811 4352 
C 2010 4352 2131 4282 2323 4173 
C 2381 4134 2528 4052 2611 4052 
C 2746 4052 2842 4185 2842 4287 
C 2842 4409 2746 4428 2522 4479 
C 2221 4543 2131 4543 2022 4543 
C 1914 4543 1286 4543 1286 3892 
C 1286 3579 1446 3216 1664 2795 
z
M 1734 2669 
C 1978 2165 2074 1974 2074 1560 
C 2074 1063 1805 63 1235 63 
C 986 63 627 229 627 821 
C 627 1235 864 2439 1734 2669 
z
" transform="scale(0.015625)"/>
       <path id="CMMI12-74" d="M 1286 2566 
L 1875 2566 
C 1997 2566 2061 2566 2061 2681 
C 2061 2752 2022 2752 1894 2752 
L 1331 2752 
L 1568 3692 
C 1594 3781 1594 3794 1594 3840 
C 1594 3943 1510 4000 1427 4000 
C 1376 4000 1229 3981 1178 3775 
L 928 2752 
L 326 2752 
C 198 2752 141 2752 141 2630 
C 141 2566 186 2566 307 2566 
L 877 2566 
L 454 881 
C 403 658 384 594 384 511 
C 384 211 595 -64 954 -64 
C 1600 -64 1946 868 1946 912 
C 1946 951 1920 970 1882 970 
C 1869 970 1843 970 1830 944 
C 1824 938 1818 931 1773 829 
C 1638 511 1344 64 973 64 
C 781 64 768 224 768 364 
C 768 370 768 492 787 568 
L 1286 2566 
z
" transform="scale(0.015625)"/>
       <path id="CMR17-3d" d="M 4115 2017 
C 4211 2017 4307 2017 4307 2125 
C 4307 2240 4198 2240 4090 2240 
L 512 2240 
C 403 2240 294 2240 294 2125 
C 294 2017 390 2017 486 2017 
L 4115 2017 
z
M 4090 896 
C 4198 896 4307 896 4307 1011 
C 4307 1119 4211 1119 4115 1119 
L 486 1119 
C 390 1119 294 1119 294 1011 
C 294 896 403 896 512 896 
L 4090 896 
z
" transform="scale(0.015625)"/>
      </defs>
      <use xlink:href="#CMR17-1" transform="scale(0.996264)"/>
      <use xlink:href="#CMMI12-48" transform="translate(76.91959 -14.943915) scale(0.697382)"/>
      <use xlink:href="#CMMI12-e" transform="translate(139.38268 0) scale(0.996264)"/>
      <use xlink:href="#CMMI12-74" transform="translate(186.324066 0) scale(0.996264)"/>
      <use xlink:href="#CMR17-3d" transform="translate(249.224405 0) scale(0.996264)"/>
      <use xlink:href="#CMR17-30" transform="translate(348.613202 0) scale(0.996264)"/>
      <use xlink:href="#CMMI12-3a" transform="translate(394.303679 0) scale(0.996264)"/>
      <use xlink:href="#CMR17-30" transform="translate(421.400856 0) scale(0.996264)"/>
     </g>
    </g>
    <g id="line2d_23">
     <path d="M 60.921558 70.408704 
L 69.171558 70.408704 
L 77.421558 70.408704 
" style="fill: none; stroke: #e5715e; stroke-width: 1.5; stroke-linecap: square"/>
    </g>
    <g id="text_12">
     <!-- $\Delta_H \delta t=1.5$ -->
     <g transform="translate(81.821558 74.258704) scale(0.11 -0.11)">
      <use xlink:href="#CMR17-1" transform="scale(0.996264)"/>
      <use xlink:href="#CMMI12-48" transform="translate(76.91959 -14.943915) scale(0.697382)"/>
      <use xlink:href="#CMMI12-e" transform="translate(139.38268 0) scale(0.996264)"/>
      <use xlink:href="#CMMI12-74" transform="translate(186.324066 0) scale(0.996264)"/>
      <use xlink:href="#CMR17-3d" transform="translate(249.224405 0) scale(0.996264)"/>
      <use xlink:href="#CMR17-31" transform="translate(348.613202 0) scale(0.996264)"/>
      <use xlink:href="#CMMI12-3a" transform="translate(394.303679 0) scale(0.996264)"/>
      <use xlink:href="#CMR17-35" transform="translate(421.400856 0) scale(0.996264)"/>
     </g>
    </g>
    <g id="line2d_24">
     <path d="M 60.921558 85.739599 
L 69.171558 85.739599 
L 77.421558 85.739599 
" style="fill: none; stroke: #c14168; stroke-width: 1.5; stroke-linecap: square"/>
    </g>
    <g id="text_13">
     <!-- $\Delta_H \delta t=3.0$ -->
     <g transform="translate(81.821558 89.589599) scale(0.11 -0.11)">
      <defs>
       <path id="CMR17-33" d="M 1414 2157 
C 1984 2157 2234 1662 2234 1090 
C 2234 320 1824 25 1453 25 
C 1114 25 563 194 390 693 
C 422 680 454 680 486 680 
C 640 680 755 782 755 948 
C 755 1133 614 1216 486 1216 
C 378 1216 211 1165 211 926 
C 211 335 787 -128 1466 -128 
C 2176 -128 2720 430 2720 1085 
C 2720 1707 2208 2157 1600 2227 
C 2086 2328 2554 2756 2554 3329 
C 2554 3820 2048 4179 1472 4179 
C 890 4179 378 3829 378 3329 
C 378 3110 544 3072 627 3072 
C 762 3072 877 3155 877 3321 
C 877 3486 762 3569 627 3569 
C 602 3569 570 3569 544 3557 
C 730 3959 1235 4032 1459 4032 
C 1683 4032 2106 3925 2106 3320 
C 2106 3143 2080 2828 1862 2550 
C 1670 2304 1453 2304 1242 2284 
C 1210 2284 1062 2269 1037 2269 
C 992 2263 966 2257 966 2208 
C 966 2163 973 2157 1101 2157 
L 1414 2157 
z
" transform="scale(0.015625)"/>
      </defs>
      <use xlink:href="#CMR17-1" transform="scale(0.996264)"/>
      <use xlink:href="#CMMI12-48" transform="translate(76.91959 -14.943915) scale(0.697382)"/>
      <use xlink:href="#CMMI12-e" transform="translate(139.38268 0) scale(0.996264)"/>
      <use xlink:href="#CMMI12-74" transform="translate(186.324066 0) scale(0.996264)"/>
      <use xlink:href="#CMR17-3d" transform="translate(249.224405 0) scale(0.996264)"/>
      <use xlink:href="#CMR17-33" transform="translate(348.613202 0) scale(0.996264)"/>
      <use xlink:href="#CMMI12-3a" transform="translate(394.303679 0) scale(0.996264)"/>
      <use xlink:href="#CMR17-30" transform="translate(421.400856 0) scale(0.996264)"/>
     </g>
    </g>
    <g id="line2d_25">
     <path d="M 60.921558 101.070493 
L 69.171558 101.070493 
L 77.421558 101.070493 
" style="fill: none; stroke: #4b2362; stroke-width: 1.5; stroke-linecap: square"/>
    </g>
    <g id="text_14">
     <!-- $\Delta_H \delta t=6.0$ -->
     <g transform="translate(81.821558 104.920493) scale(0.11 -0.11)">
      <defs>
       <path id="CMR17-36" d="M 678 2176 
C 678 3690 1395 4032 1811 4032 
C 1946 4032 2272 4009 2400 3776 
C 2298 3776 2106 3776 2106 3553 
C 2106 3381 2246 3323 2336 3323 
C 2394 3323 2566 3348 2566 3560 
C 2566 3954 2246 4179 1805 4179 
C 1043 4179 243 3390 243 1984 
C 243 253 966 -128 1478 -128 
C 2099 -128 2688 427 2688 1283 
C 2688 2081 2170 2662 1517 2662 
C 1126 2662 838 2407 678 1960 
L 678 2176 
z
M 1478 25 
C 691 25 691 1200 691 1436 
C 691 1896 909 2560 1504 2560 
C 1613 2560 1926 2560 2138 2120 
C 2253 1870 2253 1609 2253 1289 
C 2253 944 2253 690 2118 434 
C 1978 171 1773 25 1478 25 
z
" transform="scale(0.015625)"/>
      </defs>
      <use xlink:href="#CMR17-1" transform="scale(0.996264)"/>
      <use xlink:href="#CMMI12-48" transform="translate(76.91959 -14.943915) scale(0.697382)"/>
      <use xlink:href="#CMMI12-e" transform="translate(139.38268 0) scale(0.996264)"/>
      <use xlink:href="#CMMI12-74" transform="translate(186.324066 0) scale(0.996264)"/>
      <use xlink:href="#CMR17-3d" transform="translate(249.224405 0) scale(0.996264)"/>
      <use xlink:href="#CMR17-36" transform="translate(348.613202 0) scale(0.996264)"/>
      <use xlink:href="#CMMI12-3a" transform="translate(394.303679 0) scale(0.996264)"/>
      <use xlink:href="#CMR17-30" transform="translate(421.400856 0) scale(0.996264)"/>
     </g>
    </g>
   </g>
  </g>
  <g id="axes_2">
   <g id="patch_7">
    <path d="M 289.808815 112.551498 
L 489.213107 112.551498 
L 489.213107 15.685173 
L 289.808815 15.685173 
z
" style="fill: #ffffff"/>
   </g>
   <g id="matplotlib.axis_3">
    <g id="xtick_6">
     <g id="line2d_26">
      <g>
       <use xlink:href="#m94ee006dd2" x="289.808815" y="112.551498" style="stroke: #000000; stroke-width: 0.8"/>
      </g>
     </g>
     <g id="text_15">
      <!-- $\mathdefault{0.0}$ -->
      <g transform="translate(282.807277 129.261845) scale(0.11 -0.11)">
       <use xlink:href="#CMR17-30" transform="scale(0.996264)"/>
       <use xlink:href="#CMMI12-3a" transform="translate(45.690477 0) scale(0.996264)"/>
       <use xlink:href="#CMR17-30" transform="translate(72.787654 0) scale(0.996264)"/>
      </g>
     </g>
    </g>
    <g id="xtick_7">
     <g id="line2d_27">
      <g>
       <use xlink:href="#m94ee006dd2" x="329.689674" y="112.551498" style="stroke: #000000; stroke-width: 0.8"/>
      </g>
     </g>
     <g id="text_16">
      <!-- $\mathdefault{0.2}$ -->
      <g transform="translate(322.688136 129.261845) scale(0.11 -0.11)">
       <use xlink:href="#CMR17-30" transform="scale(0.996264)"/>
       <use xlink:href="#CMMI12-3a" transform="translate(45.690477 0) scale(0.996264)"/>
       <use xlink:href="#CMR17-32" transform="translate(72.787654 0) scale(0.996264)"/>
      </g>
     </g>
    </g>
    <g id="xtick_8">
     <g id="line2d_28">
      <g>
       <use xlink:href="#m94ee006dd2" x="369.570532" y="112.551498" style="stroke: #000000; stroke-width: 0.8"/>
      </g>
     </g>
     <g id="text_17">
      <!-- $\mathdefault{0.4}$ -->
      <g transform="translate(362.568994 129.261845) scale(0.11 -0.11)">
       <defs>
        <path id="CMR17-34" d="M 2150 4122 
C 2150 4256 2144 4256 2029 4256 
L 128 1254 
L 128 1088 
L 1779 1088 
L 1779 457 
C 1779 224 1766 160 1318 160 
L 1197 160 
L 1197 0 
C 1402 0 1747 0 1965 0 
C 2182 0 2528 0 2733 0 
L 2733 160 
L 2611 160 
C 2163 160 2150 224 2150 457 
L 2150 1088 
L 2803 1088 
L 2803 1254 
L 2150 1254 
L 2150 4122 
z
M 1798 3703 
L 1798 1254 
L 256 1254 
L 1798 3703 
z
" transform="scale(0.015625)"/>
       </defs>
       <use xlink:href="#CMR17-30" transform="scale(0.996264)"/>
       <use xlink:href="#CMMI12-3a" transform="translate(45.690477 0) scale(0.996264)"/>
       <use xlink:href="#CMR17-34" transform="translate(72.787654 0) scale(0.996264)"/>
      </g>
     </g>
    </g>
    <g id="xtick_9">
     <g id="line2d_29">
      <g>
       <use xlink:href="#m94ee006dd2" x="409.45139" y="112.551498" style="stroke: #000000; stroke-width: 0.8"/>
      </g>
     </g>
     <g id="text_18">
      <!-- $\mathdefault{0.6}$ -->
      <g transform="translate(402.449852 129.261845) scale(0.11 -0.11)">
       <use xlink:href="#CMR17-30" transform="scale(0.996264)"/>
       <use xlink:href="#CMMI12-3a" transform="translate(45.690477 0) scale(0.996264)"/>
       <use xlink:href="#CMR17-36" transform="translate(72.787654 0) scale(0.996264)"/>
      </g>
     </g>
    </g>
    <g id="xtick_10">
     <g id="line2d_30">
      <g>
       <use xlink:href="#m94ee006dd2" x="449.332249" y="112.551498" style="stroke: #000000; stroke-width: 0.8"/>
      </g>
     </g>
     <g id="text_19">
      <!-- $\mathdefault{0.8}$ -->
      <g transform="translate(442.330711 129.261845) scale(0.11 -0.11)">
       <defs>
        <path id="CMR17-38" d="M 1741 2264 
C 2144 2467 2554 2773 2554 3263 
C 2554 3841 1990 4179 1472 4179 
C 890 4179 378 3759 378 3180 
C 378 3021 416 2747 666 2505 
C 730 2442 998 2251 1171 2130 
C 883 1983 211 1634 211 934 
C 211 279 838 -128 1459 -128 
C 2144 -128 2720 362 2720 1010 
C 2720 1590 2330 1857 2074 2029 
L 1741 2264 
z
M 902 2822 
C 851 2854 595 3051 595 3351 
C 595 3739 998 4032 1459 4032 
C 1965 4032 2336 3676 2336 3262 
C 2336 2669 1670 2331 1638 2331 
C 1632 2331 1626 2331 1574 2370 
L 902 2822 
z
M 2080 1519 
C 2176 1449 2483 1240 2483 851 
C 2483 381 2010 25 1472 25 
C 890 25 448 438 448 940 
C 448 1443 838 1862 1280 2060 
L 2080 1519 
z
" transform="scale(0.015625)"/>
       </defs>
       <use xlink:href="#CMR17-30" transform="scale(0.996264)"/>
       <use xlink:href="#CMMI12-3a" transform="translate(45.690477 0) scale(0.996264)"/>
       <use xlink:href="#CMR17-38" transform="translate(72.787654 0) scale(0.996264)"/>
      </g>
     </g>
    </g>
    <g id="xtick_11">
     <g id="line2d_31">
      <g>
       <use xlink:href="#m94ee006dd2" x="489.213107" y="112.551498" style="stroke: #000000; stroke-width: 0.8"/>
      </g>
     </g>
     <g id="text_20">
      <!-- $\mathdefault{1.0}$ -->
      <g transform="translate(482.211569 129.261845) scale(0.11 -0.11)">
       <use xlink:href="#CMR17-31" transform="scale(0.996264)"/>
       <use xlink:href="#CMMI12-3a" transform="translate(45.690477 0) scale(0.996264)"/>
       <use xlink:href="#CMR17-30" transform="translate(72.787654 0) scale(0.996264)"/>
      </g>
     </g>
    </g>
   </g>
   <g id="matplotlib.axis_4">
    <g id="ytick_4">
     <g id="line2d_32">
      <g>
       <use xlink:href="#ma82f9466f9" x="289.808815" y="112.551498" style="stroke: #000000; stroke-width: 0.8"/>
      </g>
     </g>
     <g id="text_21">
      <!-- $\mathdefault{0.00}$ -->
      <g transform="translate(261.226272 116.356671) scale(0.11 -0.11)">
       <use xlink:href="#CMR17-30" transform="scale(0.996264)"/>
       <use xlink:href="#CMMI12-3a" transform="translate(45.690477 0) scale(0.996264)"/>
       <use xlink:href="#CMR17-30" transform="translate(72.787654 0) scale(0.996264)"/>
       <use xlink:href="#CMR17-30" transform="translate(118.478131 0) scale(0.996264)"/>
      </g>
     </g>
    </g>
    <g id="ytick_5">
     <g id="line2d_33">
      <g>
       <use xlink:href="#ma82f9466f9" x="289.808815" y="88.334917" style="stroke: #000000; stroke-width: 0.8"/>
      </g>
     </g>
     <g id="text_22">
      <!-- $\mathdefault{0.25}$ -->
      <g transform="translate(261.226272 92.14009) scale(0.11 -0.11)">
       <use xlink:href="#CMR17-30" transform="scale(0.996264)"/>
       <use xlink:href="#CMMI12-3a" transform="translate(45.690477 0) scale(0.996264)"/>
       <use xlink:href="#CMR17-32" transform="translate(72.787654 0) scale(0.996264)"/>
       <use xlink:href="#CMR17-35" transform="translate(118.478131 0) scale(0.996264)"/>
      </g>
     </g>
    </g>
    <g id="ytick_6">
     <g id="line2d_34">
      <g>
       <use xlink:href="#ma82f9466f9" x="289.808815" y="64.118336" style="stroke: #000000; stroke-width: 0.8"/>
      </g>
     </g>
     <g id="text_23">
      <!-- $\mathdefault{0.50}$ -->
      <g transform="translate(261.226272 67.923509) scale(0.11 -0.11)">
       <use xlink:href="#CMR17-30" transform="scale(0.996264)"/>
       <use xlink:href="#CMMI12-3a" transform="translate(45.690477 0) scale(0.996264)"/>
       <use xlink:href="#CMR17-35" transform="translate(72.787654 0) scale(0.996264)"/>
       <use xlink:href="#CMR17-30" transform="translate(118.478131 0) scale(0.996264)"/>
      </g>
     </g>
    </g>
    <g id="ytick_7">
     <g id="line2d_35">
      <g>
       <use xlink:href="#ma82f9466f9" x="289.808815" y="39.901755" style="stroke: #000000; stroke-width: 0.8"/>
      </g>
     </g>
     <g id="text_24">
      <!-- $\mathdefault{0.75}$ -->
      <g transform="translate(261.226272 43.706928) scale(0.11 -0.11)">
       <defs>
        <path id="CMR17-37" d="M 2886 3941 
L 2886 4081 
L 1382 4081 
C 634 4081 621 4165 595 4288 
L 480 4288 
L 294 3094 
L 410 3094 
C 429 3215 474 3540 550 3661 
C 589 3712 1062 3712 1171 3712 
L 2579 3712 
L 1869 2661 
C 1395 1954 1069 999 1069 165 
C 1069 89 1069 -128 1299 -128 
C 1530 -128 1530 89 1530 171 
L 1530 465 
C 1530 1508 1709 2196 2003 2636 
L 2886 3941 
z
" transform="scale(0.015625)"/>
       </defs>
       <use xlink:href="#CMR17-30" transform="scale(0.996264)"/>
       <use xlink:href="#CMMI12-3a" transform="translate(45.690477 0) scale(0.996264)"/>
       <use xlink:href="#CMR17-37" transform="translate(72.787654 0) scale(0.996264)"/>
       <use xlink:href="#CMR17-35" transform="translate(118.478131 0) scale(0.996264)"/>
      </g>
     </g>
    </g>
    <g id="ytick_8">
     <g id="line2d_36">
      <g>
       <use xlink:href="#ma82f9466f9" x="289.808815" y="15.685173" style="stroke: #000000; stroke-width: 0.8"/>
      </g>
     </g>
     <g id="text_25">
      <!-- $\mathdefault{1.00}$ -->
      <g transform="translate(261.226272 19.490347) scale(0.11 -0.11)">
       <use xlink:href="#CMR17-31" transform="scale(0.996264)"/>
       <use xlink:href="#CMMI12-3a" transform="translate(45.690477 0) scale(0.996264)"/>
       <use xlink:href="#CMR17-30" transform="translate(72.787654 0) scale(0.996264)"/>
       <use xlink:href="#CMR17-30" transform="translate(118.478131 0) scale(0.996264)"/>
      </g>
     </g>
    </g>
   </g>
   <g id="patch_8">
    <path d="M 289.808815 112.551498 
L 289.808815 15.685173 
" style="fill: none; stroke: #000000; stroke-width: 0.8; stroke-linejoin: miter; stroke-linecap: square"/>
   </g>
   <g id="patch_9">
    <path d="M 489.213107 112.551498 
L 489.213107 15.685173 
" style="fill: none; stroke: #000000; stroke-width: 0.8; stroke-linejoin: miter; stroke-linecap: square"/>
   </g>
   <g id="patch_10">
    <path d="M 289.808815 112.551498 
L 489.213107 112.551498 
" style="fill: none; stroke: #000000; stroke-width: 0.8; stroke-linejoin: miter; stroke-linecap: square"/>
   </g>
   <g id="patch_11">
    <path d="M 289.808815 15.685173 
L 489.213107 15.685173 
" style="fill: none; stroke: #000000; stroke-width: 0.8; stroke-linejoin: miter; stroke-linecap: square"/>
   </g>
  </g>
 </g>
 <defs>
  <clipPath id="pe7ce0bf5d8">
   <rect x="55.421448" y="15.685173" width="199.404292" height="96.866325"/>
  </clipPath>
 </defs>
</svg>
