<?xml version="1.0" encoding="utf-8" standalone="no"?>
<!DOCTYPE svg PUBLIC "-//W3C//DTD SVG 1.1//EN"
  "http://www.w3.org/Graphics/SVG/1.1/DTD/svg11.dtd">
<svg xmlns:xlink="http://www.w3.org/1999/xlink" width="245.080946pt" height="153.175592pt" viewBox="0 0 245.080946 153.175592" xmlns="http://www.w3.org/2000/svg" version="1.1">
 <metadata>
  <rdf:RDF xmlns:dc="http://purl.org/dc/elements/1.1/" xmlns:cc="http://creativecommons.org/ns#" xmlns:rdf="http://www.w3.org/1999/02/22-rdf-syntax-ns#">
   <cc:Work>
    <dc:type rdf:resource="http://purl.org/dc/dcmitype/StillImage"/>
    <dc:date>2024-03-04T10:58:08.688363</dc:date>
    <dc:format>image/svg+xml</dc:format>
    <dc:creator>
     <cc:Agent>
      <dc:title>Matplotlib v3.8.2, https://matplotlib.org/</dc:title>
     </cc:Agent>
    </dc:creator>
   </cc:Work>
  </rdf:RDF>
 </metadata>
 <defs>
  <style type="text/css">*{stroke-linejoin: round; stroke-linecap: butt}</style>
 </defs>
 <g id="figure_1">
  <g id="patch_1">
   <path d="M 0 153.175592 
L 245.080946 153.175592 
L 245.080946 0 
L 0 0 
z
" style="fill: #ffffff"/>
  </g>
  <g id="axes_1">
   <g id="patch_2">
    <path d="M 55.421448 106.947513 
L 230.461213 106.947513 
L 230.461213 11.88 
L 55.421448 11.88 
z
" style="fill: #ffffff"/>
   </g>
   <g id="matplotlib.axis_1">
    <g id="xtick_1">
     <g id="line2d_1">
      <defs>
       <path id="m3834a007c8" d="M 0 0 
L 0 3.5 
" style="stroke: #000000; stroke-width: 0.8"/>
      </defs>
      <g>
       <use xlink:href="#m3834a007c8" x="80.427128" y="106.947513" style="stroke: #000000; stroke-width: 0.8"/>
      </g>
     </g>
     <g id="text_1">
      <!-- $\mathdefault{−1}$ -->
      <g transform="translate(73.42559 123.65786) scale(0.11 -0.11)">
       <defs>
        <path id="CMSY10-0" d="M 4218 1472 
C 4326 1472 4442 1472 4442 1600 
C 4442 1728 4326 1728 4218 1728 
L 755 1728 
C 646 1728 531 1728 531 1600 
C 531 1472 646 1472 755 1472 
L 4218 1472 
z
" transform="scale(0.015625)"/>
        <path id="CMR17-31" d="M 1702 4058 
C 1702 4192 1696 4192 1606 4192 
C 1357 3916 979 3827 621 3827 
C 602 3827 570 3827 563 3808 
C 557 3795 557 3782 557 3648 
C 755 3648 1088 3686 1344 3839 
L 1344 461 
C 1344 236 1331 160 781 160 
L 589 160 
L 589 0 
C 896 0 1216 0 1523 0 
C 1830 0 2150 0 2458 0 
L 2458 160 
L 2266 160 
C 1715 160 1702 230 1702 458 
L 1702 4058 
z
" transform="scale(0.015625)"/>
       </defs>
       <use xlink:href="#CMSY10-0" transform="scale(0.996264)"/>
       <use xlink:href="#CMR17-31" transform="translate(77.487468 0) scale(0.996264)"/>
      </g>
     </g>
    </g>
    <g id="xtick_2">
     <g id="line2d_2">
      <g>
       <use xlink:href="#m3834a007c8" x="130.43849" y="106.947513" style="stroke: #000000; stroke-width: 0.8"/>
      </g>
     </g>
     <g id="text_2">
      <!-- $\mathdefault{0}$ -->
      <g transform="translate(127.698756 123.65786) scale(0.11 -0.11)">
       <defs>
        <path id="CMR17-30" d="M 2688 2025 
C 2688 2416 2682 3080 2413 3591 
C 2176 4039 1798 4198 1466 4198 
C 1158 4198 768 4058 525 3597 
C 269 3118 243 2524 243 2025 
C 243 1661 250 1106 448 619 
C 723 -39 1216 -128 1466 -128 
C 1760 -128 2208 -7 2470 600 
C 2662 1042 2688 1559 2688 2025 
z
M 1466 -26 
C 1056 -26 813 325 723 812 
C 653 1188 653 1738 653 2096 
C 653 2588 653 2997 736 3387 
C 858 3929 1216 4096 1466 4096 
C 1728 4096 2067 3923 2189 3400 
C 2272 3036 2278 2607 2278 2096 
C 2278 1680 2278 1169 2202 792 
C 2067 95 1690 -26 1466 -26 
z
" transform="scale(0.015625)"/>
       </defs>
       <use xlink:href="#CMR17-30" transform="scale(0.996264)"/>
      </g>
     </g>
    </g>
    <g id="xtick_3">
     <g id="line2d_3">
      <g>
       <use xlink:href="#m3834a007c8" x="180.449851" y="106.947513" style="stroke: #000000; stroke-width: 0.8"/>
      </g>
     </g>
     <g id="text_3">
      <!-- $\mathdefault{1}$ -->
      <g transform="translate(177.710118 123.65786) scale(0.11 -0.11)">
       <use xlink:href="#CMR17-31" transform="scale(0.996264)"/>
      </g>
     </g>
    </g>
    <g id="xtick_4">
     <g id="line2d_4">
      <g>
       <use xlink:href="#m3834a007c8" x="230.461213" y="106.947513" style="stroke: #000000; stroke-width: 0.8"/>
      </g>
     </g>
     <g id="text_4">
      <!-- $\mathdefault{2}$ -->
      <g transform="translate(227.721479 123.65786) scale(0.11 -0.11)">
       <defs>
        <path id="CMR17-32" d="M 2669 989 
L 2554 989 
C 2490 536 2438 459 2413 420 
C 2381 369 1920 369 1830 369 
L 602 369 
C 832 619 1280 1072 1824 1597 
C 2214 1967 2669 2402 2669 3035 
C 2669 3790 2067 4224 1395 4224 
C 691 4224 262 3604 262 3030 
C 262 2780 448 2748 525 2748 
C 589 2748 781 2787 781 3010 
C 781 3207 614 3264 525 3264 
C 486 3264 448 3258 422 3245 
C 544 3790 915 4058 1306 4058 
C 1862 4058 2227 3617 2227 3035 
C 2227 2479 1901 2000 1536 1584 
L 262 146 
L 262 0 
L 2515 0 
L 2669 989 
z
" transform="scale(0.015625)"/>
       </defs>
       <use xlink:href="#CMR17-32" transform="scale(0.996264)"/>
      </g>
     </g>
    </g>
    <g id="text_5">
     <!-- $\norm{\theta}_{\infty}$ -->
     <g transform="translate(130.369023 138.007932) scale(0.11 -0.11)">
      <defs>
       <path id="CMSY10-6b" d="M 1103 4582 
C 1103 4685 1103 4800 975 4800 
C 847 4800 847 4659 847 4563 
L 847 -1363 
C 847 -1466 847 -1600 975 -1600 
C 1103 -1600 1103 -1485 1103 -1382 
L 1103 4582 
z
M 2351 4563 
C 2351 4666 2351 4800 2223 4800 
C 2095 4800 2095 4685 2095 4582 
L 2095 -1382 
C 2095 -1485 2095 -1600 2223 -1600 
C 2351 -1600 2351 -1459 2351 -1363 
L 2351 4563 
z
" transform="scale(0.015625)"/>
       <path id="CMMI12-12" d="M 2835 3200 
C 2835 3850 2630 4480 2106 4480 
C 1210 4480 256 2615 256 1216 
C 256 923 320 -64 992 -64 
C 1862 -64 2835 1756 2835 3200 
z
M 896 2304 
C 992 2679 1126 3214 1382 3665 
C 1594 4047 1818 4352 2099 4352 
C 2310 4352 2451 4174 2451 3564 
C 2451 3334 2432 3017 2246 2304 
L 896 2304 
z
M 2202 2113 
C 2042 1490 1907 1088 1677 687 
C 1491 363 1267 64 998 64 
C 800 64 640 217 640 846 
C 640 1260 742 1693 845 2113 
L 2202 2113 
z
" transform="scale(0.015625)"/>
       <path id="CMSY10-31" d="M 3251 1730 
C 2906 2166 2829 2262 2630 2422 
C 2272 2710 1914 2825 1587 2825 
C 838 2825 352 2122 352 1374 
C 352 639 826 -70 1562 -70 
C 2298 -70 2829 511 3142 1022 
C 3488 588 3565 492 3763 332 
C 4122 45 4480 -70 4806 -70 
C 5555 -70 6042 633 6042 1380 
C 6042 2115 5568 2825 4832 2825 
C 4096 2825 3565 2242 3251 1730 
z
M 3418 1514 
C 3680 1975 4154 2620 4877 2620 
C 5555 2620 5901 1955 5901 1380 
C 5901 753 5472 236 4909 236 
C 4538 236 4250 505 4115 638 
C 3955 811 3808 1009 3418 1514 
z
M 2976 1240 
C 2714 780 2240 134 1517 134 
C 838 134 493 799 493 1374 
C 493 2000 922 2518 1485 2518 
C 1856 2518 2144 2249 2278 2115 
C 2438 1943 2586 1744 2976 1240 
z
" transform="scale(0.015625)"/>
      </defs>
      <use xlink:href="#CMSY10-6b" transform="scale(0.996264)"/>
      <use xlink:href="#CMMI12-12" transform="translate(49.813383 0) scale(0.996264)"/>
      <use xlink:href="#CMSY10-6b" transform="translate(97.982891 0) scale(0.996264)"/>
      <use xlink:href="#CMSY10-31" transform="translate(147.796274 -28.393509) scale(0.697382)"/>
     </g>
    </g>
   </g>
   <g id="matplotlib.axis_2">
    <g id="ytick_1">
     <g id="line2d_5">
      <defs>
       <path id="mdc9df54c40" d="M 0 0 
L -3.5 0 
" style="stroke: #000000; stroke-width: 0.8"/>
      </defs>
      <g>
       <use xlink:href="#mdc9df54c40" x="55.421448" y="102.626262" style="stroke: #000000; stroke-width: 0.8"/>
      </g>
     </g>
     <g id="text_6">
      <!-- $\mathdefault{0.0}$ -->
      <g transform="translate(32.318371 106.431436) scale(0.11 -0.11)">
       <defs>
        <path id="CMMI12-3a" d="M 1178 307 
C 1178 492 1024 619 870 619 
C 685 619 557 466 557 313 
C 557 128 710 0 864 0 
C 1050 0 1178 153 1178 307 
z
" transform="scale(0.015625)"/>
       </defs>
       <use xlink:href="#CMR17-30" transform="scale(0.996264)"/>
       <use xlink:href="#CMMI12-3a" transform="translate(45.690477 0) scale(0.996264)"/>
       <use xlink:href="#CMR17-30" transform="translate(72.787654 0) scale(0.996264)"/>
      </g>
     </g>
    </g>
    <g id="ytick_2">
     <g id="line2d_6">
      <g>
       <use xlink:href="#mdc9df54c40" x="55.421448" y="59.413374" style="stroke: #000000; stroke-width: 0.8"/>
      </g>
     </g>
     <g id="text_7">
      <!-- $\mathdefault{0.5}$ -->
      <g transform="translate(32.318371 63.218547) scale(0.11 -0.11)">
       <defs>
        <path id="CMR17-35" d="M 730 3692 
C 794 3666 1056 3584 1325 3584 
C 1920 3584 2246 3911 2432 4100 
C 2432 4157 2432 4192 2394 4192 
C 2387 4192 2374 4192 2323 4163 
C 2099 4058 1837 3973 1517 3973 
C 1325 3973 1037 3999 723 4139 
C 653 4171 640 4171 634 4171 
C 602 4171 595 4164 595 4037 
L 595 2203 
C 595 2089 595 2057 659 2057 
C 691 2057 704 2070 736 2114 
C 941 2401 1222 2522 1542 2522 
C 1766 2522 2246 2382 2246 1289 
C 2246 1085 2246 715 2054 421 
C 1894 159 1645 25 1370 25 
C 947 25 518 320 403 814 
C 429 807 480 795 506 795 
C 589 795 749 840 749 1038 
C 749 1210 627 1280 506 1280 
C 358 1280 262 1190 262 1011 
C 262 454 704 -128 1382 -128 
C 2042 -128 2669 440 2669 1264 
C 2669 2030 2170 2624 1549 2624 
C 1222 2624 947 2503 730 2274 
L 730 3692 
z
" transform="scale(0.015625)"/>
       </defs>
       <use xlink:href="#CMR17-30" transform="scale(0.996264)"/>
       <use xlink:href="#CMMI12-3a" transform="translate(45.690477 0) scale(0.996264)"/>
       <use xlink:href="#CMR17-35" transform="translate(72.787654 0) scale(0.996264)"/>
      </g>
     </g>
    </g>
    <g id="ytick_3">
     <g id="line2d_7">
      <g>
       <use xlink:href="#mdc9df54c40" x="55.421448" y="16.200486" style="stroke: #000000; stroke-width: 0.8"/>
      </g>
     </g>
     <g id="text_8">
      <!-- $\mathdefault{1.0}$ -->
      <g transform="translate(32.318371 20.005659) scale(0.11 -0.11)">
       <use xlink:href="#CMR17-31" transform="scale(0.996264)"/>
       <use xlink:href="#CMMI12-3a" transform="translate(45.690477 0) scale(0.996264)"/>
       <use xlink:href="#CMR17-30" transform="translate(72.787654 0) scale(0.996264)"/>
      </g>
     </g>
    </g>
    <g id="text_9">
     <!-- $\mathcal{L}(\theta)$ -->
     <g transform="translate(25.578645 70.17937) rotate(-90) scale(0.11 -0.11)">
      <defs>
       <path id="CMSY10-4c" d="M 1152 610 
C 1498 1151 1606 1562 1690 1903 
C 1914 2790 2157 3562 2554 4005 
C 2630 4090 2682 4147 2886 4147 
C 3328 4147 3341 3704 3341 3613 
C 3341 3498 3309 3407 3309 3375 
C 3309 3330 3347 3330 3354 3330 
C 3456 3330 3629 3401 3789 3517 
C 3904 3607 3962 3671 3962 3934 
C 3962 4281 3782 4544 3424 4544 
C 3219 4544 2656 4493 2029 3856 
C 1517 3329 1216 2172 1094 1690 
C 979 1248 928 1048 736 662 
C 691 586 525 303 435 219 
C 262 59 198 -57 198 -89 
C 198 -102 211 -128 256 -128 
C 282 -128 416 -102 582 5 
C 691 68 704 80 851 231 
C 1171 231 1395 173 1798 58 
C 2125 -32 2451 -128 2778 -128 
C 3296 -128 3821 264 4026 546 
C 4154 719 4192 880 4192 899 
C 4192 944 4154 944 4147 944 
C 4045 944 3891 874 3782 796 
C 3610 687 3597 649 3558 539 
C 3526 436 3488 385 3462 346 
C 3411 269 3405 269 3309 269 
C 3002 269 2682 366 2259 481 
C 2080 532 1728 636 1408 636 
C 1325 636 1235 629 1152 610 
z
" transform="scale(0.015625)"/>
       <path id="CMR17-28" d="M 1958 -1561 
C 1958 -1555 1958 -1542 1939 -1523 
C 1645 -1224 858 -407 858 1581 
C 858 3569 1632 4379 1946 4697 
C 1946 4704 1958 4717 1958 4736 
C 1958 4755 1939 4768 1914 4768 
C 1843 4768 1299 4296 986 3594 
C 666 2887 576 2199 576 1588 
C 576 1128 621 351 1005 -471 
C 1312 -1135 1837 -1600 1914 -1600 
C 1946 -1600 1958 -1587 1958 -1561 
z
" transform="scale(0.015625)"/>
       <path id="CMR17-29" d="M 1683 1581 
C 1683 2040 1638 2817 1254 3639 
C 947 4303 422 4768 346 4768 
C 326 4768 301 4761 301 4729 
C 301 4717 307 4710 314 4697 
C 621 4378 1402 3568 1402 1584 
C 1402 -407 627 -1217 314 -1537 
C 307 -1549 301 -1556 301 -1568 
C 301 -1600 326 -1600 346 -1600 
C 416 -1600 960 -1128 1274 -426 
C 1594 281 1683 969 1683 1581 
z
" transform="scale(0.015625)"/>
      </defs>
      <use xlink:href="#CMSY10-4c" transform="scale(0.996264)"/>
      <use xlink:href="#CMR17-28" transform="translate(68.714808 0) scale(0.996264)"/>
      <use xlink:href="#CMMI12-12" transform="translate(103.995576 0) scale(0.996264)"/>
      <use xlink:href="#CMR17-29" transform="translate(152.165083 0) scale(0.996264)"/>
     </g>
    </g>
   </g>
   <g id="line2d_8">
    <path d="M -1 16.339129 
L 4.009768 16.253521 
L 9.61104 16.22743 
L 20.813585 16.423174 
L 27.21504 16.415369 
L 29.615585 16.664432 
L 34.416676 17.388019 
L 36.017039 17.317937 
L 38.417585 16.880314 
L 40.81813 16.440723 
L 43.218675 16.269493 
L 49.62013 16.296645 
L 53.621039 16.441582 
L 61.622856 16.962685 
L 64.823584 16.777843 
L 71.225038 16.335864 
L 76.82631 16.221006 
L 82.427583 16.310901 
L 92.829946 16.690674 
L 100.031582 16.546827 
L 110.433945 16.434545 
L 112.834491 16.642805 
L 114.434854 17.102554 
L 115.235036 17.553983 
L 116.035218 18.256744 
L 116.8354 19.319335 
L 117.635581 20.871254 
L 118.435763 23.053468 
L 119.235945 26.003031 
L 120.036127 29.833105 
L 120.836308 34.610977 
L 121.63649 40.337695 
L 123.236854 54.231134 
L 126.437581 84.685577 
L 127.237763 90.913409 
L 128.037944 95.97377 
L 128.838126 99.670177 
L 129.638308 101.894267 
L 130.43849 102.626262 
L 131.238672 101.926202 
L 132.038853 99.918522 
L 132.839035 96.773165 
L 133.639217 92.686313 
L 135.239581 82.504529 
L 140.840853 43.202175 
L 142.441217 34.520002 
L 144.04158 27.732173 
L 144.841762 25.057149 
L 145.641944 22.836572 
L 146.442126 21.036767 
L 147.242307 19.615343 
L 148.042489 18.524383 
L 148.842671 17.713629 
L 149.642853 17.133329 
L 150.443034 16.736562 
L 152.043398 16.329469 
L 153.643762 16.221526 
L 164.046125 16.313508 
L 168.847215 16.537344 
L 174.448488 16.81089 
L 178.449397 16.742465 
L 191.252305 16.286918 
L 206.455759 16.251141 
L 212.057032 16.29979 
L 216.858122 16.374265 
L 222.459395 16.385256 
L 228.860849 16.49688 
L 240.863576 16.241722 
L 246.080946 16.351423 
L 246.080946 16.351423 
" clip-path="url(#pf3a285a71d)" style="fill: none; stroke: #4056a1; stroke-width: 1.4; stroke-linecap: square"/>
   </g>
   <g id="line2d_9">
    <path d="M -1 17.172717 
L 5.977868 17.177535 
L 14.779867 17.660967 
L 22.781685 17.651001 
L 25.982412 17.462485 
L 29.183139 17.019693 
L 33.184048 16.410868 
L 35.584594 16.274206 
L 38.785321 16.405653 
L 43.586411 16.673772 
L 49.987866 16.915145 
L 56.38932 17.325468 
L 59.590047 17.207626 
L 62.790774 16.841034 
L 66.791683 16.388264 
L 69.192229 16.371393 
L 73.193137 16.698914 
L 75.593683 16.805498 
L 77.994228 16.714572 
L 83.595501 16.392335 
L 87.59641 16.532524 
L 99.599136 17.165677 
L 102.799863 17.293722 
L 106.000591 17.107502 
L 114.002408 16.346655 
L 117.203136 16.347111 
L 121.204044 16.611139 
L 124.404772 16.796702 
L 126.805317 16.755531 
L 133.206771 16.404126 
L 136.407498 16.483977 
L 138.007862 16.780601 
L 138.808044 17.157853 
L 139.608226 17.805025 
L 140.408407 18.828885 
L 141.208589 20.340036 
L 142.008771 22.440184 
L 142.808953 25.208351 
L 143.609134 28.688107 
L 144.409316 32.877942 
L 146.00968 43.133516 
L 150.81077 78.097576 
L 152.411134 86.884039 
L 153.211316 90.29987 
L 154.011498 93.032598 
L 154.811679 95.079467 
L 155.611861 96.443172 
L 156.412043 97.124453 
L 157.212225 97.118092 
L 158.012407 96.413009 
L 158.812588 94.996297 
L 159.61277 92.860218 
L 160.412952 90.010599 
L 161.213134 86.474773 
L 162.813497 77.592475 
L 164.413861 66.990824 
L 167.614588 45.124045 
L 169.214952 35.943199 
L 170.815315 28.738683 
L 171.615497 25.913796 
L 172.415679 23.580727 
L 173.21586 21.699302 
L 174.016042 20.219221 
L 174.816224 19.084807 
L 175.616406 18.239089 
L 176.416588 17.627055 
L 177.216769 17.198049 
L 178.817133 16.716978 
L 180.417497 16.520197 
L 185.218587 16.330575 
L 190.81986 16.254532 
L 200.422041 16.363222 
L 206.023314 16.305327 
L 214.025131 16.308627 
L 219.626404 16.24233 
L 222.827131 16.434118 
L 229.228585 16.904174 
L 232.429312 16.891557 
L 237.230403 16.607448 
L 242.831676 16.266766 
L 246.080946 16.220961 
L 246.080946 16.220961 
" clip-path="url(#pf3a285a71d)" style="fill: none; stroke-dasharray: 5.18,2.24; stroke-dashoffset: 0; stroke: #f13c20; stroke-width: 1.4"/>
   </g>
   <g id="line2d_10">
    <path d="M -1 16.429121 
L 1.08463 16.294276 
L 4.285357 16.397952 
L 7.486084 16.432959 
L 12.287175 16.376752 
L 19.488811 16.505279 
L 29.090992 16.467822 
L 34.692265 16.614078 
L 38.693174 16.944629 
L 48.295355 17.997578 
L 50.695901 17.945215 
L 53.096446 17.623324 
L 59.4979 16.3642 
L 61.898445 16.249258 
L 68.2999 16.339597 
L 73.901172 16.458769 
L 79.502445 16.336096 
L 81.90299 16.597746 
L 85.103717 16.937798 
L 86.704081 16.912566 
L 93.105535 16.408527 
L 98.706808 16.585793 
L 102.707716 16.388825 
L 109.909353 16.479201 
L 113.910261 16.25986 
L 119.511534 16.289339 
L 125.912988 16.336088 
L 130.714079 16.253995 
L 141.916624 16.49291 
L 147.517896 16.350042 
L 153.919351 16.226832 
L 159.520623 16.285524 
L 165.121896 16.474413 
L 168.322623 16.221213 
L 169.122805 16.407924 
L 169.922986 16.878217 
L 170.723168 17.743987 
L 171.52335 19.111024 
L 172.323532 21.066437 
L 173.123713 23.667952 
L 173.923895 26.93682 
L 174.724077 30.855376 
L 176.324441 40.393487 
L 178.724986 57.382807 
L 181.125531 74.441052 
L 182.725895 83.84759 
L 183.526077 87.452159 
L 184.326258 90.094042 
L 185.12644 91.621742 
L 185.926622 91.921142 
L 186.726804 90.932327 
L 187.526986 88.662251 
L 188.327167 85.190371 
L 189.127349 80.665683 
L 190.727713 69.326621 
L 193.92844 44.601657 
L 195.528803 34.555891 
L 196.328985 30.499433 
L 197.129167 27.107504 
L 197.929349 24.348732 
L 198.729531 22.165873 
L 199.529712 20.485517 
L 200.329894 19.226926 
L 201.130076 18.309373 
L 201.930258 17.65766 
L 202.730439 17.205742 
L 204.330803 16.692496 
L 205.931167 16.46111 
L 209.131894 16.291187 
L 213.932984 16.295356 
L 222.734984 16.376459 
L 244.339892 16.355632 
L 246.080946 16.354813 
L 246.080946 16.354813 
" clip-path="url(#pf3a285a71d)" style="fill: none; stroke-dasharray: 8.96,2.24,1.4,2.24; stroke-dashoffset: 0; stroke: #692411; stroke-width: 1.4"/>
   </g>
   <g id="line2d_11">
    <path d="M -1 17.223512 
L 0.513038 17.318694 
L 2.113402 17.258341 
L 4.513947 16.911481 
L 7.714674 16.382314 
L 10.11522 16.211199 
L 13.315947 16.257996 
L 19.717401 16.397948 
L 32.52031 16.465268 
L 37.3214 16.539039 
L 42.922673 16.316956 
L 47.723764 16.201376 
L 52.524854 16.306381 
L 55.725581 16.619717 
L 58.926309 17.232498 
L 62.127036 17.910008 
L 63.727399 18.105792 
L 65.327763 18.129368 
L 66.928126 17.971271 
L 69.328672 17.492226 
L 72.529399 16.813272 
L 74.929944 16.517021 
L 78.130671 16.397764 
L 84.532126 16.467649 
L 95.734671 16.63166 
L 112.538488 16.24193 
L 115.739215 16.43557 
L 118.139761 16.785385 
L 123.741033 17.796726 
L 125.341397 17.80315 
L 127.741942 17.523847 
L 132.543033 16.813982 
L 135.74376 16.631651 
L 155.748304 16.220991 
L 164.550304 16.406959 
L 170.151577 16.662294 
L 172.552122 16.403072 
L 174.152485 16.219736 
L 174.952667 16.232304 
L 175.752849 16.38749 
L 176.553031 16.748463 
L 177.353213 17.379352 
L 178.153394 18.339445 
L 178.953576 19.677195 
L 179.753758 21.424684 
L 180.55394 23.593184 
L 182.154303 29.119051 
L 183.754667 35.867732 
L 186.955394 50.005317 
L 188.555758 55.592289 
L 189.355939 57.655441 
L 190.156121 59.130644 
L 190.956303 59.966929 
L 191.756485 60.136122 
L 192.556666 59.634378 
L 193.356848 58.482801 
L 194.15703 56.726932 
L 194.957212 54.434963 
L 196.557575 48.608675 
L 201.358666 29.014273 
L 202.95903 24.170276 
L 203.759211 22.261898 
L 204.559393 20.690239 
L 205.359575 19.4327 
L 206.159757 18.456697 
L 206.959939 17.723675 
L 207.76012 17.192781 
L 208.560302 16.823905 
L 210.160666 16.428427 
L 211.761029 16.299189 
L 215.761938 16.311098 
L 231.765574 16.424204 
L 240.567574 16.339752 
L 246.080946 16.447085 
L 246.080946 16.447085 
" clip-path="url(#pf3a285a71d)" style="fill: none; stroke-dasharray: 1.4,2.31; stroke-dashoffset: 0; stroke: #d79922; stroke-width: 1.4"/>
   </g>
   <g id="patch_3">
    <path d="M 55.421448 106.947513 
L 55.421448 11.88 
" style="fill: none; stroke: #000000; stroke-width: 0.8; stroke-linejoin: miter; stroke-linecap: square"/>
   </g>
   <g id="patch_4">
    <path d="M 230.461213 106.947513 
L 230.461213 11.88 
" style="fill: none; stroke: #000000; stroke-width: 0.8; stroke-linejoin: miter; stroke-linecap: square"/>
   </g>
   <g id="patch_5">
    <path d="M 55.421448 106.947513 
L 230.461213 106.947513 
" style="fill: none; stroke: #000000; stroke-width: 0.8; stroke-linejoin: miter; stroke-linecap: square"/>
   </g>
   <g id="patch_6">
    <path d="M 55.421448 11.88 
L 230.461213 11.88 
" style="fill: none; stroke: #000000; stroke-width: 0.8; stroke-linejoin: miter; stroke-linecap: square"/>
   </g>
   <g id="legend_1">
    <g id="line2d_12">
     <path d="M 62.021448 48.373934 
L 70.271448 48.373934 
L 78.521448 48.373934 
" style="fill: none; stroke: #4056a1; stroke-width: 1.4; stroke-linecap: square"/>
    </g>
    <g id="text_10">
     <!-- $\delta t=0.0$ -->
     <g transform="translate(82.921448 52.223934) scale(0.11 -0.11)">
      <defs>
       <path id="CMMI12-e" d="M 1664 2795 
C 845 2597 256 1748 256 1001 
C 256 319 717 -64 1229 -64 
C 1984 -64 2496 970 2496 1818 
C 2496 2392 2227 2744 2067 2954 
C 1830 3254 1446 3746 1446 4052 
C 1446 4161 1530 4352 1811 4352 
C 2010 4352 2131 4282 2323 4173 
C 2381 4134 2528 4052 2611 4052 
C 2746 4052 2842 4185 2842 4287 
C 2842 4409 2746 4428 2522 4479 
C 2221 4543 2131 4543 2022 4543 
C 1914 4543 1286 4543 1286 3892 
C 1286 3579 1446 3216 1664 2795 
z
M 1734 2669 
C 1978 2165 2074 1974 2074 1560 
C 2074 1063 1805 63 1235 63 
C 986 63 627 229 627 821 
C 627 1235 864 2439 1734 2669 
z
" transform="scale(0.015625)"/>
       <path id="CMMI12-74" d="M 1286 2566 
L 1875 2566 
C 1997 2566 2061 2566 2061 2681 
C 2061 2752 2022 2752 1894 2752 
L 1331 2752 
L 1568 3692 
C 1594 3781 1594 3794 1594 3840 
C 1594 3943 1510 4000 1427 4000 
C 1376 4000 1229 3981 1178 3775 
L 928 2752 
L 326 2752 
C 198 2752 141 2752 141 2630 
C 141 2566 186 2566 307 2566 
L 877 2566 
L 454 881 
C 403 658 384 594 384 511 
C 384 211 595 -64 954 -64 
C 1600 -64 1946 868 1946 912 
C 1946 951 1920 970 1882 970 
C 1869 970 1843 970 1830 944 
C 1824 938 1818 931 1773 829 
C 1638 511 1344 64 973 64 
C 781 64 768 224 768 364 
C 768 370 768 492 787 568 
L 1286 2566 
z
" transform="scale(0.015625)"/>
       <path id="CMR17-3d" d="M 4115 2017 
C 4211 2017 4307 2017 4307 2125 
C 4307 2240 4198 2240 4090 2240 
L 512 2240 
C 403 2240 294 2240 294 2125 
C 294 2017 390 2017 486 2017 
L 4115 2017 
z
M 4090 896 
C 4198 896 4307 896 4307 1011 
C 4307 1119 4211 1119 4115 1119 
L 486 1119 
C 390 1119 294 1119 294 1011 
C 294 896 403 896 512 896 
L 4090 896 
z
" transform="scale(0.015625)"/>
      </defs>
      <use xlink:href="#CMMI12-e" transform="scale(0.996264)"/>
      <use xlink:href="#CMMI12-74" transform="translate(46.941386 0) scale(0.996264)"/>
      <use xlink:href="#CMR17-3d" transform="translate(109.841725 0) scale(0.996264)"/>
      <use xlink:href="#CMR17-30" transform="translate(209.230522 0) scale(0.996264)"/>
      <use xlink:href="#CMMI12-3a" transform="translate(254.920999 0) scale(0.996264)"/>
      <use xlink:href="#CMR17-30" transform="translate(282.018176 0) scale(0.996264)"/>
     </g>
    </g>
    <g id="line2d_13">
     <path d="M 62.021448 63.704829 
L 70.271448 63.704829 
L 78.521448 63.704829 
" style="fill: none; stroke-dasharray: 5.18,2.24; stroke-dashoffset: 0; stroke: #f13c20; stroke-width: 1.4"/>
    </g>
    <g id="text_11">
     <!-- $\delta t=0.2$ -->
     <g transform="translate(82.921448 67.554829) scale(0.11 -0.11)">
      <use xlink:href="#CMMI12-e" transform="scale(0.996264)"/>
      <use xlink:href="#CMMI12-74" transform="translate(46.941386 0) scale(0.996264)"/>
      <use xlink:href="#CMR17-3d" transform="translate(109.841725 0) scale(0.996264)"/>
      <use xlink:href="#CMR17-30" transform="translate(209.230522 0) scale(0.996264)"/>
      <use xlink:href="#CMMI12-3a" transform="translate(254.920999 0) scale(0.996264)"/>
      <use xlink:href="#CMR17-32" transform="translate(282.018176 0) scale(0.996264)"/>
     </g>
    </g>
    <g id="line2d_14">
     <path d="M 62.021448 79.035724 
L 70.271448 79.035724 
L 78.521448 79.035724 
" style="fill: none; stroke-dasharray: 8.96,2.24,1.4,2.24; stroke-dashoffset: 0; stroke: #692411; stroke-width: 1.4"/>
    </g>
    <g id="text_12">
     <!-- $\delta t=0.5$ -->
     <g transform="translate(82.921448 82.885724) scale(0.11 -0.11)">
      <use xlink:href="#CMMI12-e" transform="scale(0.996264)"/>
      <use xlink:href="#CMMI12-74" transform="translate(46.941386 0) scale(0.996264)"/>
      <use xlink:href="#CMR17-3d" transform="translate(109.841725 0) scale(0.996264)"/>
      <use xlink:href="#CMR17-30" transform="translate(209.230522 0) scale(0.996264)"/>
      <use xlink:href="#CMMI12-3a" transform="translate(254.920999 0) scale(0.996264)"/>
      <use xlink:href="#CMR17-35" transform="translate(282.018176 0) scale(0.996264)"/>
     </g>
    </g>
    <g id="line2d_15">
     <path d="M 62.021448 94.366618 
L 70.271448 94.366618 
L 78.521448 94.366618 
" style="fill: none; stroke-dasharray: 1.4,2.31; stroke-dashoffset: 0; stroke: #d79922; stroke-width: 1.4"/>
    </g>
    <g id="text_13">
     <!-- $\delta t=0.8$ -->
     <g transform="translate(82.921448 98.216618) scale(0.11 -0.11)">
      <defs>
       <path id="CMR17-38" d="M 1741 2264 
C 2144 2467 2554 2773 2554 3263 
C 2554 3841 1990 4179 1472 4179 
C 890 4179 378 3759 378 3180 
C 378 3021 416 2747 666 2505 
C 730 2442 998 2251 1171 2130 
C 883 1983 211 1634 211 934 
C 211 279 838 -128 1459 -128 
C 2144 -128 2720 362 2720 1010 
C 2720 1590 2330 1857 2074 2029 
L 1741 2264 
z
M 902 2822 
C 851 2854 595 3051 595 3351 
C 595 3739 998 4032 1459 4032 
C 1965 4032 2336 3676 2336 3262 
C 2336 2669 1670 2331 1638 2331 
C 1632 2331 1626 2331 1574 2370 
L 902 2822 
z
M 2080 1519 
C 2176 1449 2483 1240 2483 851 
C 2483 381 2010 25 1472 25 
C 890 25 448 438 448 940 
C 448 1443 838 1862 1280 2060 
L 2080 1519 
z
" transform="scale(0.015625)"/>
      </defs>
      <use xlink:href="#CMMI12-e" transform="scale(0.996264)"/>
      <use xlink:href="#CMMI12-74" transform="translate(46.941386 0) scale(0.996264)"/>
      <use xlink:href="#CMR17-3d" transform="translate(109.841725 0) scale(0.996264)"/>
      <use xlink:href="#CMR17-30" transform="translate(209.230522 0) scale(0.996264)"/>
      <use xlink:href="#CMMI12-3a" transform="translate(254.920999 0) scale(0.996264)"/>
      <use xlink:href="#CMR17-38" transform="translate(282.018176 0) scale(0.996264)"/>
     </g>
    </g>
   </g>
  </g>
 </g>
 <defs>
  <clipPath id="pf3a285a71d">
   <rect x="55.421448" y="11.88" width="175.039765" height="95.067513"/>
  </clipPath>
 </defs>
</svg>
